<?xml version="1.0" encoding="utf-8"?>
<!-- Generator: Adobe Illustrator 16.0.0, SVG Export Plug-In . SVG Version: 6.00 Build 0)  -->
<!DOCTYPE svg PUBLIC "-//W3C//DTD SVG 1.1//EN" "http://www.w3.org/Graphics/SVG/1.1/DTD/svg11.dtd">
<svg version="1.1" id="Layer_1" xmlns="http://www.w3.org/2000/svg" xmlns:xlink="http://www.w3.org/1999/xlink" x="0px" y="0px"
	 width="225px" height="124px" viewBox="0 0 225 124" enable-background="new 0 0 225 124" xml:space="preserve">
<g id="Logotipo_x5F_SantaMonica_4_">
	<g id="SantamonicaLogo_x5F_Taglie_4_">
		<g>
			<path fill="#FFFFFF" d="M2.915,109.112c0.438,0,0.899-0.012,1.396-0.026c0.492-0.017,0.958-0.035,1.389-0.055
				c0.436-0.023,0.811-0.044,1.121-0.058c0.309-0.018,0.498-0.025,0.577-0.025c0.259,0,0.392,0.138,0.392,0.424
				c0,0.118-0.019,0.365-0.051,0.742c-0.032,0.373-0.046,0.826-0.046,1.361H7.04c0-0.229-0.016-0.445-0.042-0.649
				c-0.025-0.198-0.081-0.374-0.164-0.524c-0.082-0.152-0.195-0.276-0.352-0.367c-0.149-0.092-0.354-0.141-0.617-0.141h-2.95v5.166
				c0.36,0.053,0.724,0.092,1.086,0.121c0.363,0.029,0.727,0.043,1.102,0.043c0.378,0,0.759-0.043,1.138-0.121
				c0.381-0.085,0.704-0.246,0.979-0.48c0.054,0.053,0.104,0.127,0.153,0.228c0.046,0.096,0.075,0.202,0.075,0.324
				c0,0.286-0.156,0.517-0.475,0.709c-0.313,0.189-0.809,0.286-1.481,0.286c-0.444,0-0.88-0.036-1.3-0.1
				c-0.429-0.065-0.849-0.15-1.276-0.259v4.61c0,0.435,0.099,0.801,0.288,1.101c0.188,0.301,0.421,0.543,0.691,0.73
				c0.271,0.193,0.559,0.33,0.863,0.41c0.306,0.082,0.571,0.121,0.797,0.121c0.317,0,0.573-0.039,0.778-0.121
				c0.198-0.08,0.358-0.188,0.478-0.318c0.116-0.131,0.205-0.279,0.253-0.447c0.049-0.168,0.073-0.344,0.073-0.531
				c0-0.281-0.047-0.514-0.139-0.687c-0.093-0.183-0.234-0.351-0.432-0.5v-0.069c0.197-0.032,0.367-0.045,0.521-0.045
				c0.238,0,0.435,0.039,0.58,0.121c0.147,0.083,0.258,0.185,0.34,0.318c0.081,0.131,0.138,0.277,0.163,0.441
				c0.029,0.165,0.04,0.324,0.04,0.488c0.131,0,0.234,0.061,0.309,0.185c0.078,0.126,0.117,0.3,0.117,0.514
				c0,0.195-0.043,0.385-0.13,0.566c-0.087,0.176-0.229,0.332-0.418,0.471c-0.189,0.135-0.438,0.246-0.747,0.326
				c-0.312,0.08-0.689,0.119-1.135,0.119c-0.652,0-1.229-0.078-1.734-0.242c-0.503-0.162-0.974-0.342-1.408-0.527
				c-0.438-0.193-0.855-0.369-1.262-0.531c-0.41-0.164-0.841-0.246-1.296-0.246H0v-0.684c0.142,0,0.3-0.008,0.474-0.025
				c0.172-0.017,0.332-0.067,0.47-0.156c0.147-0.081,0.265-0.222,0.364-0.413c0.096-0.192,0.142-0.46,0.142-0.806v-9.125
				c0-0.26-0.046-0.466-0.142-0.616c-0.1-0.154-0.217-0.265-0.364-0.335c-0.138-0.067-0.298-0.118-0.47-0.139
				C0.3,109.639,0.142,109.631,0,109.631v-0.684c0.132,0,0.332,0.008,0.606,0.025c0.267,0.013,0.555,0.035,0.852,0.058
				c0.299,0.021,0.584,0.038,0.858,0.055C2.587,109.1,2.79,109.112,2.915,109.112z"/>
			<path fill="#FFFFFF" d="M12.076,120.515c0,0.221,0.031,0.396,0.103,0.537c0.072,0.142,0.157,0.258,0.261,0.342
				c0.104,0.087,0.222,0.15,0.36,0.19c0.136,0.038,0.266,0.053,0.396,0.053v0.487c-0.13,0-0.274-0.004-0.428-0.02
				c-0.16-0.02-0.328-0.035-0.498-0.059c-0.176-0.021-0.339-0.043-0.5-0.057c-0.153-0.014-0.299-0.025-0.432-0.025
				c-0.127,0-0.27,0.012-0.431,0.025c-0.156,0.014-0.325,0.035-0.495,0.057c-0.175,0.023-0.341,0.039-0.499,0.059
				c-0.156,0.016-0.303,0.02-0.432,0.02v-0.487c0.293,0,0.557-0.078,0.785-0.243c0.228-0.158,0.342-0.455,0.342-0.879v-8.438
				c0-0.403-0.008-0.738-0.029-1.004c-0.014-0.263-0.06-0.475-0.135-0.617c-0.078-0.15-0.185-0.249-0.324-0.309
				c-0.143-0.062-0.338-0.091-0.589-0.091v-0.409c0.271,0,0.51-0.015,0.71-0.047c0.199-0.032,0.381-0.081,0.542-0.15
				c0.162-0.063,0.313-0.138,0.452-0.228c0.135-0.081,0.278-0.174,0.43-0.274h0.411V120.515z"/>
			<path fill="#FFFFFF" d="M20.14,113.672c-0.297,0.131-0.566,0.197-0.816,0.197c-0.381,0-0.666-0.13-0.854-0.387
				c-0.189-0.255-0.286-0.544-0.286-0.868c-0.252,0-0.455-0.104-0.611-0.313c-0.157-0.208-0.235-0.488-0.235-0.845
				c0-0.488,0.15-0.902,0.445-1.236c0.302-0.339,0.688-0.618,1.151-0.834c0.467-0.217,0.987-0.375,1.558-0.474
				c0.564-0.093,1.125-0.146,1.667-0.146c0.531,0,0.993,0.04,1.385,0.117c0.394,0.075,0.753,0.161,1.084,0.249
				c0.332,0.097,0.648,0.179,0.955,0.254c0.3,0.074,0.646,0.114,1.027,0.114c0.206,0,0.419-0.014,0.646-0.051
				c0.232-0.028,0.455-0.089,0.672-0.17c0.217-0.079,0.417-0.194,0.594-0.332c0.179-0.142,0.329-0.32,0.45-0.538
				c0.149,0.11,0.288,0.243,0.413,0.399c0.124,0.156,0.189,0.346,0.189,0.563c0,0.086-0.017,0.179-0.044,0.275
				c-0.025,0.1-0.081,0.189-0.16,0.271c-0.082,0.082-0.196,0.149-0.336,0.203c-0.142,0.057-0.325,0.083-0.552,0.083
				c0,0.313-0.096,0.549-0.287,0.698c-0.19,0.157-0.447,0.229-0.774,0.229c-0.346,0-0.701-0.072-1.066-0.221
				c-0.362-0.148-0.759-0.304-1.182-0.478c-0.424-0.175-0.892-0.332-1.401-0.481c-0.515-0.146-1.082-0.221-1.71-0.221
				c-0.424,0-0.822,0.046-1.197,0.128c-0.373,0.09-0.705,0.228-0.994,0.411c-0.288,0.185-0.51,0.426-0.672,0.733
				c-0.166,0.302-0.252,0.673-0.252,1.108c0,0.53,0.115,0.908,0.342,1.132c0.232,0.222,0.514,0.336,0.853,0.336V113.672z
				 M22.471,113.021c0-1.661,0.801-2.495,2.408-2.495v0.149c-0.195,0-0.356,0.029-0.48,0.097c-0.125,0.067-0.221,0.152-0.286,0.271
				c-0.064,0.11-0.11,0.239-0.138,0.377c-0.028,0.145-0.039,0.295-0.039,0.456v8.442c0,0.26,0.05,0.471,0.156,0.62
				c0.104,0.148,0.228,0.264,0.375,0.334c0.146,0.068,0.298,0.118,0.47,0.137c0.167,0.024,0.315,0.035,0.445,0.035v0.68
				c-0.13,0-0.292-0.004-0.484-0.02c-0.199-0.02-0.4-0.035-0.606-0.059c-0.206-0.021-0.405-0.043-0.602-0.057
				c-0.193-0.014-0.356-0.025-0.488-0.025s-0.296,0.012-0.487,0.025c-0.197,0.014-0.396,0.035-0.604,0.057
				c-0.207,0.023-0.406,0.039-0.603,0.059c-0.195,0.016-0.359,0.02-0.49,0.02v-0.68c0.143,0,0.298-0.011,0.474-0.035
				c0.171-0.019,0.33-0.068,0.474-0.137c0.142-0.07,0.256-0.186,0.355-0.334c0.097-0.149,0.15-0.36,0.15-0.62V113.021z"/>
			<path fill="#FFFFFF" d="M30.11,120.515c0,0.221,0.036,0.396,0.103,0.537c0.075,0.142,0.157,0.258,0.265,0.342
				c0.104,0.087,0.221,0.15,0.356,0.19c0.135,0.038,0.271,0.053,0.398,0.053v0.487c-0.127,0-0.271-0.004-0.428-0.02
				c-0.159-0.02-0.323-0.035-0.498-0.059c-0.178-0.021-0.339-0.043-0.498-0.057c-0.157-0.014-0.301-0.025-0.433-0.025
				c-0.129,0-0.271,0.012-0.432,0.025c-0.156,0.014-0.323,0.035-0.498,0.057c-0.172,0.023-0.339,0.039-0.495,0.059
				c-0.157,0.016-0.304,0.02-0.432,0.02v-0.487c0.293,0,0.552-0.078,0.78-0.243c0.229-0.158,0.346-0.455,0.346-0.879v-2.719
				c0-0.403-0.011-0.738-0.027-1.004c-0.015-0.265-0.063-0.474-0.137-0.618c-0.077-0.145-0.185-0.252-0.326-0.31
				c-0.145-0.063-0.34-0.089-0.585-0.089v-0.41c0.267,0,0.505-0.013,0.709-0.05c0.199-0.032,0.381-0.077,0.541-0.146
				c0.164-0.064,0.313-0.139,0.448-0.229c0.14-0.081,0.282-0.178,0.437-0.274h0.405v1.692c0.26-0.637,0.574-1.111,0.937-1.407
				c0.364-0.299,0.735-0.449,1.117-0.449c0.238,0,0.455,0.04,0.647,0.111c0.198,0.082,0.296,0.209,0.296,0.392
				c0.218,0,0.388,0.074,0.513,0.217c0.125,0.137,0.189,0.335,0.189,0.584c0,0.282-0.097,0.527-0.296,0.741
				c-0.193,0.211-0.521,0.36-0.977,0.448c0.047-0.162,0.063-0.328,0.063-0.49c0-0.39-0.086-0.677-0.267-0.864
				c-0.182-0.185-0.379-0.277-0.596-0.277c-0.175,0-0.356,0.089-0.544,0.271c-0.189,0.177-0.364,0.423-0.531,0.741
				c-0.161,0.313-0.296,0.68-0.399,1.098c-0.103,0.419-0.153,0.872-0.153,1.36V120.515z"/>
			<path fill="#FFFFFF" d="M40.75,120.515c0,0.221,0.033,0.396,0.105,0.537c0.069,0.142,0.154,0.258,0.263,0.342
				c0.099,0.087,0.221,0.15,0.356,0.19c0.135,0.038,0.268,0.053,0.398,0.053v0.487c-0.249,0-0.464-0.018-0.646-0.061
				c-0.177-0.045-0.396-0.066-0.641-0.066c-0.253,0-0.466,0.006-0.653,0.018c-0.185,0.01-0.4,0.049-0.65,0.109v-0.861
				c-0.255,0.285-0.55,0.538-0.898,0.76c-0.346,0.223-0.77,0.33-1.272,0.33c-0.398,0-0.767-0.053-1.099-0.16
				c-0.33-0.109-0.61-0.268-0.843-0.473c-0.236-0.205-0.418-0.454-0.549-0.742c-0.129-0.284-0.192-0.609-0.192-0.97
				c0-0.345,0.063-0.659,0.202-0.933c0.135-0.282,0.328-0.514,0.576-0.702c0.251-0.193,0.543-0.339,0.879-0.443
				c0.338-0.1,0.715-0.153,1.124-0.153c0.468,0,0.868,0.046,1.198,0.139c0.335,0.092,0.619,0.197,0.874,0.318v-0.603
				c0-0.281-0.019-0.563-0.059-0.848c-0.034-0.281-0.113-0.538-0.221-0.767c-0.109-0.228-0.263-0.41-0.47-0.552
				c-0.21-0.143-0.474-0.212-0.803-0.212c-0.139,0-0.295,0.017-0.462,0.049c-0.168,0.032-0.324,0.089-0.464,0.171
				c-0.139,0.08-0.26,0.192-0.36,0.328c-0.096,0.135-0.146,0.306-0.146,0.509c0,0.11,0.018,0.236,0.05,0.375
				c-0.164,0.089-0.342,0.132-0.537,0.132c-0.303,0-0.528-0.085-0.667-0.25c-0.144-0.171-0.213-0.364-0.213-0.58
				c0-0.217,0.073-0.41,0.22-0.578c0.146-0.167,0.357-0.253,0.627-0.253c0-0.121,0.054-0.221,0.16-0.309
				c0.111-0.089,0.257-0.153,0.433-0.203c0.181-0.051,0.377-0.087,0.594-0.108c0.222-0.021,0.442-0.032,0.671-0.032
				c0.488,0,0.926,0.058,1.312,0.17c0.389,0.115,0.712,0.311,0.979,0.589c0.264,0.273,0.468,0.645,0.609,1.105
				c0.142,0.461,0.213,1.046,0.213,1.751V120.515z M37.572,121.608c0.378,0,0.712-0.114,0.994-0.336
				c0.282-0.223,0.521-0.49,0.717-0.809v-1.628c-0.255-0.121-0.524-0.217-0.836-0.298c-0.301-0.083-0.608-0.122-0.907-0.122
				c-0.438,0-0.807,0.128-1.115,0.388c-0.311,0.26-0.467,0.631-0.467,1.108c0,0.5,0.146,0.906,0.441,1.222
				C36.695,121.45,37.085,121.608,37.572,121.608z"/>
			<path fill="#FFFFFF" d="M50.083,120.155c0,1,0.097,1.76,0.295,2.272c0.194,0.518,0.596,0.773,1.202,0.773
				c0.077,0,0.167-0.004,0.271-0.014c0.106-0.01,0.185-0.029,0.239-0.049l0.045,0.082c-0.138,0.227-0.335,0.377-0.576,0.455
				c-0.246,0.078-0.479,0.113-0.696,0.113c-0.42,0-0.748-0.088-0.983-0.277c-0.231-0.184-0.353-0.412-0.353-0.684
				c-0.311,0-0.537-0.115-0.665-0.338c-0.129-0.232-0.208-0.574-0.229-1.031c-0.368,0.359-0.746,0.6-1.146,0.721
				c-0.395,0.117-0.78,0.174-1.15,0.174c-0.585,0-1.102-0.096-1.547-0.289c-0.445-0.194-0.819-0.469-1.124-0.825
				c-0.304-0.353-0.532-0.774-0.682-1.262c-0.154-0.488-0.232-1.026-0.232-1.614c0-0.685,0.106-1.265,0.321-1.75
				c0.208-0.484,0.487-0.879,0.828-1.201c0.343-0.309,0.735-0.54,1.174-0.688s0.887-0.221,1.347-0.221
				c0.453,0,0.855,0.072,1.204,0.21c0.346,0.146,0.678,0.392,0.994,0.752v-3.308c0-0.401-0.006-0.736-0.025-1.004
				c-0.017-0.263-0.063-0.474-0.138-0.621c-0.076-0.142-0.185-0.248-0.328-0.306c-0.139-0.06-0.338-0.088-0.584-0.088v-0.492
				c0.271,0,0.502-0.015,0.691-0.047c0.188-0.032,0.362-0.081,0.513-0.15c0.153-0.063,0.296-0.138,0.423-0.228
				c0.13-0.081,0.271-0.174,0.425-0.274h0.488V120.155z M46.42,121.608c0.367,0,0.694-0.086,0.977-0.252
				c0.281-0.172,0.512-0.404,0.691-0.695c0.183-0.293,0.313-0.631,0.405-1.017c0.093-0.388,0.139-0.8,0.139-1.247
				c0-0.423-0.046-0.822-0.127-1.197c-0.09-0.375-0.225-0.709-0.405-0.995c-0.191-0.29-0.419-0.512-0.696-0.676
				c-0.274-0.164-0.612-0.246-1.001-0.246c-0.393,0-0.724,0.079-0.994,0.235c-0.275,0.16-0.488,0.377-0.652,0.655
				c-0.16,0.274-0.282,0.603-0.35,0.977c-0.07,0.375-0.105,0.78-0.105,1.212c0,0.426,0.035,0.833,0.096,1.226
				c0.067,0.388,0.181,0.734,0.346,1.033c0.162,0.3,0.382,0.534,0.646,0.717C45.664,121.515,46.006,121.608,46.42,121.608z"/>
			<path fill="#FFFFFF" d="M54.48,120.515c0,0.221,0.035,0.396,0.106,0.537c0.071,0.142,0.161,0.258,0.264,0.342
				c0.104,0.087,0.222,0.15,0.356,0.19c0.136,0.038,0.271,0.053,0.399,0.053v0.487c-0.129,0-0.275-0.004-0.429-0.02
				c-0.162-0.02-0.324-0.035-0.498-0.059c-0.178-0.021-0.339-0.043-0.499-0.057c-0.156-0.014-0.3-0.025-0.431-0.025
				c-0.133,0-0.274,0.012-0.432,0.025c-0.156,0.014-0.324,0.035-0.498,0.057c-0.176,0.023-0.339,0.039-0.495,0.059
				c-0.161,0.016-0.304,0.02-0.433,0.02v-0.487c0.293,0,0.553-0.078,0.781-0.243c0.228-0.158,0.346-0.455,0.346-0.879v-2.801
				c0-0.403-0.015-0.737-0.025-1c-0.019-0.269-0.067-0.476-0.139-0.621c-0.078-0.151-0.185-0.251-0.328-0.311
				c-0.143-0.06-0.338-0.089-0.585-0.089v-0.488c0.271,0,0.5-0.019,0.688-0.051c0.194-0.031,0.364-0.081,0.518-0.149
				c0.151-0.065,0.292-0.14,0.426-0.228c0.126-0.082,0.269-0.175,0.418-0.275h0.489V120.515z M52.641,112.094
				c0-0.326,0.114-0.602,0.344-0.822c0.228-0.225,0.499-0.339,0.815-0.339c0.313,0,0.58,0.114,0.806,0.339
				c0.224,0.22,0.334,0.496,0.334,0.822c0,0.324-0.11,0.598-0.334,0.819c-0.226,0.221-0.493,0.336-0.806,0.336
				c-0.316,0-0.588-0.115-0.815-0.336C52.755,112.692,52.641,112.417,52.641,112.094z"/>
			<path fill="#FFFFFF" d="M60.448,114.502c0.107,0,0.232,0.005,0.377,0.008c0.147,0.006,0.289,0.024,0.426,0.057
				c0.138,0.034,0.253,0.084,0.354,0.155c0.1,0.067,0.143,0.172,0.143,0.301c0.384,0,0.681,0.085,0.89,0.251
				c0.211,0.168,0.321,0.447,0.321,0.824c0,0.218-0.04,0.403-0.119,0.563c-0.073,0.157-0.174,0.285-0.292,0.381
				c-0.119,0.101-0.255,0.177-0.405,0.219c-0.155,0.049-0.304,0.079-0.456,0.079c-0.064,0-0.142-0.003-0.239-0.011
				c-0.094-0.004-0.167-0.019-0.235-0.039v-0.068c0.154-0.052,0.275-0.146,0.36-0.285c0.086-0.136,0.133-0.32,0.133-0.559
				c0-0.329-0.104-0.592-0.304-0.799c-0.203-0.209-0.535-0.31-0.986-0.31c-0.738,0-1.287,0.284-1.636,0.854
				c-0.354,0.57-0.531,1.344-0.531,2.32c0,1.034,0.188,1.818,0.56,2.356c0.377,0.538,0.922,0.809,1.642,0.809
				c0.518,0,0.917-0.139,1.197-0.418c0.275-0.277,0.457-0.676,0.543-1.196h0.067c0.139,0.054,0.281,0.135,0.424,0.253
				c0.139,0.11,0.21,0.296,0.21,0.542c0,0.449-0.234,0.819-0.709,1.118c-0.47,0.301-1.093,0.445-1.867,0.445
				c-0.52,0-1.001-0.078-1.447-0.232c-0.444-0.158-0.829-0.395-1.157-0.711c-0.325-0.313-0.581-0.714-0.767-1.205
				c-0.185-0.488-0.278-1.058-0.278-1.71c0-0.66,0.1-1.244,0.296-1.743c0.192-0.5,0.46-0.919,0.795-1.254
				c0.338-0.34,0.737-0.586,1.201-0.748C59.419,114.586,59.914,114.502,60.448,114.502z"/>
			<path fill="#FFFFFF" d="M66.652,120.515c0,0.221,0.04,0.396,0.107,0.537c0.071,0.142,0.157,0.258,0.26,0.342
				c0.104,0.087,0.225,0.15,0.359,0.19c0.136,0.038,0.268,0.053,0.4,0.053v0.487c-0.133,0-0.277-0.004-0.432-0.02
				c-0.156-0.02-0.324-0.035-0.499-0.059c-0.17-0.021-0.338-0.043-0.496-0.057c-0.155-0.014-0.301-0.025-0.43-0.025
				c-0.137,0-0.278,0.012-0.432,0.025c-0.161,0.014-0.324,0.035-0.499,0.057c-0.174,0.023-0.339,0.039-0.499,0.059
				c-0.156,0.016-0.299,0.02-0.431,0.02v-0.487c0.296,0,0.552-0.078,0.78-0.243c0.23-0.158,0.345-0.455,0.345-0.879v-2.801
				c0-0.403-0.007-0.737-0.023-1c-0.019-0.269-0.064-0.476-0.139-0.621c-0.075-0.151-0.188-0.251-0.326-0.311
				c-0.139-0.06-0.338-0.089-0.588-0.089v-0.488c0.275,0,0.503-0.019,0.691-0.051c0.189-0.031,0.364-0.081,0.513-0.149
				c0.154-0.065,0.296-0.14,0.426-0.228c0.127-0.082,0.271-0.175,0.424-0.275h0.487V120.515z M64.814,112.094
				c0-0.326,0.11-0.602,0.342-0.822c0.228-0.225,0.498-0.339,0.813-0.339c0.315,0,0.584,0.114,0.806,0.339
				c0.225,0.22,0.335,0.496,0.335,0.822c0,0.324-0.11,0.598-0.335,0.819c-0.222,0.221-0.49,0.336-0.806,0.336
				c-0.314,0-0.585-0.115-0.813-0.336C64.925,112.692,64.814,112.417,64.814,112.094z"/>
			<path fill="#FFFFFF" d="M72.65,122.353c-0.543,0-1.048-0.092-1.508-0.281c-0.463-0.189-0.866-0.459-1.215-0.809
				c-0.347-0.347-0.62-0.763-0.813-1.255c-0.2-0.488-0.296-1.036-0.296-1.646c0-0.616,0.096-1.167,0.296-1.643
				c0.192-0.477,0.466-0.883,0.813-1.215c0.349-0.332,0.752-0.581,1.215-0.749c0.46-0.167,0.965-0.253,1.508-0.253
				c0.53,0,1.029,0.086,1.496,0.253c0.471,0.168,0.876,0.417,1.226,0.749c0.347,0.332,0.616,0.738,0.809,1.215
				c0.201,0.477,0.3,1.027,0.3,1.643c0,0.62-0.099,1.172-0.3,1.664c-0.192,0.489-0.462,0.909-0.809,1.254
				c-0.35,0.35-0.755,0.612-1.226,0.799C73.68,122.265,73.181,122.353,72.65,122.353z M72.665,121.608
				c0.401,0,0.743-0.09,1.024-0.265c0.282-0.173,0.518-0.405,0.704-0.705c0.185-0.299,0.32-0.645,0.404-1.037
				c0.089-0.388,0.129-0.805,0.129-1.24c0-0.421-0.04-0.824-0.129-1.201c-0.084-0.385-0.22-0.713-0.404-0.988
				c-0.187-0.278-0.422-0.499-0.71-0.661c-0.285-0.16-0.63-0.243-1.033-0.243c-0.404,0-0.749,0.075-1.037,0.235
				c-0.285,0.161-0.523,0.377-0.706,0.652c-0.185,0.278-0.321,0.605-0.409,0.987c-0.085,0.381-0.129,0.787-0.129,1.219
				c0,0.435,0.044,0.852,0.129,1.24c0.088,0.392,0.225,0.738,0.417,1.037c0.188,0.3,0.427,0.532,0.715,0.705
				C71.92,121.519,72.265,121.608,72.665,121.608z"/>
			<path fill="#FFFFFF" d="M84.086,119.082c0-0.73-0.033-1.335-0.104-1.824c-0.074-0.492-0.18-0.879-0.318-1.173
				c-0.143-0.295-0.323-0.502-0.541-0.63c-0.214-0.125-0.463-0.185-0.745-0.185c-0.284,0-0.553,0.053-0.809,0.161
				c-0.257,0.111-0.481,0.281-0.677,0.512c-0.193,0.235-0.349,0.539-0.463,0.912c-0.115,0.375-0.171,0.824-0.171,1.349v2.312
				c0,0.221,0.034,0.396,0.103,0.537c0.071,0.142,0.159,0.258,0.263,0.342c0.103,0.087,0.223,0.15,0.357,0.19
				c0.14,0.038,0.271,0.053,0.402,0.053v0.487c-0.132,0-0.278-0.004-0.432-0.02c-0.16-0.02-0.325-0.035-0.499-0.059
				c-0.175-0.021-0.338-0.043-0.495-0.057c-0.16-0.014-0.302-0.025-0.436-0.025c-0.129,0-0.273,0.012-0.427,0.025
				c-0.16,0.014-0.327,0.035-0.499,0.057c-0.178,0.023-0.338,0.039-0.499,0.059c-0.157,0.016-0.3,0.02-0.429,0.02v-0.487
				c0.294,0,0.554-0.078,0.779-0.243c0.229-0.158,0.345-0.455,0.345-0.879v-2.719c0-0.403-0.011-0.738-0.024-1.004
				c-0.019-0.265-0.064-0.474-0.139-0.618c-0.079-0.145-0.186-0.252-0.328-0.31c-0.139-0.063-0.339-0.089-0.584-0.089v-0.41
				c0.27,0,0.505-0.013,0.709-0.05c0.199-0.032,0.381-0.077,0.544-0.146c0.165-0.064,0.31-0.139,0.446-0.229
				c0.139-0.081,0.28-0.178,0.436-0.274h0.406v1.141c0.206-0.384,0.49-0.695,0.858-0.936c0.358-0.249,0.795-0.369,1.294-0.369
				c1.071,0,1.866,0.328,2.376,0.978c0.51,0.655,0.765,1.736,0.765,3.243v1.709c0,0.217,0.036,0.399,0.108,0.54
				c0.07,0.142,0.157,0.252,0.259,0.344c0.104,0.087,0.227,0.146,0.361,0.186c0.134,0.041,0.271,0.058,0.398,0.058v0.565
				c-0.142,0-0.268-0.004-0.374-0.02c-0.11-0.02-0.22-0.033-0.335-0.051c-0.113-0.014-0.243-0.031-0.392-0.051
				c-0.146-0.014-0.324-0.023-0.527-0.023c-0.142,0-0.308,0.01-0.48,0.023c-0.183,0.02-0.394,0.061-0.646,0.121l-0.146-0.272
				c0.076-0.076,0.136-0.215,0.178-0.415c0.043-0.201,0.072-0.43,0.091-0.693c0.017-0.261,0.023-0.539,0.035-0.832
				C84.086,119.616,84.086,119.342,84.086,119.082z"/>
			<path fill="#FFFFFF" d="M93.827,120.515c0,0.221,0.035,0.396,0.11,0.537c0.067,0.142,0.153,0.258,0.26,0.342
				c0.104,0.087,0.222,0.15,0.36,0.19c0.131,0.038,0.268,0.053,0.396,0.053v0.487c-0.249,0-0.464-0.018-0.641-0.061
				c-0.183-0.045-0.396-0.066-0.646-0.066c-0.249,0-0.466,0.006-0.651,0.018c-0.186,0.01-0.398,0.049-0.655,0.109v-0.861
				c-0.246,0.285-0.545,0.538-0.892,0.76c-0.348,0.223-0.77,0.33-1.271,0.33c-0.403,0-0.77-0.053-1.102-0.16
				c-0.331-0.109-0.612-0.268-0.849-0.473c-0.23-0.205-0.412-0.454-0.541-0.742c-0.131-0.284-0.199-0.609-0.199-0.97
				c0-0.345,0.068-0.659,0.202-0.933c0.141-0.282,0.332-0.514,0.583-0.702c0.249-0.193,0.54-0.339,0.878-0.443
				c0.34-0.1,0.711-0.153,1.128-0.153c0.465,0,0.865,0.046,1.197,0.139c0.328,0.092,0.619,0.197,0.865,0.318v-0.603
				c0-0.281-0.015-0.563-0.054-0.848c-0.035-0.281-0.11-0.538-0.218-0.767c-0.109-0.228-0.266-0.41-0.474-0.552
				c-0.206-0.143-0.476-0.212-0.799-0.212c-0.143,0-0.299,0.017-0.466,0.049c-0.169,0.032-0.32,0.089-0.463,0.171
				c-0.143,0.08-0.261,0.192-0.356,0.328c-0.097,0.135-0.151,0.306-0.151,0.509c0,0.11,0.02,0.236,0.055,0.375
				c-0.164,0.089-0.346,0.132-0.538,0.132c-0.307,0-0.527-0.085-0.67-0.25c-0.142-0.171-0.213-0.364-0.213-0.58
				c0-0.217,0.074-0.41,0.22-0.578c0.147-0.167,0.356-0.253,0.628-0.253c0-0.121,0.057-0.221,0.163-0.309
				c0.107-0.089,0.253-0.153,0.431-0.203c0.181-0.051,0.379-0.087,0.596-0.108c0.218-0.021,0.438-0.032,0.666-0.032
				c0.488,0,0.931,0.058,1.312,0.17c0.385,0.115,0.71,0.311,0.979,0.589c0.268,0.273,0.471,0.645,0.61,1.105
				c0.143,0.461,0.21,1.046,0.21,1.751V120.515z M90.651,121.608c0.382,0,0.711-0.114,0.995-0.336
				c0.28-0.223,0.523-0.49,0.713-0.809v-1.628c-0.246-0.121-0.524-0.217-0.827-0.298c-0.307-0.083-0.609-0.122-0.912-0.122
				c-0.435,0-0.809,0.128-1.115,0.388c-0.311,0.26-0.464,0.631-0.464,1.108c0,0.5,0.146,0.906,0.438,1.222
				C89.772,121.45,90.164,121.608,90.651,121.608z"/>
			<path fill="#FFFFFF" d="M98.163,120.515c0,0.221,0.033,0.396,0.104,0.537c0.072,0.142,0.161,0.258,0.266,0.342
				c0.099,0.087,0.22,0.15,0.354,0.19c0.14,0.038,0.268,0.053,0.4,0.053v0.487c-0.133,0-0.274-0.004-0.433-0.02
				c-0.161-0.02-0.319-0.035-0.495-0.059c-0.178-0.021-0.338-0.043-0.499-0.057c-0.155-0.014-0.303-0.025-0.431-0.025
				c-0.131,0-0.271,0.012-0.431,0.025s-0.325,0.035-0.499,0.057c-0.174,0.023-0.339,0.039-0.499,0.059
				c-0.152,0.016-0.299,0.02-0.431,0.02v-0.487c0.294,0,0.556-0.078,0.782-0.243c0.229-0.158,0.343-0.455,0.343-0.879v-8.438
				c0-0.403-0.007-0.738-0.021-1.004c-0.018-0.263-0.064-0.475-0.138-0.617c-0.08-0.15-0.188-0.249-0.329-0.309
				c-0.143-0.062-0.335-0.091-0.584-0.091v-0.409c0.271,0,0.506-0.015,0.706-0.047c0.203-0.032,0.385-0.081,0.548-0.15
				c0.161-0.063,0.308-0.138,0.447-0.228c0.133-0.081,0.279-0.174,0.43-0.274h0.409V120.515z"/>
			<path fill="#FFFFFF" d="M113.12,111.246c0,0.32-0.054,0.609-0.16,0.856c-0.111,0.241-0.258,0.445-0.435,0.609
				c-0.18,0.164-0.39,0.285-0.618,0.368c-0.234,0.08-0.477,0.121-0.726,0.121l-0.069-0.147c0.083-0.052,0.176-0.184,0.285-0.391
				c0.118-0.204,0.176-0.527,0.176-0.959c0-0.699-0.192-1.219-0.569-1.564c-0.383-0.349-0.981-0.523-1.795-0.523
				c-0.173,0-0.417,0.017-0.726,0.049c-0.312,0.031-0.621,0.121-0.931,0.26c-0.31,0.143-0.577,0.35-0.8,0.628
				c-0.233,0.273-0.347,0.666-0.347,1.164c0,0.456,0.1,0.842,0.303,1.158c0.199,0.314,0.464,0.591,0.791,0.831
				c0.324,0.239,0.694,0.453,1.115,0.635c0.416,0.185,0.845,0.37,1.286,0.556c0.442,0.185,0.869,0.38,1.287,0.595
				c0.42,0.21,0.788,0.459,1.115,0.756c0.328,0.294,0.591,0.644,0.79,1.05c0.204,0.407,0.304,0.895,0.304,1.458
				c0,0.609-0.116,1.14-0.342,1.588c-0.232,0.452-0.547,0.823-0.955,1.127c-0.406,0.299-0.895,0.52-1.465,0.666
				c-0.574,0.146-1.197,0.217-1.881,0.217c-0.122,0-0.298-0.004-0.524-0.014c-0.229-0.01-0.456-0.037-0.681-0.074
				c-0.232-0.037-0.428-0.094-0.598-0.168c-0.168-0.078-0.249-0.186-0.249-0.328c-0.319,0-0.601-0.057-0.85-0.17
				c-0.253-0.115-0.471-0.269-0.652-0.465c-0.186-0.195-0.329-0.425-0.422-0.694c-0.099-0.265-0.149-0.553-0.149-0.871
				c0-0.355,0.062-0.658,0.179-0.904c0.119-0.245,0.275-0.445,0.458-0.603c0.185-0.161,0.388-0.274,0.616-0.349
				c0.23-0.079,0.451-0.128,0.673-0.146l0.063,0.081c-0.063,0.086-0.116,0.19-0.155,0.311c-0.036,0.117-0.068,0.238-0.091,0.356
				c-0.021,0.118-0.035,0.234-0.039,0.349c-0.007,0.113-0.007,0.211-0.007,0.285c0,0.513,0.079,0.934,0.236,1.263
				c0.156,0.334,0.355,0.595,0.594,0.794c0.239,0.191,0.503,0.331,0.789,0.412c0.287,0.082,0.563,0.123,0.823,0.123
				c0.174,0,0.427-0.027,0.759-0.072c0.33-0.051,0.658-0.154,0.982-0.318c0.328-0.162,0.613-0.402,0.858-0.711
				c0.242-0.311,0.365-0.724,0.365-1.244c0-0.608-0.161-1.101-0.496-1.475c-0.332-0.375-0.745-0.696-1.247-0.962
				c-0.499-0.269-1.041-0.51-1.63-0.731c-0.587-0.228-1.129-0.496-1.628-0.806c-0.501-0.317-0.916-0.708-1.247-1.177
				c-0.334-0.465-0.495-1.076-0.495-1.824c0-0.727,0.152-1.322,0.46-1.774c0.313-0.456,0.694-0.809,1.151-1.05
				c0.455-0.247,0.939-0.414,1.456-0.5c0.521-0.086,0.987-0.132,1.412-0.132c1.075,0,1.61,0.217,1.61,0.655
				c0.231,0,0.466,0.025,0.709,0.079c0.245,0.056,0.468,0.149,0.663,0.289c0.195,0.135,0.353,0.319,0.48,0.552
				C113.059,110.572,113.12,110.875,113.12,111.246z"/>
			<path fill="#FFFFFF" d="M121.201,120.515c0,0.221,0.035,0.396,0.104,0.537c0.071,0.142,0.161,0.258,0.265,0.342
				c0.099,0.087,0.219,0.15,0.355,0.19c0.135,0.038,0.271,0.053,0.403,0.053v0.487c-0.255,0-0.468-0.018-0.646-0.061
				c-0.18-0.045-0.392-0.066-0.646-0.066c-0.25,0-0.467,0.006-0.648,0.018c-0.188,0.01-0.407,0.049-0.656,0.109v-0.861
				c-0.249,0.285-0.544,0.538-0.893,0.76c-0.35,0.223-0.772,0.33-1.27,0.33c-0.403,0-0.769-0.053-1.104-0.16
				c-0.329-0.109-0.614-0.268-0.846-0.473c-0.234-0.205-0.415-0.454-0.544-0.742c-0.137-0.284-0.195-0.609-0.195-0.97
				c0-0.345,0.066-0.659,0.203-0.933c0.135-0.282,0.326-0.514,0.576-0.702c0.253-0.193,0.541-0.339,0.879-0.443
				c0.337-0.1,0.715-0.153,1.128-0.153c0.463,0,0.865,0.046,1.195,0.139c0.33,0.092,0.621,0.197,0.87,0.318v-0.603
				c0-0.281-0.021-0.563-0.056-0.848c-0.04-0.281-0.11-0.538-0.219-0.767c-0.11-0.228-0.27-0.41-0.473-0.552
				c-0.207-0.143-0.472-0.212-0.799-0.212c-0.142,0-0.295,0.017-0.467,0.049c-0.168,0.032-0.32,0.089-0.459,0.171
				c-0.147,0.08-0.266,0.192-0.364,0.328c-0.092,0.135-0.146,0.306-0.146,0.509c0,0.11,0.018,0.236,0.055,0.375
				c-0.164,0.089-0.346,0.132-0.543,0.132c-0.303,0-0.528-0.085-0.665-0.25c-0.144-0.171-0.211-0.364-0.211-0.58
				c0-0.217,0.07-0.41,0.218-0.578c0.146-0.167,0.355-0.253,0.626-0.253c0-0.121,0.058-0.221,0.164-0.309
				c0.111-0.089,0.25-0.153,0.431-0.203c0.179-0.051,0.378-0.087,0.598-0.108c0.216-0.021,0.436-0.032,0.664-0.032
				c0.492,0,0.928,0.058,1.315,0.17c0.382,0.115,0.709,0.311,0.977,0.589c0.267,0.273,0.468,0.645,0.608,1.105
				c0.144,0.461,0.215,1.046,0.215,1.751V120.515z M118.021,121.608c0.383,0,0.708-0.114,0.994-0.336
				c0.282-0.223,0.524-0.49,0.717-0.809v-1.628c-0.249-0.121-0.524-0.217-0.829-0.298c-0.303-0.083-0.61-0.122-0.915-0.122
				c-0.434,0-0.807,0.128-1.112,0.388c-0.311,0.26-0.464,0.631-0.464,1.108c0,0.5,0.146,0.906,0.438,1.222
				C117.142,121.45,117.533,121.608,118.021,121.608z"/>
			<path fill="#FFFFFF" d="M129.475,115.223c-0.175,0-0.384,0.221-0.633,0.673c-0.25,0.449-0.613,1.084-1.091,1.9l-2.026,3.52h2.026
				c0.563,0,0.943-0.128,1.14-0.377c0.192-0.249,0.293-0.631,0.293-1.141c0.249,0.033,0.455,0.111,0.618,0.236
				c0.161,0.124,0.248,0.3,0.248,0.513c0,0.154-0.03,0.288-0.076,0.417c-0.051,0.123-0.117,0.188-0.202,0.188
				c0,0.219-0.044,0.391-0.133,0.518c-0.085,0.132-0.206,0.232-0.359,0.295c-0.149,0.064-0.332,0.107-0.546,0.133
				c-0.211,0.018-0.435,0.027-0.676,0.027h-2.816c-0.12,0-0.239-0.01-0.349-0.039c-0.117-0.027-0.203-0.121-0.256-0.284
				c-0.076,0.163-0.208,0.296-0.396,0.403c-0.188,0.098-0.384,0.148-0.581,0.148c-0.227,0-0.438-0.066-0.627-0.209
				c-0.191-0.141-0.285-0.318-0.285-0.535c0.161,0,0.321-0.014,0.48-0.043c0.158-0.023,0.328-0.115,0.503-0.264
				c0.183-0.146,0.394-0.377,0.632-0.688c0.238-0.318,0.521-0.756,0.844-1.322l2.217-3.812h-2.362c-0.269,0-0.51-0.004-0.717-0.015
				c-0.207-0.015-0.38-0.046-0.521-0.105c-0.143-0.058-0.252-0.162-0.327-0.297c-0.075-0.136-0.114-0.324-0.114-0.578
				c0.1,0.078,0.257,0.125,0.481,0.147c0.221,0.023,0.555,0.035,1.002,0.035h4.609V115.223z"/>
			<path fill="#FFFFFF" d="M135.002,122.353c-0.546,0-1.048-0.092-1.511-0.281c-0.461-0.189-0.861-0.459-1.215-0.809
				c-0.348-0.347-0.618-0.763-0.809-1.255c-0.201-0.488-0.297-1.036-0.297-1.646c0-0.616,0.096-1.167,0.297-1.643
				c0.19-0.477,0.461-0.883,0.809-1.215c0.354-0.332,0.754-0.581,1.215-0.749c0.463-0.167,0.965-0.253,1.511-0.253
				c0.528,0,1.03,0.086,1.497,0.253c0.466,0.168,0.875,0.417,1.221,0.749c0.348,0.332,0.621,0.738,0.813,1.215
				c0.199,0.477,0.296,1.027,0.296,1.643c0,0.62-0.097,1.172-0.296,1.664c-0.192,0.489-0.466,0.909-0.813,1.254
				c-0.346,0.35-0.755,0.612-1.221,0.799C136.032,122.265,135.53,122.353,135.002,122.353z M135.017,121.608
				c0.402,0,0.743-0.09,1.021-0.265c0.285-0.173,0.521-0.405,0.706-0.705c0.183-0.299,0.321-0.645,0.407-1.037
				c0.087-0.388,0.127-0.805,0.127-1.24c0-0.421-0.04-0.824-0.127-1.201c-0.086-0.385-0.225-0.713-0.407-0.988
				c-0.185-0.278-0.421-0.499-0.709-0.661c-0.292-0.16-0.635-0.243-1.033-0.243c-0.401,0-0.748,0.075-1.037,0.235
				c-0.288,0.161-0.527,0.377-0.709,0.652c-0.183,0.278-0.321,0.605-0.409,0.987c-0.082,0.381-0.129,0.787-0.129,1.219
				c0,0.435,0.047,0.852,0.129,1.24c0.088,0.392,0.227,0.738,0.417,1.037c0.188,0.3,0.429,0.532,0.719,0.705
				C134.268,121.519,134.614,121.608,135.017,121.608z M135.553,110.512c0.055-0.064,0.122-0.118,0.205-0.147
				c0.082-0.031,0.164-0.053,0.253-0.053c0.107,0,0.206,0.041,0.3,0.11c0.091,0.069,0.138,0.171,0.138,0.3
				c0,0.174-0.053,0.316-0.163,0.425c0.057,0.068,0.082,0.146,0.082,0.245c0,0.118-0.036,0.231-0.114,0.341
				c-0.051,0.075-0.133,0.143-0.229,0.21c-0.097,0.068-0.22,0.15-0.375,0.243c-0.148,0.1-0.333,0.221-0.543,0.36
				c-0.215,0.143-0.458,0.332-0.725,0.574c-0.088,0.073-0.191,0.111-0.31,0.111c-0.087,0-0.175-0.032-0.26-0.097
				c-0.101-0.074-0.146-0.186-0.146-0.328c0-0.085,0.026-0.17,0.097-0.26c0.25-0.292,0.444-0.563,0.583-0.813
				c0.143-0.249,0.265-0.47,0.367-0.662c0.104-0.189,0.208-0.334,0.304-0.439c0.096-0.104,0.228-0.156,0.388-0.156
				C135.473,110.477,135.521,110.491,135.553,110.512z"/>
			<path fill="#FFFFFF" d="M146.438,119.082c0-0.73-0.037-1.335-0.104-1.824c-0.074-0.492-0.182-0.879-0.316-1.173
				c-0.146-0.295-0.324-0.502-0.541-0.63c-0.219-0.125-0.468-0.185-0.75-0.185c-0.28,0-0.553,0.053-0.805,0.161
				c-0.256,0.111-0.481,0.281-0.677,0.512c-0.192,0.235-0.353,0.539-0.467,0.912c-0.109,0.375-0.171,0.824-0.171,1.349v2.312
				c0,0.221,0.035,0.396,0.107,0.537c0.066,0.142,0.154,0.258,0.26,0.342c0.104,0.087,0.225,0.15,0.36,0.19
				c0.136,0.038,0.267,0.053,0.398,0.053v0.487c-0.132,0-0.274-0.004-0.432-0.02c-0.156-0.02-0.324-0.035-0.499-0.059
				c-0.171-0.021-0.338-0.043-0.491-0.057c-0.165-0.014-0.304-0.025-0.435-0.025c-0.132,0-0.278,0.012-0.432,0.025
				c-0.16,0.014-0.323,0.035-0.498,0.057c-0.176,0.023-0.338,0.039-0.5,0.059c-0.152,0.016-0.299,0.02-0.43,0.02v-0.487
				c0.299,0,0.556-0.078,0.783-0.243c0.229-0.158,0.341-0.455,0.341-0.879v-2.719c0-0.403-0.007-0.738-0.024-1.004
				c-0.014-0.265-0.06-0.474-0.134-0.618c-0.084-0.145-0.189-0.252-0.329-0.31c-0.139-0.063-0.338-0.089-0.587-0.089v-0.41
				c0.273,0,0.506-0.013,0.708-0.05c0.201-0.032,0.381-0.077,0.55-0.146c0.159-0.064,0.309-0.139,0.445-0.229
				c0.136-0.081,0.281-0.178,0.431-0.274h0.406v1.141c0.211-0.384,0.49-0.695,0.858-0.936c0.363-0.249,0.795-0.369,1.294-0.369
				c1.075,0,1.867,0.328,2.38,0.978c0.509,0.655,0.766,1.736,0.766,3.243v1.709c0,0.217,0.037,0.399,0.108,0.54
				c0.066,0.142,0.151,0.252,0.256,0.344c0.105,0.087,0.226,0.146,0.359,0.186c0.135,0.041,0.271,0.058,0.4,0.058v0.565
				c-0.144,0-0.269-0.004-0.376-0.02c-0.109-0.02-0.22-0.033-0.33-0.051c-0.118-0.014-0.247-0.031-0.393-0.051
				c-0.146-0.014-0.324-0.023-0.53-0.023c-0.143,0-0.303,0.01-0.481,0.023c-0.178,0.02-0.391,0.061-0.646,0.121l-0.146-0.272
				c0.079-0.076,0.136-0.215,0.183-0.415c0.043-0.201,0.07-0.43,0.089-0.693c0.014-0.261,0.025-0.539,0.033-0.832
				C146.434,119.616,146.438,119.342,146.438,119.082z"/>
			<path fill="#FFFFFF" d="M161.36,120.155c0,1,0.101,1.76,0.292,2.272c0.195,0.518,0.6,0.773,1.207,0.773
				c0.077,0,0.165-0.004,0.269-0.014c0.103-0.01,0.182-0.029,0.238-0.049l0.047,0.082c-0.143,0.227-0.332,0.377-0.582,0.455
				c-0.24,0.078-0.473,0.113-0.689,0.113c-0.422,0-0.752-0.088-0.987-0.277c-0.231-0.184-0.35-0.412-0.35-0.684
				c-0.31,0-0.539-0.115-0.668-0.338c-0.126-0.232-0.205-0.574-0.227-1.031c-0.371,0.359-0.751,0.6-1.147,0.721
				c-0.396,0.117-0.776,0.174-1.15,0.174c-0.585,0-1.102-0.096-1.548-0.289c-0.445-0.194-0.819-0.469-1.125-0.825
				c-0.304-0.353-0.527-0.774-0.682-1.262c-0.152-0.488-0.231-1.026-0.231-1.614c0-0.685,0.108-1.265,0.32-1.75
				c0.211-0.484,0.489-0.879,0.831-1.201c0.343-0.309,0.734-0.54,1.173-0.688c0.438-0.148,0.887-0.221,1.343-0.221
				c0.458,0,0.858,0.072,1.207,0.21c0.349,0.146,0.678,0.392,0.995,0.752v-3.308c0-0.401-0.011-0.736-0.024-1.004
				c-0.019-0.263-0.065-0.474-0.14-0.621c-0.075-0.142-0.187-0.248-0.327-0.306c-0.14-0.06-0.339-0.088-0.585-0.088v-0.492
				c0.27,0,0.502-0.015,0.692-0.047c0.188-0.032,0.363-0.081,0.512-0.15c0.154-0.063,0.296-0.138,0.425-0.228
				c0.127-0.081,0.271-0.174,0.425-0.274h0.487V120.155z M157.693,121.608c0.371,0,0.699-0.086,0.981-0.252
				c0.281-0.172,0.512-0.404,0.688-0.695c0.182-0.293,0.319-0.631,0.408-1.017c0.092-0.388,0.139-0.8,0.139-1.247
				c0-0.423-0.047-0.822-0.132-1.197c-0.086-0.375-0.223-0.709-0.407-0.995c-0.185-0.29-0.412-0.512-0.69-0.676
				c-0.275-0.164-0.614-0.246-1.005-0.246c-0.388,0-0.72,0.079-0.994,0.235c-0.271,0.16-0.487,0.377-0.649,0.655
				c-0.159,0.274-0.279,0.603-0.353,0.977c-0.066,0.375-0.104,0.78-0.104,1.212c0,0.426,0.033,0.833,0.098,1.226
				c0.067,0.388,0.182,0.734,0.345,1.033c0.16,0.3,0.378,0.534,0.648,0.717C156.938,121.515,157.281,121.608,157.693,121.608z"/>
			<path fill="#FFFFFF" d="M167.079,121.626c0.16,0,0.325-0.022,0.489-0.061c0.161-0.035,0.315-0.107,0.462-0.209
				c0.151-0.107,0.285-0.255,0.408-0.443c0.127-0.192,0.237-0.44,0.335-0.758c0.251,0,0.459,0.061,0.619,0.179
				c0.164,0.121,0.242,0.305,0.242,0.555c0,0.228-0.071,0.435-0.215,0.62c-0.149,0.186-0.344,0.343-0.588,0.467
				c-0.245,0.121-0.527,0.217-0.852,0.281c-0.315,0.064-0.65,0.096-0.997,0.096c-0.6,0-1.126-0.092-1.582-0.281
				c-0.455-0.189-0.837-0.459-1.141-0.799c-0.303-0.341-0.538-0.758-0.691-1.247c-0.16-0.492-0.239-1.029-0.239-1.61
				c0-1.22,0.318-2.174,0.963-2.873c0.638-0.695,1.555-1.041,2.735-1.041c0.144,0,0.286,0.005,0.425,0.019
				c0.144,0.009,0.271,0.032,0.393,0.07c0.118,0.037,0.213,0.092,0.293,0.165c0.074,0.072,0.113,0.161,0.113,0.268
				c0.163,0,0.331,0.035,0.498,0.099c0.168,0.063,0.326,0.16,0.472,0.288c0.146,0.132,0.263,0.3,0.359,0.502
				c0.09,0.197,0.136,0.442,0.136,0.724c0,0.403-0.097,0.731-0.291,0.995c-0.193,0.26-0.444,0.47-0.742,0.627
				c-0.3,0.157-0.625,0.267-0.977,0.325c-0.353,0.064-0.688,0.087-1.001,0.087c-0.361,0-0.695-0.022-1.004-0.078
				c-0.308-0.056-0.571-0.121-0.789-0.196v0.065c0,0.456,0.035,0.879,0.114,1.272c0.074,0.388,0.199,0.723,0.367,1.001
				c0.168,0.277,0.388,0.496,0.665,0.648C166.339,121.544,166.677,121.626,167.079,121.626z M166.898,115.269
				c-0.585,0-1.038,0.211-1.353,0.634c-0.312,0.424-0.516,1.013-0.6,1.761c0.185,0.117,0.438,0.199,0.756,0.238
				c0.319,0.037,0.628,0.058,0.92,0.058c0.586,0,0.996-0.097,1.231-0.282c0.231-0.182,0.352-0.502,0.352-0.958
				c0-0.542-0.128-0.919-0.378-1.133C167.578,115.373,167.268,115.269,166.898,115.269z"/>
			<path fill="#FFFFFF" d="M179.609,115.743c0.126,0.086,0.318,0.188,0.569,0.306c0.249,0.122,0.58,0.183,0.993,0.183
				c0.51,0,0.909-0.108,1.205-0.318c0.296-0.213,0.513-0.474,0.658-0.776c0.147-0.303,0.239-0.623,0.278-0.958
				c0.036-0.339,0.057-0.628,0.057-0.867c0-0.388-0.038-0.809-0.112-1.253c-0.075-0.447-0.249-0.853-0.521-1.219
				c-0.271-0.375-0.674-0.681-1.196-0.923c-0.527-0.246-1.24-0.367-2.128-0.367c-0.759,0-1.403,0.096-1.933,0.292
				c-0.526,0.195-0.954,0.477-1.278,0.848c-0.322,0.37-0.559,0.827-0.708,1.375c-0.147,0.549-0.222,1.171-0.222,1.867
				c-0.139,0-0.292-0.028-0.46-0.081c-0.17-0.054-0.324-0.141-0.468-0.248c-0.142-0.109-0.259-0.243-0.354-0.405
				c-0.1-0.161-0.146-0.354-0.146-0.571c0-0.249,0.066-0.485,0.21-0.708c0.139-0.221,0.346-0.335,0.615-0.335
				c-0.086-0.065-0.143-0.171-0.167-0.326c-0.029-0.148-0.042-0.28-0.042-0.393c0-0.365,0.146-0.687,0.441-0.95
				c0.288-0.268,0.666-0.485,1.13-0.653c0.463-0.167,0.979-0.292,1.547-0.366c0.572-0.076,1.139-0.114,1.704-0.114
				c1.075,0,1.977,0.125,2.703,0.374c0.727,0.253,1.315,0.578,1.76,0.988c0.445,0.406,0.766,0.872,0.962,1.399
				c0.192,0.528,0.292,1.07,0.292,1.622c0,0.457-0.063,0.916-0.185,1.378c-0.128,0.46-0.323,0.874-0.595,1.237
				c-0.275,0.364-0.623,0.66-1.053,0.887c-0.431,0.228-0.943,0.342-1.537,0.342c-0.382,0-0.696-0.043-0.953-0.131
				c-0.258-0.086-0.459-0.196-0.612-0.325c-0.153-0.132-0.263-0.264-0.336-0.399c-0.07-0.136-0.108-0.253-0.119-0.349V115.743z
				 M179.317,120.318c0,0.26,0.048,0.471,0.152,0.62c0.104,0.148,0.228,0.264,0.374,0.334c0.146,0.068,0.307,0.118,0.474,0.137
				c0.168,0.024,0.317,0.035,0.449,0.035v0.68c-0.132,0-0.295-0.004-0.492-0.02c-0.194-0.02-0.395-0.035-0.599-0.059
				c-0.21-0.021-0.413-0.043-0.604-0.057c-0.196-0.014-0.36-0.025-0.493-0.025c-0.129,0-0.288,0.012-0.488,0.025
				c-0.192,0.014-0.391,0.035-0.598,0.057c-0.206,0.023-0.409,0.039-0.604,0.059c-0.2,0.016-0.362,0.02-0.49,0.02v-0.68
				c0.14,0,0.3-0.011,0.475-0.035c0.171-0.019,0.327-0.068,0.473-0.137c0.139-0.07,0.258-0.186,0.358-0.334
				c0.096-0.149,0.146-0.36,0.146-0.62v-6.449c0-0.405-0.007-0.738-0.026-1.006c-0.016-0.264-0.06-0.473-0.14-0.617
				c-0.073-0.146-0.185-0.249-0.322-0.313c-0.142-0.057-0.336-0.086-0.584-0.086v-0.57c0.267,0,0.506-0.018,0.703-0.046
				c0.203-0.035,0.383-0.084,0.549-0.149c0.161-0.068,0.312-0.143,0.446-0.228c0.137-0.085,0.282-0.178,0.436-0.278h0.407V120.318z"
				/>
			<path fill="#FFFFFF" d="M192.071,117.877c0-0.402-0.009-0.738-0.025-1.005c-0.02-0.263-0.063-0.475-0.14-0.621
				c-0.076-0.146-0.183-0.25-0.321-0.31c-0.146-0.056-0.338-0.085-0.588-0.085v-0.492c0.271,0,0.503-0.013,0.69-0.05
				c0.192-0.032,0.361-0.077,0.514-0.146c0.149-0.064,0.294-0.139,0.42-0.229c0.137-0.081,0.273-0.178,0.429-0.274h0.488v5.783
				c0,0.218,0.035,0.396,0.106,0.54c0.068,0.138,0.154,0.256,0.261,0.341c0.104,0.089,0.224,0.147,0.358,0.185
				c0.137,0.04,0.269,0.058,0.399,0.058v0.571c-0.249-0.033-0.463-0.061-0.644-0.09c-0.182-0.025-0.408-0.039-0.679-0.039
				c-0.369,0-0.737,0.035-1.106,0.109l-0.163-0.16v-0.912c-0.119,0.187-0.245,0.357-0.365,0.514
				c-0.125,0.157-0.274,0.293-0.449,0.41c-0.172,0.109-0.374,0.203-0.605,0.275c-0.228,0.07-0.499,0.102-0.813,0.102
				c-1.087,0-1.862-0.33-2.327-0.996c-0.47-0.671-0.717-1.641-0.733-2.913c-0.011-0.584-0.025-1.051-0.043-1.39
				c-0.019-0.34-0.058-0.606-0.121-0.783c-0.067-0.178-0.168-0.293-0.311-0.342c-0.143-0.046-0.343-0.071-0.602-0.071v-0.492
				c0.271,0,0.501-0.013,0.69-0.05c0.188-0.032,0.364-0.077,0.514-0.146c0.153-0.064,0.295-0.139,0.425-0.229
				c0.128-0.081,0.271-0.178,0.424-0.274h0.489v3.439c0,0.664,0.045,1.216,0.13,1.66c0.086,0.447,0.208,0.806,0.365,1.076
				c0.158,0.271,0.344,0.46,0.562,0.577c0.217,0.115,0.456,0.172,0.72,0.172c0.304,0,0.581-0.078,0.834-0.234
				c0.257-0.163,0.474-0.379,0.654-0.661c0.179-0.284,0.317-0.619,0.415-1.004c0.1-0.385,0.147-0.801,0.147-1.248V117.877z"/>
			<path fill="#FFFFFF" d="M199.48,121.626c0.165,0,0.328-0.022,0.493-0.061c0.163-0.035,0.316-0.107,0.463-0.209
				c0.149-0.107,0.284-0.255,0.41-0.443c0.124-0.192,0.234-0.44,0.332-0.758c0.249,0,0.455,0.061,0.619,0.179
				c0.163,0.121,0.246,0.305,0.246,0.555c0,0.228-0.075,0.435-0.223,0.62c-0.145,0.186-0.345,0.343-0.586,0.467
				c-0.243,0.121-0.524,0.217-0.848,0.281s-0.653,0.096-0.999,0.096c-0.602,0-1.128-0.092-1.583-0.281s-0.837-0.459-1.14-0.799
				c-0.307-0.341-0.538-0.758-0.689-1.247c-0.16-0.492-0.239-1.029-0.239-1.61c0-1.22,0.32-2.174,0.961-2.873
				c0.641-0.695,1.554-1.041,2.736-1.041c0.143,0,0.282,0.005,0.424,0.019c0.141,0.009,0.272,0.032,0.394,0.07
				c0.117,0.037,0.217,0.092,0.291,0.165c0.075,0.072,0.115,0.161,0.115,0.268c0.159,0,0.327,0.035,0.498,0.099
				c0.164,0.063,0.32,0.16,0.471,0.288c0.146,0.132,0.268,0.3,0.361,0.502c0.087,0.197,0.137,0.442,0.137,0.724
				c0,0.403-0.101,0.731-0.296,0.995c-0.195,0.26-0.441,0.47-0.74,0.627c-0.296,0.157-0.624,0.267-0.977,0.325
				c-0.356,0.064-0.688,0.087-1.002,0.087c-0.359,0-0.69-0.022-1-0.078c-0.311-0.056-0.577-0.121-0.792-0.196v0.065
				c0,0.456,0.036,0.879,0.114,1.272c0.075,0.388,0.199,0.723,0.367,1.001c0.168,0.277,0.392,0.496,0.667,0.648
				C198.742,121.544,199.082,121.626,199.48,121.626z M199.308,115.269c-0.59,0-1.041,0.211-1.354,0.634
				c-0.317,0.424-0.518,1.013-0.603,1.761c0.183,0.117,0.436,0.199,0.76,0.238c0.32,0.037,0.624,0.058,0.918,0.058
				c0.588,0,0.994-0.097,1.229-0.282c0.232-0.182,0.351-0.502,0.351-0.958c0-0.542-0.126-0.919-0.375-1.133
				C199.984,115.373,199.674,115.269,199.308,115.269z"/>
			<path fill="#FFFFFF" d="M205.757,122.124c-0.239-0.053-0.414-0.084-0.524-0.102c-0.107-0.02-0.234-0.025-0.388-0.025
				c-0.218,0-0.403,0.006-0.553,0.025c-0.152,0.018-0.292,0.031-0.417,0.049c-0.125,0.014-0.239,0.029-0.341,0.039
				c-0.1,0.01-0.222,0.014-0.354,0.014v-0.487c0.132,0,0.267-0.015,0.402-0.053c0.132-0.04,0.253-0.104,0.355-0.19
				c0.104-0.084,0.188-0.2,0.261-0.342c0.07-0.141,0.105-0.316,0.105-0.537v-6.436c0-0.891-0.006-1.596-0.02-2.121
				c-0.018-0.521-0.067-0.915-0.139-1.186c-0.08-0.271-0.189-0.446-0.328-0.523c-0.143-0.073-0.334-0.111-0.588-0.111v-0.492
				c0.271,0,0.502-0.015,0.694-0.047c0.189-0.032,0.36-0.081,0.514-0.15c0.152-0.063,0.292-0.138,0.423-0.228
				c0.129-0.081,0.271-0.174,0.421-0.274h0.491v6.86c0.282-0.413,0.614-0.734,1.002-0.962c0.386-0.231,0.869-0.343,1.456-0.343
				c0.501,0,0.96,0.086,1.388,0.253c0.421,0.168,0.788,0.411,1.097,0.734c0.311,0.32,0.55,0.716,0.728,1.187
				c0.175,0.474,0.262,1.012,0.262,1.622c0,0.609-0.09,1.165-0.271,1.665c-0.18,0.499-0.432,0.923-0.757,1.276
				c-0.326,0.356-0.711,0.631-1.154,0.825c-0.447,0.193-0.937,0.289-1.467,0.289c-1.023,0-1.79-0.381-2.299-1.154V122.124z
				 M205.757,118.43c0,0.424,0.046,0.823,0.14,1.205c0.092,0.381,0.23,0.717,0.415,1.008c0.182,0.296,0.423,0.523,0.71,0.695
				c0.284,0.167,0.623,0.253,1.016,0.253c0.424,0,0.77-0.101,1.033-0.293c0.267-0.199,0.48-0.441,0.635-0.741
				c0.159-0.299,0.268-0.633,0.327-1.004c0.061-0.367,0.09-0.731,0.09-1.09c0-1.03-0.189-1.825-0.567-2.37
				c-0.381-0.549-0.88-0.824-1.499-0.824c-0.282,0-0.563,0.061-0.835,0.185c-0.271,0.127-0.513,0.321-0.729,0.578
				c-0.219,0.263-0.397,0.592-0.531,0.986C205.824,117.417,205.757,117.888,205.757,118.43z"/>
			<path fill="#FFFFFF" d="M215.386,120.515c0,0.221,0.031,0.396,0.103,0.537c0.075,0.142,0.16,0.258,0.263,0.342
				c0.104,0.087,0.222,0.15,0.361,0.19c0.135,0.038,0.269,0.053,0.397,0.053v0.487c-0.129,0-0.273-0.004-0.431-0.02
				c-0.159-0.02-0.324-0.035-0.499-0.059c-0.174-0.021-0.338-0.043-0.498-0.057c-0.157-0.014-0.3-0.025-0.432-0.025
				c-0.127,0-0.27,0.012-0.432,0.025c-0.156,0.014-0.323,0.035-0.496,0.057c-0.174,0.023-0.341,0.039-0.496,0.059
				c-0.157,0.016-0.304,0.02-0.433,0.02v-0.487c0.293,0,0.557-0.078,0.784-0.243c0.225-0.158,0.342-0.455,0.342-0.879v-8.438
				c0-0.403-0.01-0.738-0.024-1.004c-0.014-0.263-0.065-0.475-0.14-0.617c-0.078-0.15-0.186-0.249-0.323-0.309
				c-0.143-0.062-0.339-0.091-0.588-0.091v-0.409c0.271,0,0.509-0.015,0.707-0.047c0.2-0.032,0.382-0.081,0.547-0.15
				c0.159-0.063,0.309-0.138,0.444-0.228c0.137-0.081,0.282-0.174,0.436-0.274h0.407V120.515z"/>
			<path fill="#FFFFFF" d="M223.845,120.515c0,0.221,0.031,0.396,0.103,0.537c0.071,0.142,0.156,0.258,0.261,0.342
				c0.102,0.087,0.221,0.15,0.36,0.19c0.132,0.038,0.267,0.053,0.398,0.053v0.487c-0.25,0-0.464-0.018-0.645-0.061
				c-0.178-0.045-0.392-0.066-0.643-0.066c-0.253,0-0.47,0.006-0.651,0.018c-0.185,0.01-0.402,0.049-0.651,0.109v-0.861
				c-0.251,0.285-0.549,0.538-0.899,0.76c-0.346,0.223-0.77,0.33-1.269,0.33c-0.402,0-0.77-0.053-1.101-0.16
				c-0.331-0.109-0.615-0.268-0.848-0.473s-0.414-0.454-0.547-0.742c-0.131-0.284-0.191-0.609-0.191-0.97
				c0-0.345,0.065-0.659,0.202-0.933c0.138-0.282,0.326-0.514,0.578-0.702c0.25-0.193,0.543-0.339,0.877-0.443
				c0.338-0.1,0.714-0.153,1.126-0.153c0.466,0,0.866,0.046,1.198,0.139c0.332,0.092,0.622,0.197,0.873,0.318v-0.603
				c0-0.281-0.018-0.563-0.058-0.848c-0.039-0.281-0.115-0.538-0.222-0.767c-0.106-0.228-0.266-0.41-0.473-0.552
				c-0.208-0.143-0.471-0.212-0.798-0.212c-0.14,0-0.297,0.017-0.464,0.049c-0.171,0.032-0.321,0.089-0.466,0.171
				c-0.14,0.08-0.261,0.192-0.358,0.328c-0.096,0.135-0.145,0.306-0.145,0.509c0,0.11,0.014,0.236,0.049,0.375
				c-0.164,0.089-0.346,0.132-0.537,0.132c-0.307,0-0.528-0.085-0.671-0.25c-0.139-0.171-0.21-0.364-0.21-0.58
				c0-0.217,0.076-0.41,0.222-0.578c0.146-0.167,0.353-0.253,0.628-0.253c0-0.121,0.052-0.221,0.158-0.309
				c0.111-0.089,0.253-0.153,0.432-0.203c0.183-0.051,0.378-0.087,0.596-0.108c0.216-0.021,0.441-0.032,0.67-0.032
				c0.488,0,0.926,0.058,1.312,0.17c0.388,0.115,0.712,0.311,0.979,0.589c0.265,0.273,0.467,0.645,0.606,1.105
				c0.146,0.461,0.218,1.046,0.218,1.751V120.515z M220.661,121.608c0.383,0,0.718-0.114,0.995-0.336
				c0.289-0.223,0.524-0.49,0.721-0.809v-1.628c-0.251-0.121-0.528-0.217-0.834-0.298c-0.305-0.083-0.606-0.122-0.909-0.122
				c-0.436,0-0.806,0.128-1.119,0.388c-0.307,0.26-0.464,0.631-0.464,1.108c0,0.5,0.147,0.906,0.439,1.222
				C219.786,121.45,220.179,121.608,220.661,121.608z"/>
		</g>
		<g>
			<path fill="#FFFFFF" d="M85.174,38.91c-0.063-0.218-0.256-0.478-0.85-0.478h-3.232c0.3-1.258,0.685-2.702,1.15-4.301
				c0.503-1.708,1.081-3.663,1.735-5.865c0.307-0.325,0.532-0.642,0.663-0.955c0.132-0.325,0.201-0.649,0.201-0.958
				c0-0.146-0.012-0.278-0.029-0.403c-0.069-0.367-0.226-0.649-0.46-0.823c-1.427-1.497-2.438-1.458-3.093-0.488
				c-0.283,0.413-0.48,0.941-0.585,1.539c-0.694,2.613-1.347,4.943-1.932,6.924c-0.345,1.155-0.659,2.26-0.959,3.314
				c-0.175,0.63-0.345,1.247-0.503,1.842c-0.409-0.035-0.73-0.085-0.965-0.161c-0.296-0.081-0.514-0.149-0.67-0.205
				c-0.146-0.044-0.264-0.093-0.355-0.136c-0.139-0.07-0.305-0.107-0.484-0.107c-0.532,0-0.897,0.282-1.034,0.795
				c-0.11,0.432-0.163,0.766-0.163,1.03c0,0.096,0.011,0.202,0.038,0.313c0.093,0.333,0.35,0.702,0.98,0.969
				c0.52,0.225,1.158,0.403,1.896,0.545c-0.659,2.388-1.172,4.604-1.525,6.596c-0.367,2.056-0.552,3.639-0.552,4.7
				c0,0.51,0.063,1.047,0.185,1.596c0.132,0.567,0.354,1.097,0.667,1.576c0.313,0.476,0.716,0.879,1.197,1.201
				c0.495,0.32,1.104,0.485,1.816,0.485c0.549,0,1.158-0.112,1.809-0.329c0.626-0.21,1.24-0.478,1.818-0.806
				c0.571-0.32,1.066-0.698,1.474-1.117c0.427-0.447,0.645-0.903,0.645-1.355c0-0.421-0.267-0.574-0.518-0.574
				c-0.303,0-0.577,0.043-0.813,0.121l-0.629,0.211c-0.207,0.067-0.427,0.134-0.669,0.206c-0.223,0.06-0.515,0.092-0.867,0.092
				c-0.644,0-1.126-0.242-1.461-0.748c-0.353-0.528-0.531-1.122-0.531-1.764c0-0.517,0.036-1.094,0.097-1.71
				c0.082-0.823,0.211-1.721,0.398-2.712c0.313-1.675,0.742-3.496,1.272-5.41c0.146-0.003,0.35-0.014,0.603-0.027
				c0.339-0.015,0.713-0.05,1.145-0.104c0.404-0.057,0.794-0.114,1.163-0.185c0.39-0.075,0.671-0.146,0.84-0.218
				c0.119-0.039,0.23-0.083,0.33-0.128c0.688-0.339,0.845-0.891,0.845-1.322l0,0l0,0C85.261,39.344,85.229,39.12,85.174,38.91z"/>
			<path fill="#FFFFFF" d="M25.678,36.592c-1.529-1.26-3.219-2.49-5.027-3.641c-1.782-1.137-3.457-2.366-4.975-3.66
				c-1.512-1.284-2.79-2.737-3.803-4.316c-1.009-1.563-1.519-3.431-1.519-5.555c0-1.682,0.313-3.281,0.931-4.761
				c0.616-1.479,1.465-2.787,2.513-3.895c1.042-1.101,2.282-1.967,3.685-2.587c1.396-0.613,2.918-0.923,4.521-0.923
				c1.759,0,3.374,0.274,4.799,0.816c1.422,0.542,2.646,1.323,3.65,2.327c1,1.005,1.795,2.241,2.358,3.68
				c0.561,1.437,0.845,3.08,0.845,4.883c0,0.99-0.224,1.97-0.671,2.907c-0.441,0.944-1.04,1.81-1.787,2.577
				c-0.742,0.759-1.597,1.367-2.542,1.817c-0.939,0.438-1.899,0.666-2.854,0.666c-0.071,0-0.242-0.01-0.634-0.061
				c-0.31-0.032-0.648-0.1-0.997-0.193c-0.351-0.088-0.725-0.203-1.102-0.339c-0.367-0.127-0.675-0.281-0.912-0.456l-0.068-0.046
				h-0.085c-1.019,0-1.234,0.424-1.234,0.774c0,0.581,0.208,1.036,0.617,1.357c0.37,0.285,0.821,0.506,1.327,0.648
				c0.491,0.135,1.001,0.229,1.515,0.268c0.504,0.039,0.917,0.057,1.229,0.057c1.682,0,3.267-0.335,4.711-1.001
				c1.443-0.659,2.713-1.561,3.775-2.673c1.065-1.115,1.915-2.437,2.524-3.938c0.613-1.496,0.927-3.089,0.927-4.725
				c0-2.213-0.39-4.109-1.148-5.637c-0.76-1.518-1.778-2.79-3.029-3.77c-1.25-0.977-2.694-1.689-4.286-2.118
				c-1.582-0.427-3.228-0.641-4.886-0.641c-2.284,0-4.545,0.442-6.731,1.315c-2.176,0.866-4.143,2.071-5.843,3.582
				c-1.696,1.507-3.091,3.314-4.138,5.371c-1.047,2.056-1.578,4.286-1.578,6.617c0,2.377,0.526,4.49,1.561,6.283
				c1.026,1.781,2.327,3.417,3.873,4.864c1.551,1.45,3.244,2.804,5.036,4.019c1.799,1.229,3.477,2.462,4.988,3.671
				c1.504,1.205,2.776,2.487,3.78,3.809c0.974,1.291,1.468,2.787,1.468,4.447c0,1.87-0.349,3.605-1.036,5.156
				c-0.695,1.553-1.654,2.912-2.849,4.033c-1.196,1.12-2.604,2.003-4.171,2.62c-1.58,0.616-3.268,0.934-5.028,0.934
				c-1.675,0-3.243-0.349-4.658-1.041c-1.409-0.688-2.555-1.765-3.409-3.218c-0.036-0.053-0.122-0.213-0.285-0.716
				c-0.133-0.399-0.292-0.809-0.471-1.23c-0.189-0.438-0.359-0.801-0.524-1.111c-0.164-0.31-0.373-0.625-0.662-0.625
				c-0.713,0-1.432,0.3-2.146,0.895c-0.734,0.602-1.104,1.279-1.104,2.01c0,1.361,0.421,2.538,1.244,3.503
				c0.798,0.938,1.803,1.725,2.979,2.334c1.168,0.602,2.427,1.055,3.748,1.348c1.325,0.287,2.505,0.437,3.502,0.437
				c2.28,0,4.612-0.401,6.932-1.193c2.315-0.791,4.43-1.939,6.293-3.411c1.857-1.467,3.396-3.295,4.575-5.423
				c1.19-2.142,1.792-4.579,1.792-7.259c0-2.114-0.541-3.991-1.6-5.581C28.539,39.313,27.229,37.872,25.678,36.592z"/>
			<path fill="#FFFFFF" d="M52.118,53.49c-0.254,0-0.468,0.041-0.634,0.129c-0.153,0.074-0.296,0.16-0.429,0.252
				c-0.111,0.079-0.238,0.146-0.393,0.211c-0.138,0.053-0.334,0.081-0.58,0.081c-0.317,0-0.565-0.081-0.74-0.242
				c-0.194-0.182-0.34-0.406-0.429-0.677c-0.1-0.295-0.167-0.617-0.196-0.965c-0.035-0.339-0.054-0.656-0.054-0.941
				c0-0.57,0.122-1.354,0.36-2.317c0.235-0.954,0.517-2.002,0.858-3.203c0.331-1.144,0.7-2.319,1.094-3.492
				c0.4-1.187,0.759-2.252,1.078-3.207c0.039-0.146,0.063-0.265,0.085-0.36c0.018-0.1,0.031-0.213,0.031-0.332v-0.003l0,0
				c0-0.317-0.152-0.478-0.335-0.538c-0.06-0.022-0.124-0.032-0.188-0.032c-1.006,0-1.735,0.064-2.233,0.192
				c-0.518,0.135-0.877,0.299-1.099,0.502c-0.234,0.21-0.378,0.435-0.42,0.663c-0.016,0.061-0.033,0.115-0.053,0.165
				c-0.026,0.046-0.054,0.093-0.09,0.125l-0.042,0.057l0,0v0.003c-0.012,0.018-0.016,0.043-0.03,0.067
				c-0.006,0.026-0.021,0.051-0.028,0.075c-0.01,0.054-0.022,0.111-0.025,0.172c-1.008,1.941-1.99,3.769-2.926,5.43
				c-0.679,1.222-1.346,2.334-1.983,3.332c-0.025,0.04-0.046,0.078-0.071,0.114c-0.223,0.342-0.436,0.666-0.649,0.979
				c-0.837,1.233-1.606,2.224-2.273,2.951c-0.78,0.837-1.25,1.012-1.511,1.012c-0.21,0-0.362-0.05-0.47-0.16
				c-0.131-0.125-0.234-0.289-0.307-0.485c-0.082-0.199-0.136-0.417-0.17-0.641c-0.033-0.225-0.047-0.424-0.047-0.589
				c0-1.289,0.245-2.597,0.737-3.898c0.498-1.314,1.131-2.561,1.886-3.702c0.548-0.841,1.146-1.621,1.781-2.338
				c0.01-0.014,0.021-0.032,0.034-0.042c0.215-0.247,0.436-0.48,0.66-0.709c0.199-0.199,0.395-0.392,0.593-0.577
				c0.58-0.549,1.128-1.016,1.646-1.39c0.156,0.192,0.42,0.353,0.873,0.353c0.298,0,0.627-0.058,0.97-0.167
				c0.329-0.11,0.647-0.264,0.943-0.445c0.296-0.186,0.543-0.385,0.731-0.591c0.22-0.243,0.329-0.502,0.329-0.777
				c0-0.364-0.112-0.584-0.333-0.66c-0.133-0.043-0.311-0.064-0.55-0.064c-0.371,0-0.733,0.018-1.095,0.046
				c-1.716,0.139-3.345,0.591-4.852,1.365c-1.818,0.938-3.406,2.177-4.731,3.692c-0.457,0.523-0.872,1.087-1.259,1.66
				c-0.74,1.087-1.376,2.26-1.867,3.514c-0.76,1.913-1.145,3.891-1.145,5.873c0,0.513,0.065,1.033,0.188,1.549
				c0.126,0.525,0.321,1.005,0.578,1.433c0.269,0.432,0.604,0.791,1.019,1.073c0.426,0.289,0.93,0.439,1.505,0.439
				c1.062,0,2.065-0.326,2.993-0.959c0.911-0.628,1.803-1.49,2.644-2.566c0.357-0.453,0.716-0.951,1.077-1.491
				c0.063-0.091,0.123-0.178,0.184-0.27c0.012-0.014,0.016-0.024,0.026-0.036c0.413-0.634,0.833-1.318,1.246-2.053
				c0.495-0.876,1.005-1.81,1.521-2.786c-0.146,0.584-0.291,1.172-0.43,1.764c-0.314,1.369-0.479,2.733-0.479,4.059
				c0,1.272,0.316,2.319,0.948,3.114c0.641,0.809,1.71,1.224,3.182,1.224c0.356,0,0.763-0.115,1.236-0.347
				c0.441-0.213,0.876-0.473,1.29-0.762c0.421-0.299,0.773-0.617,1.045-0.952c0.302-0.371,0.451-0.685,0.451-0.958
				c0-0.213-0.035-0.399-0.097-0.567C52.648,53.727,52.503,53.49,52.118,53.49z"/>
			<path fill="#FFFFFF" d="M72.265,53.921c-0.295-0.117-0.522-0.175-0.697-0.175c-0.3,0-0.571,0.09-0.807,0.261
				c-0.096,0.072-0.327,0.156-0.868,0.156c-0.41,0-0.706-0.113-0.896-0.349c-0.229-0.271-0.405-0.602-0.53-0.986
				c-0.133-0.399-0.207-0.82-0.225-1.266c-0.014-0.467-0.028-0.873-0.028-1.214c0-0.464,0.025-0.919,0.056-1.376
				c0.076-1.015,0.227-2.006,0.461-2.955c0.16-0.63,0.335-1.268,0.524-1.909c0.017-0.061,0.03-0.122,0.053-0.182
				c0.203-0.706,0.428-1.408,0.666-2.11c0.019-0.042,0.039-0.089,0.061-0.143c0.054-0.142,0.122-0.324,0.204-0.549
				c0.009-0.028,0.021-0.057,0.031-0.092l0.021-0.061c0.143-0.385,0.281-0.788,0.425-1.208c0.139-0.425,0.264-0.82,0.37-1.188
				c0.107-0.388,0.163-0.698,0.163-0.937c0-0.31-0.163-0.83-1.251-0.83c-1.067,0-1.781,0.11-2.173,0.349
				c-0.37,0.221-0.649,0.445-0.834,0.667c-0.097,0.096-0.153,0.21-0.171,0.338c-0.171,0.207-0.36,0.439-0.559,0.685
				c-0.257,0.313-0.531,0.659-0.83,1.037c-0.579,0.735-1.163,1.483-1.754,2.252c-0.578,0.745-1.141,1.497-1.679,2.227
				c-0.513,0.702-0.905,1.261-1.154,1.657c-0.278,0.417-0.632,0.951-1.048,1.593c-0.274,0.424-0.563,0.858-0.862,1.3
				c0.04-0.883,0.145-1.725,0.313-2.516c0.044-0.207,0.089-0.406,0.135-0.605c0.107-0.471,0.214-0.916,0.329-1.344
				c0.092-0.355,0.185-0.701,0.288-1.036c0.278-0.941,0.532-1.832,0.76-2.673c0.231-0.852,0.348-1.699,0.348-2.522
				c0-0.545-0.173-0.874-0.523-0.977c-0.256-0.079-0.478-0.118-0.672-0.118c-0.243,0-0.578,0.024-0.999,0.089
				c-0.143,0.018-0.296,0.047-0.46,0.072c-0.624,0.103-1.265,0.242-1.905,0.424c-0.166,0.047-0.321,0.093-0.475,0.143
				c-0.321,0.106-0.613,0.23-0.88,0.363c-0.115,0.054-0.225,0.111-0.328,0.171c-0.021,0.011-0.036,0.025-0.053,0.04
				c-0.496,0.299-0.752,0.652-0.752,1.048c0,0.997,0.647,1.147,1.039,1.147c0.285,0,0.531-0.058,0.725-0.165
				c0.121-0.063,0.245-0.096,0.373-0.096c0.211,0,0.336,0.078,0.417,0.264c0.107,0.25,0.162,0.488,0.162,0.735
				c0,0.354-0.087,0.918-0.258,1.72c-0.18,0.827-0.399,1.717-0.652,2.65c-0.26,0.977-0.527,1.997-0.804,3.062
				c-0.254,0.948-0.493,1.899-0.735,2.904c-0.07,0.283-0.161,0.639-0.26,1.073l-0.046,0.178c-0.09,0.374-0.18,0.738-0.271,1.102
				c-0.107,0.427-0.193,0.812-0.261,1.162c-0.075,0.352-0.111,0.613-0.111,0.785c0,0.412,0.123,0.691,0.372,0.826
				c0.195,0.107,0.466,0.164,0.826,0.164h0.834c0.304,0,0.591-0.04,0.87-0.121c0.181-0.061,0.48-0.258,1.15-1.251
				c0.467-0.684,0.955-1.457,1.497-2.363c0.549-0.909,1.02-1.742,1.442-2.547c0.436-0.817,0.737-1.379,0.93-1.721
				c0.021-0.058,0.065-0.153,0.162-0.317c0.082-0.153,0.21-0.367,0.391-0.663c0.313-0.502,0.698-1.094,1.148-1.774
				c0.213-0.321,0.441-0.656,0.684-0.999c0.017-0.024,0.032-0.046,0.05-0.067c0.235-0.339,0.483-0.684,0.745-1.04
				c0.303-0.404,0.605-0.795,0.916-1.173c-0.119,0.467-0.235,0.945-0.354,1.429c-0.206,0.863-0.391,1.739-0.548,2.602
				c-0.163,0.87-0.295,1.692-0.395,2.444c-0.107,0.777-0.162,1.454-0.162,2.021c0,0.72,0.036,1.429,0.107,2.117
				c0.072,0.726,0.247,1.393,0.517,1.992c0.282,0.616,0.696,1.122,1.233,1.51c0.553,0.4,1.3,0.602,2.221,0.602
				c0.365,0,0.83-0.075,1.375-0.22c0.535-0.139,1.051-0.339,1.535-0.596c0.489-0.25,0.904-0.516,1.273-0.808
				c0.413-0.331,0.619-0.699,0.619-1.094C72.817,54.281,72.515,54.024,72.265,53.921z"/>
			<path fill="#FFFFFF" d="M105.764,53.871c-0.084-0.245-0.298-0.381-0.583-0.381c-0.25,0-0.464,0.041-0.638,0.129
				c-0.15,0.071-0.288,0.157-0.429,0.256c-0.104,0.072-0.231,0.14-0.393,0.208c-0.138,0.053-0.335,0.081-0.577,0.081
				c-0.323,0-0.566-0.081-0.743-0.242c-0.193-0.177-0.335-0.406-0.429-0.677c-0.096-0.295-0.163-0.606-0.194-0.965
				c-0.033-0.335-0.051-0.649-0.051-0.941c0-0.567,0.12-1.343,0.355-2.317c0.249-0.998,0.538-2.073,0.863-3.203
				c0.334-1.172,0.705-2.344,1.094-3.492l1.077-3.21c0.035-0.143,0.063-0.257,0.084-0.356c0.019-0.1,0.029-0.213,0.029-0.332v-0.003
				l0,0c0-0.317-0.151-0.478-0.332-0.538c-0.064-0.022-0.124-0.032-0.188-0.032c-1.008,0-1.739,0.064-2.234,0.192
				c-0.517,0.135-0.881,0.299-1.098,0.502c-0.236,0.207-0.378,0.431-0.423,0.663c-0.016,0.064-0.033,0.118-0.056,0.165
				c-0.017,0.035-0.043,0.063-0.064,0.093c-0.006,0.01-0.01,0.02-0.019,0.028l-0.008,0.01l-0.043,0.058v0.003l0,0
				c-0.043,0.089-0.068,0.193-0.076,0.307c-1.004,1.938-1.987,3.763-2.92,5.43c-0.959,1.7-1.869,3.189-2.713,4.425
				c-0.841,1.236-1.607,2.231-2.273,2.951c-0.774,0.837-1.251,1.012-1.511,1.012c-0.207,0-0.364-0.05-0.471-0.16
				c-0.129-0.125-0.229-0.286-0.306-0.481c-0.076-0.2-0.132-0.417-0.168-0.645c-0.031-0.232-0.05-0.428-0.05-0.589
				c0-1.286,0.248-2.597,0.741-3.898c0.123-0.327,0.256-0.651,0.398-0.969c0.039-0.096,0.086-0.185,0.133-0.278
				c0.099-0.224,0.202-0.449,0.313-0.667c0.063-0.121,0.132-0.238,0.196-0.355c0.261-0.492,0.542-0.974,0.841-1.433
				c0.561-0.844,1.159-1.635,1.792-2.352c0.012-0.011,0.021-0.025,0.029-0.033c0.213-0.242,0.435-0.476,0.658-0.705
				c0.796-0.805,1.547-1.468,2.238-1.967c0.157,0.192,0.421,0.353,0.873,0.353c0.3,0,0.624-0.058,0.97-0.167
				c0.331-0.11,0.648-0.264,0.943-0.445c0.297-0.186,0.543-0.385,0.73-0.591c0.218-0.243,0.329-0.499,0.329-0.777
				c0-0.364-0.111-0.584-0.332-0.66c-0.132-0.043-0.313-0.064-0.552-0.064c-0.364,0-0.729,0.018-1.083,0.046
				c-1.722,0.135-3.354,0.591-4.865,1.365c-1.819,0.938-3.409,2.181-4.729,3.695c-0.817,0.936-1.52,1.975-2.126,3.068
				c-0.374,0.677-0.715,1.373-1.001,2.103c-0.759,1.924-1.144,3.902-1.144,5.873c0,0.509,0.063,1.029,0.188,1.549
				c0.128,0.525,0.325,1.005,0.581,1.433c0.263,0.432,0.605,0.795,1.015,1.073c0.425,0.289,0.931,0.439,1.508,0.439
				c1.055,0,2.063-0.326,2.993-0.959c0.909-0.628,1.797-1.49,2.645-2.566c0.837-1.063,1.688-2.355,2.53-3.849
				c0.495-0.873,1.004-1.806,1.524-2.79c-0.148,0.591-0.291,1.183-0.431,1.767c-0.318,1.357-0.478,2.719-0.478,4.059
				c0,1.272,0.316,2.319,0.943,3.114c0.643,0.809,1.714,1.224,3.183,1.224c0.353,0,0.773-0.119,1.236-0.347
				c0.439-0.213,0.877-0.469,1.291-0.762c0.428-0.303,0.776-0.621,1.044-0.949c0.303-0.371,0.451-0.68,0.451-0.961
				C105.856,54.218,105.824,54.033,105.764,53.871z"/>
		</g>
		<g>
			<path fill="#FFFFFF" d="M203.636,66.986c-0.52-0.24-0.994-0.361-1.41-0.361c-1.034,0-2.153,0.254-3.322,0.749
				c-0.317,0.131-0.63,0.275-0.936,0.431c-0.681,0.345-1.34,0.759-1.969,1.218c-0.216,0.161-0.437,0.32-0.644,0.492
				c-0.199,0.163-0.389,0.334-0.577,0.506c-0.847,0.774-1.605,1.629-2.252,2.566c-0.788,1.134-1.423,2.38-1.883,3.699
				c-0.456,1.321-0.688,2.687-0.688,4.058c-0.035,1.929,0.457,3.486,1.469,4.626c1.015,1.144,2.516,1.725,4.457,1.725
				c0.824,0,1.677-0.164,2.538-0.484c0.845-0.321,1.657-0.742,2.415-1.251c0.766-0.517,1.455-1.099,2.046-1.729
				c0.604-0.638,1.091-1.304,1.442-1.977l0.036-0.068l-0.003-0.071c-0.061-0.845-0.481-0.969-0.728-0.969
				c-0.356,0-0.713,0.196-1.096,0.602c-0.326,0.338-0.723,0.717-1.185,1.126c-0.452,0.406-0.977,0.777-1.543,1.116
				c-0.271,0.161-0.566,0.281-0.876,0.36c-0.32,0.081-0.659,0.125-1.02,0.125c-0.716,0-1.297-0.115-1.729-0.339
				c-0.106-0.054-0.203-0.114-0.3-0.178c-0.281-0.2-0.513-0.443-0.688-0.738c-0.018-0.028-0.032-0.062-0.054-0.093
				c-0.213-0.385-0.362-0.82-0.435-1.297c-0.085-0.538-0.128-1.124-0.128-1.725c0-0.944,0.14-1.999,0.41-3.14
				c0.275-1.135,0.652-2.212,1.126-3.196c0.471-0.979,1.051-1.81,1.718-2.48c0.316-0.318,0.655-0.556,1.015-0.716l0.005-0.003
				c0.052-0.025,0.109-0.043,0.163-0.063c0.039-0.011,0.074-0.029,0.114-0.042c0.027-0.012,0.058-0.015,0.086-0.023
				c0.063-0.022,0.127-0.039,0.191-0.056c0.022,0,0.045-0.003,0.064-0.008c0.073-0.014,0.148-0.028,0.226-0.035
				c0.098-0.01,0.195-0.014,0.296-0.014c0.18,0,0.228,0.071,0.256,0.132c0.081,0.177,0.142,0.37,0.191,0.573
				c0.04,0.189,0.115,0.363,0.202,0.539c0.03,0.053,0.056,0.113,0.094,0.171c0.114,0.181,0.354,0.401,0.813,0.401
				c0.215,0,0.477-0.073,0.813-0.23c0.313-0.145,0.62-0.341,0.937-0.606c0.311-0.251,0.581-0.527,0.817-0.815
				c0.264-0.325,0.398-0.673,0.398-1.048l0,0l0,0C204.513,67.759,204.209,67.257,203.636,66.986z"/>
			<path fill="#FFFFFF" d="M224.999,83.688c0-0.214-0.032-0.399-0.093-0.564c-0.024-0.063-0.061-0.122-0.104-0.171
				c-0.112-0.135-0.274-0.21-0.478-0.21c-0.241,0-0.455,0.043-0.635,0.131c-0.146,0.072-0.283,0.155-0.427,0.257
				c-0.108,0.075-0.235,0.143-0.388,0.203c-0.144,0.058-0.34,0.085-0.582,0.085c-0.213,0-0.389-0.038-0.534-0.11
				c-0.071-0.039-0.139-0.079-0.199-0.132c-0.097-0.088-0.182-0.188-0.249-0.303c-0.068-0.111-0.13-0.235-0.175-0.37
				c-0.015-0.05-0.028-0.11-0.043-0.165c-0.072-0.252-0.126-0.511-0.153-0.79c-0.032-0.35-0.051-0.663-0.051-0.941
				c0-0.57,0.121-1.344,0.357-2.302c0.035-0.131,0.067-0.271,0.104-0.406c0.066-0.279,0.138-0.552,0.213-0.834
				c0.058-0.204,0.11-0.413,0.168-0.624c0.117-0.438,0.238-0.873,0.37-1.325c0.331-1.148,0.7-2.32,1.09-3.472
				c0.397-1.179,0.753-2.237,1.069-3.192c0.016-0.064,0.029-0.121,0.043-0.171c0.016-0.067,0.025-0.127,0.04-0.177
				c0.011-0.047,0.011-0.101,0.014-0.15c0.004-0.061,0.015-0.121,0.015-0.189c0-0.417-0.263-0.57-0.514-0.57
				c-0.987,0-1.738,0.064-2.228,0.193c-0.127,0.032-0.244,0.066-0.355,0.107c-0.329,0.109-0.57,0.237-0.737,0.39
				c-0.175,0.162-0.296,0.326-0.367,0.493c-0.021,0.057-0.04,0.114-0.05,0.171c-0.025,0.121-0.072,0.214-0.141,0.282l-0.049,0.068
				c-0.043,0.092-0.068,0.193-0.078,0.31c-0.99,1.914-1.968,3.732-2.905,5.398c-0.939,1.674-1.843,3.158-2.69,4.405
				c-0.376,0.544-0.729,1.036-1.067,1.485c-0.047,0.057-0.091,0.122-0.132,0.175c-0.136,0.17-0.257,0.32-0.379,0.47
				c-0.057,0.067-0.119,0.15-0.174,0.214c-0.175,0.213-0.35,0.405-0.511,0.584c-0.774,0.833-1.243,1.011-1.503,1.011
				c-0.075,0-0.128-0.014-0.188-0.028c-0.024-0.004-0.061-0.004-0.082-0.011c-0.029-0.012-0.047-0.033-0.071-0.043
				c-0.043-0.024-0.094-0.043-0.125-0.077c-0.06-0.058-0.107-0.122-0.156-0.194c-0.009-0.01-0.018-0.024-0.025-0.035
				c-0.046-0.078-0.09-0.161-0.124-0.252c-0.04-0.096-0.072-0.196-0.098-0.299c0,0-0.003-0.008-0.003-0.011
				c-0.027-0.107-0.054-0.217-0.064-0.332c-0.039-0.231-0.053-0.427-0.053-0.585c0-1.275,0.245-2.575,0.735-3.876
				c0.499-1.305,1.124-2.541,1.876-3.681c0.189-0.286,0.381-0.563,0.577-0.834c0.592-0.815,1.224-1.563,1.885-2.234
				c0.399-0.405,0.787-0.776,1.159-1.1c0.374-0.325,0.728-0.613,1.068-0.858c0.054,0.07,0.13,0.127,0.218,0.186
				c0.152,0.094,0.361,0.167,0.649,0.167c0.302,0,0.63-0.061,0.966-0.17c0.326-0.112,0.644-0.256,0.936-0.442
				c0.292-0.175,0.539-0.375,0.734-0.588c0.213-0.242,0.324-0.499,0.324-0.773c0-0.361-0.111-0.582-0.336-0.66
				c-0.134-0.042-0.309-0.06-0.545-0.06l0,0h-0.003c-2.108,0-4.098,0.474-5.912,1.407c-1.803,0.922-3.388,2.16-4.706,3.671
				c-0.989,1.125-1.822,2.383-2.494,3.748c-0.226,0.453-0.432,0.919-0.621,1.396c-0.752,1.91-1.136,3.877-1.136,5.841
				c0,0.51,0.063,1.026,0.188,1.542c0.107,0.431,0.269,0.82,0.461,1.184c0.038,0.079,0.074,0.168,0.12,0.242
				c0.055,0.094,0.122,0.182,0.186,0.271c0.007,0.01,0.015,0.024,0.025,0.036c0.042,0.057,0.089,0.106,0.136,0.16
				c0.03,0.039,0.063,0.085,0.102,0.121c0.172,0.179,0.357,0.339,0.562,0.479c0.415,0.29,0.922,0.438,1.497,0.438
				c1.05,0,2.057-0.325,2.981-0.955c0.901-0.621,1.785-1.479,2.63-2.551c0.833-1.057,1.682-2.345,2.52-3.827
				c0.485-0.859,0.985-1.781,1.507-2.764c-0.146,0.583-0.289,1.168-0.424,1.746c-0.317,1.343-0.479,2.704-0.479,4.036
				c0,1.268,0.322,2.31,0.94,3.097c0.367,0.462,0.873,0.788,1.518,0.986c0.472,0.151,1.021,0.232,1.649,0.232l0,0l0,0
				c0.355,0,0.758-0.114,1.23-0.346c0.439-0.21,0.87-0.467,1.287-0.759c0.418-0.295,0.768-0.612,1.036-0.944
				c0.101-0.12,0.179-0.239,0.244-0.348C224.927,84.074,224.999,83.872,224.999,83.688z"/>
			<path fill="#FFFFFF" d="M162.501,74.521c0.389,0,0.721-0.067,0.977-0.209c0.313-0.167,0.478-0.435,0.478-0.772
				c0-0.193-0.058-0.485-0.333-0.695c-0.113-0.09-0.262-0.16-0.474-0.211c-0.309-0.063-0.655-0.145-1.021-0.235
				c-0.098-0.025-0.189-0.046-0.297-0.072c-0.028-0.006-0.056-0.017-0.081-0.029c-0.327-0.092-0.635-0.228-0.912-0.41
				c-0.079-0.053-0.157-0.102-0.232-0.167c-0.335-0.26-0.498-0.749-0.498-1.461c0-0.929,0.131-1.749,0.398-2.426
				c0.274-0.702,0.523-1.493,0.733-2.345l0.013-0.064c0-0.453-0.053-0.73-0.18-0.902c-0.139-0.192-0.388-0.289-0.755-0.289
				c-0.945,0-1.896,0.256-2.84,0.767c-0.321,0.199-0.57,0.487-0.748,0.861c-0.144,0.311-0.257,0.677-0.332,1.102
				c-1.746,0.22-3.356,0.73-4.785,1.515c-0.528,0.288-1.028,0.617-1.508,0.966c-0.85,0.619-1.636,1.314-2.309,2.105
				c-1.055,1.232-1.886,2.641-2.465,4.184c-0.578,1.55-0.87,3.167-0.87,4.825v0.003l0,0c0,2.042,0.58,3.596,1.721,4.612
				c1.137,1.008,2.779,1.521,4.877,1.521c1.23,0,2.331-0.334,3.269-0.984c0.225-0.156,0.45-0.316,0.67-0.485
				c0.664-0.498,1.304-1.039,1.914-1.624c0.527-0.531,1.048-1.172,1.539-1.909c0.491-0.742,0.938-1.547,1.322-2.405
				c0.384-0.856,0.705-1.747,0.951-2.637c0.125-0.471,0.224-0.933,0.306-1.387c0.054-0.295,0.104-0.595,0.14-0.884
				C161.606,74.476,162.051,74.521,162.501,74.521z M157.049,80.583c-0.546,0.933-1.223,1.692-2.007,2.263
				c-0.762,0.552-1.704,0.83-2.785,0.83c-0.675,0-1.209-0.164-1.63-0.513c-0.441-0.353-0.805-0.809-1.079-1.347
				c-0.281-0.549-0.483-1.155-0.599-1.798c-0.122-0.657-0.18-1.281-0.18-1.85c0-1.112,0.196-2.218,0.583-3.297
				c0.389-1.076,0.937-2.077,1.625-2.969c0.342-0.44,0.723-0.847,1.135-1.218c0.203-0.177,0.415-0.349,0.636-0.509
				c0.004-0.002,0.01-0.007,0.01-0.007c0.226-0.163,0.458-0.32,0.696-0.463c0.868-0.52,1.813-0.845,2.808-0.973
				c0.002,0.534,0.045,1.072,0.131,1.599c0.058,0.35,0.137,0.659,0.226,0.941c0.057,0.174,0.117,0.346,0.186,0.5
				c0.192,0.427,0.564,0.822,1.108,1.176c0.455,0.299,0.953,0.581,1.481,0.84c-0.265,1.205-0.581,2.401-0.937,3.55
				C158.082,78.537,157.612,79.631,157.049,80.583z"/>
			<path fill="#FFFFFF" d="M156.207,63.604c0.197,0,0.445-0.035,0.731-0.11c0.463-0.103,1.072-0.3,1.804-0.582
				c0.743-0.281,1.482-0.63,2.194-1.029c0.731-0.41,1.368-0.888,1.903-1.422c0.566-0.567,0.855-1.204,0.855-1.895
				c0-0.329-0.122-0.675-0.358-1.031c-0.256-0.389-0.68-0.581-1.25-0.581c-0.72,0-1.204,0.196-1.446,0.592
				c-0.202,0.334-0.395,0.733-0.566,1.19c-0.167,0.462-0.395,0.938-0.684,1.411c-0.265,0.435-0.81,0.838-1.617,1.194l-1.256,0.52
				c-0.343,0.153-0.582,0.274-0.754,0.38c-0.254,0.154-0.386,0.39-0.386,0.689C155.378,63.133,155.457,63.604,156.207,63.604z"/>
			<path fill="#FFFFFF" d="M180.977,83.181c-0.292-0.121-0.52-0.179-0.693-0.179c-0.298,0-0.568,0.086-0.804,0.257
				c-0.083,0.062-0.298,0.16-0.861,0.16c-0.411,0-0.701-0.113-0.896-0.352c-0.22-0.264-0.395-0.596-0.523-0.981
				c-0.106-0.311-0.163-0.648-0.197-1.002c-0.007-0.084-0.02-0.163-0.022-0.252c-0.019-0.464-0.026-0.867-0.026-1.208
				c0-1.496,0.169-2.943,0.511-4.307c0.349-1.386,0.766-2.798,1.236-4.18c0.075-0.171,0.175-0.453,0.316-0.838
				c0.139-0.384,0.278-0.784,0.421-1.203c0.136-0.422,0.257-0.814,0.364-1.181c0.109-0.387,0.165-0.69,0.165-0.929
				c0-0.31-0.161-0.827-1.246-0.827c-1.064,0-1.771,0.11-2.158,0.349c-0.372,0.22-0.657,0.447-0.831,0.659
				c-0.092,0.092-0.15,0.21-0.175,0.342c-0.381,0.452-0.846,1.026-1.378,1.71c-0.514,0.653-1.037,1.326-1.565,2.006l-0.177,0.232
				c-0.589,0.759-1.152,1.503-1.668,2.216c-0.203,0.272-0.378,0.518-0.54,0.745c-0.256,0.36-0.467,0.666-0.616,0.899
				c-0.066,0.107-0.138,0.216-0.22,0.338c-0.231,0.353-0.507,0.771-0.819,1.254c-0.269,0.409-0.551,0.833-0.856,1.286
				c0.043-0.876,0.146-1.709,0.311-2.498c0.228-1.062,0.477-2.063,0.748-2.967c0.282-0.941,0.531-1.826,0.76-2.659
				c0.227-0.849,0.345-1.693,0.345-2.513c0-0.541-0.178-0.868-0.517-0.975c-0.245-0.075-0.474-0.111-0.677-0.111
				c-0.332,0-0.819,0.054-1.447,0.157c-0.619,0.1-1.257,0.247-1.899,0.42c-0.647,0.178-1.207,0.406-1.666,0.678
				c-0.535,0.305-0.811,0.67-0.811,1.08c0,0.994,0.648,1.143,1.042,1.143c0.284,0,0.527-0.054,0.719-0.161
				c0.118-0.066,0.239-0.098,0.371-0.098c0.051,0,0.097,0.003,0.139,0.014c0.127,0.033,0.213,0.11,0.274,0.246
				c0.021,0.055,0.033,0.104,0.052,0.154c0.062,0.195,0.108,0.384,0.108,0.577c0,0.353-0.085,0.93-0.253,1.71
				c-0.178,0.802-0.396,1.689-0.647,2.641c-0.261,0.972-0.532,1.984-0.807,3.042c-0.278,1.06-0.521,2.024-0.73,2.89
				c-0.067,0.275-0.155,0.636-0.259,1.069c-0.102,0.432-0.207,0.855-0.315,1.272c-0.103,0.416-0.188,0.805-0.259,1.15
				c-0.074,0.364-0.11,0.62-0.11,0.784c0,0.317,0.073,0.552,0.224,0.706c0.043,0.047,0.09,0.089,0.146,0.118
				c0.197,0.107,0.468,0.16,0.826,0.16h0.833c0.294,0,0.579-0.04,0.861-0.118c0.181-0.06,0.479-0.26,1.145-1.244
				c0.463-0.68,0.962-1.47,1.489-2.35c0.533-0.889,1.018-1.743,1.439-2.535c0.431-0.812,0.729-1.372,0.919-1.715
				c0.063-0.156,0.249-0.48,0.552-0.976c0.304-0.488,0.688-1.08,1.14-1.756c0.438-0.664,0.938-1.372,1.473-2.099
				c0.299-0.404,0.6-0.789,0.905-1.163c-0.117,0.46-0.23,0.931-0.35,1.419c-0.206,0.869-0.391,1.735-0.55,2.586
				c-0.152,0.855-0.288,1.672-0.388,2.427c-0.106,0.758-0.156,1.439-0.156,2.013c0,0.702,0.033,1.411,0.103,2.106
				c0.073,0.715,0.247,1.382,0.517,1.977c0.276,0.612,0.688,1.12,1.23,1.504c0.542,0.398,1.282,0.594,2.199,0.594
				c0.37,0,0.829-0.072,1.368-0.213c0.53-0.138,1.051-0.339,1.535-0.596c0.475-0.243,0.897-0.513,1.266-0.804
				c0.409-0.329,0.614-0.696,0.614-1.084C181.527,83.537,181.226,83.281,180.977,83.181z"/>
			<path fill="#FFFFFF" d="M188.293,62.93c0.95,0,1.657-0.34,2.088-1.001c0.406-0.631,0.609-1.34,0.609-2.117
				c0-0.414-0.078-0.842-0.25-1.312c-0.188-0.535-0.588-0.819-1.151-0.819c-0.98,0-1.729,0.302-2.227,0.894
				c-0.484,0.588-0.734,1.318-0.734,2.17c0,0.523,0.093,1.001,0.282,1.429C187.06,62.521,187.418,62.93,188.293,62.93z"/>
			<path fill="#FFFFFF" d="M188.912,66.832c-0.813,0-1.718,0.154-2.676,0.452c-0.923,0.292-1.785,0.582-2.555,0.859
				c-0.746,0.271-0.901,0.791-0.901,1.183l0,0l0,0c0,0.114,0.01,0.254,0.024,0.417c0.032,0.289,0.254,0.464,0.592,0.464
				c0.164-0.035,0.303-0.05,0.421-0.05h0.416c0.596,0,0.773,0.121,0.83,0.196c0.013,0.014,0.022,0.024,0.022,0.033
				c0.093,0.228,0.139,0.516,0.139,0.865c0,0.601-0.079,1.346-0.231,2.22c-0.149,0.862-0.354,1.8-0.596,2.786
				c-0.241,0.987-0.513,1.985-0.801,2.983c-0.293,1.004-0.567,1.932-0.807,2.783c-0.241,0.85-0.444,1.571-0.602,2.163
				c-0.218,0.814-0.244,1.08-0.244,1.208l0,0v0.003c0,0.456,0.08,0.758,0.248,0.948c0.174,0.198,0.456,0.295,0.843,0.295
				c0.278,0,0.528-0.011,0.765-0.025c0.701-0.057,1.215-0.188,1.561-0.406c0.241-0.15,0.441-0.393,0.601-0.731
				c0.145-0.306,0.25-0.699,0.325-1.172c0.007-0.04,0.018-0.079,0.025-0.125c0.239-1.711,0.602-3.432,1.083-5.114
				c0.48-1.689,0.92-3.407,1.305-5.113c0.07-0.356,0.174-0.769,0.31-1.229c0.136-0.489,0.275-0.994,0.413-1.514
				c0.072-0.264,0.141-0.528,0.2-0.792c0.06-0.268,0.113-0.524,0.167-0.784c0.106-0.526,0.164-1,0.164-1.4
				c0-0.424-0.053-0.736-0.157-0.969C189.711,67.07,189.479,66.832,188.912,66.832z"/>
			<path fill="#FFFFFF" d="M145.663,90.761c-0.299-0.11-0.674-0.289-1.115-0.528c-0.444-0.242-0.919-0.636-1.408-1.166
				c-0.487-0.531-0.965-1.312-1.421-2.32c-0.058-0.127-0.111-0.26-0.163-0.395c-0.386-0.951-0.71-2.138-0.959-3.513
				c-0.293-1.58-0.442-3.567-0.442-5.901c0-4.761,0.403-9.361,1.197-13.665c0.794-4.317,1.982-8.784,3.53-13.292
				c0.205-0.578,0.462-1.219,0.781-1.946c0.082-0.182,0.154-0.36,0.218-0.538c0.188-0.531,0.3-1.052,0.335-1.546
				c0-0.136-0.024-0.36-0.075-0.688c-0.015-0.107-0.031-0.225-0.056-0.353c-0.086-0.516-0.204-1.062-0.35-1.621
				c-0.146-0.575-0.332-1.091-0.542-1.547c-0.214-0.439-0.45-0.681-0.716-0.745c-0.044-0.007-0.09-0.014-0.133-0.014
				c-0.494,0-0.836,0.239-0.976,0.663l-0.165,0.339c-1.089,2.953-2.03,5.719-2.843,8.302h-0.004l-11.124,16.331
				c0.139-0.642,0.295-1.305,0.458-2.006l0.172-0.698c0.45-1.842,0.978-3.866,1.607-6.183c0.61-2.228,1.257-4.486,1.924-6.717
				c0.691-2.298,1.368-4.525,2.02-6.625c0.693-2.223,1.313-4.155,1.894-5.897l0.011-0.057c0-0.31-0.094-0.724-0.267-1.223
				c-0.164-0.48-0.368-0.965-0.607-1.438c-0.23-0.467-0.505-0.884-0.811-1.233c-0.333-0.381-0.644-0.56-0.945-0.56
				c-0.495,0-0.842,0.267-1.012,0.773l-0.345,1.037l-4.166,11.359c-0.461,1.212-1.212,2.925-2.235,5.1
				c-1.037,2.199-2.32,4.621-3.813,7.216c-1.5,2.602-3.235,5.292-5.17,8c-1.911,2.682-4.017,5.159-6.254,7.362
				c-2.234,2.191-4.604,4.004-7.042,5.401c-2.423,1.39-4.932,2.095-7.454,2.095c-1.15,0-2.277-0.21-3.349-0.62
				c-1.069-0.413-2.043-0.986-2.884-1.71c-0.631-0.535-1.176-1.162-1.61-1.86c-0.144-0.239-0.282-0.484-0.402-0.734
				c-0.489-1.009-0.742-2.142-0.742-3.368c0-1.6,0.407-3.046,1.207-4.294c0.804-1.258,1.837-2.333,3.077-3.202
				c1.247-0.871,2.63-1.544,4.122-1.997c1.489-0.456,2.937-0.691,4.305-0.691c1.778,0,3.389,0.226,4.779,0.657
				c1.389,0.438,2.808,1.144,4.212,2.096l0.046,0.028h0.05c0.373,0,0.716-0.117,1.015-0.352c0.317-0.243,0.479-0.542,0.479-0.885
				c0-0.698-0.442-1.293-1.318-1.76c-0.817-0.442-1.765-0.813-2.815-1.091c-1.041-0.275-2.049-0.478-2.983-0.603
				c-0.947-0.124-1.58-0.188-1.883-0.188c-2.154,0-4.346,0.36-6.525,1.08c-2.178,0.716-4.17,1.756-5.915,3.088
				c-1.758,1.326-3.204,2.98-4.309,4.908c-1.102,1.932-1.66,4.112-1.66,6.489c0,1.579,0.334,2.968,1.001,4.123
				c0.659,1.151,1.559,2.128,2.668,2.898c1.105,0.765,2.389,1.335,3.811,1.695c1.421,0.356,2.89,0.542,4.359,0.542
				c2.371,0,4.666-0.496,6.825-1.469c2.149-0.964,4.198-2.28,6.104-3.905c1.89-1.617,3.699-3.486,5.381-5.544
				c1.686-2.063,3.29-4.189,4.772-6.322c1.507-2.158,2.921-4.307,4.204-6.377c1.115-1.807,2.188-3.462,3.196-4.946
				c-0.524,2.68-1.061,5.42-1.61,8.167c-0.571,2.841-1.102,5.624-1.582,8.267c-0.389,2.167-0.741,4.242-1.044,6.165l-0.122,0.788
				c-0.317,2.063-0.474,3.749-0.474,5.006c0,0.441,0.043,0.877,0.125,1.298c0.104,0.497,0.446,0.765,0.986,0.765
				c0.357,0,0.728-0.271,1.145-0.826c0.385-0.506,0.76-1.108,1.119-1.786c0.355-0.669,0.685-1.328,0.984-1.968
				c0.31-0.658,0.486-1.085,0.572-1.332c0.168-0.434,0.342-0.873,0.511-1.303h-0.004c0,0-0.108-2.594,1.321-10.042l0.059-0.058
				l10.254-15.048c-1.386,5.114-2.213,9.373-2.69,12.835c-0.117,0.987-0.221,1.988-0.307,3.001c-0.127,1.513-0.192,3.132-0.192,4.81
				c0,1.312,0.117,2.879,0.351,4.661c0.228,1.793,0.669,3.524,1.304,5.149c0.634,1.635,1.518,3.046,2.626,4.193
				c1.114,1.163,2.58,1.755,4.345,1.755c0.391,0,0.835-0.081,1.313-0.234c0.53-0.167,0.813-0.537,0.813-1.071
				C146.216,90.989,145.949,90.863,145.663,90.761z"/>
		</g>
	</g>
	<g id="Buganbilias_x5F_infeior_4_">
		<g>
			<path fill="#FFFFFF" d="M0.36,78.292c0.433,0.344,1.165,1.084,1.374,2.269c0.253,1.419,2.016,2.088,3.6,2.123
				c0.014-0.459-0.016-2.048-1.043-3.178C3.444,78.575,2.129,78.163,0.36,78.292z"/>
			<path fill="#FFFFFF" d="M2.209,76.745c0.394,0.461,0.617,1.041,0.747,1.567c0.613,0.222,1.135,0.552,1.547,1.007
				c0.845,0.931,1.059,2.116,1.104,2.848c0.09,0.012,0.148,0.016,0.148,0.016C6.97,76.516,2.209,76.745,2.209,76.745z"/>
		</g>
		<g>
			<path fill="#FFFFFF" d="M30.569,69.815c0.05,1.002,0.1,2.008,0.291,2.996c0.157,0.815,0.402,1.775,1.063,2.337
				c0.78,0.665,1.871,0.262,2.63-0.233c0.554-0.361,0.936-0.937,0.936-1.61c0.001-0.654-0.336-1.265-0.801-1.707
				c-1.146-1.092-2.815-1.096-4.152-1.835l-0.002,0.004C30.552,69.774,30.567,69.789,30.569,69.815z"/>
			<g>
				<path fill="#FFFFFF" d="M30.711,72.686c-0.033-0.193-0.061-0.389-0.086-0.583c-0.525-0.287-1.132-0.583-1.733-0.542
					c-0.275,0.02-0.519,0.142-0.765,0.257c-0.339,0.16-0.635,0.223-0.919-0.072c-0.061-0.05-0.144,0.028-0.088,0.087
					c0.797,0.646,1.197,1.613,1.911,2.331c0.338,0.338,0.749,0.585,1.218,0.69c0.373,0.083,0.71,0.059,1.081,0.017
					c0.053-0.006,0.107-0.011,0.159-0.018C31.035,74.236,30.841,73.412,30.711,72.686z"/>
			</g>
			<g>
				<path fill="#FFFFFF" d="M36.259,68.498c-0.146-0.478-0.316-0.956-0.545-1.4c-0.03-0.059-0.108-0.024-0.114,0.032
					c-0.084,0.938-0.815,1.555-1.184,2.373c-0.173,0.381-0.268,0.837-0.187,1.253c0.027,0.134,0.066,0.267,0.107,0.4
					c0.341,0.228,0.646,0.514,0.891,0.898c0.324,0.508,0.478,1.135,0.326,1.728c-0.014,0.048-0.039,0.09-0.055,0.135
					c0.825-0.371,1.149-1.256,1.216-2.124C36.802,70.687,36.58,69.549,36.259,68.498z"/>
			</g>
		</g>
		<g>
			<g>
				<path fill="#FFFFFF" d="M54.961,85.057c0.959-1.559,0.829-3.385,0.755-3.953c-0.551,0.861-2.286,1.767-2.362,1.81
					c-1.892,1.275-1.919,2.813-1.736,3.684C52.096,86.004,53.127,85.089,54.961,85.057z"/>
			</g>
			<g>
				<path fill="#FFFFFF" d="M59.466,85.778c-1.383,0-3.163-0.476-3.183-0.483c-0.422-0.079-0.833-0.118-1.221-0.118
					c-2.445,0-3.458,1.592-3.637,1.918c0.118,0.049,0.23,0.084,0.35,0.13c0.284-0.08,0.68-0.159,1.126-0.159
					c0.843,0,1.565,0.293,2.13,0.854c0.006,0,0.013,0.002,0.02,0.002c2.761,0,4.133-1.718,4.426-2.143
					C59.473,85.778,59.47,85.778,59.466,85.778z"/>
			</g>
			<g>
				<path fill="#FFFFFF" d="M55.413,88.593c-0.586-0.933-1.432-1.404-2.512-1.404c-0.549,0-1.027,0.129-1.3,0.221
					c0.327,0.125,0.715,0.348,1,0.746c0.335,0.468,0.439,1.088,0.332,1.828c0.92,0.321,2.073,0.41,3.043,0.41
					c0.546,0,1.001-0.03,1.262-0.047C56.143,89.805,55.446,88.647,55.413,88.593z"/>
			</g>
			<path fill="#FFFFFF" d="M50.98,87.379c-0.801,0.509-1.196,1.104-1.176,1.771c0.048,1.607,2.478,3.221,3.258,3.696
				c-0.556-0.956-0.346-2.335-0.335-2.399c0.238-0.933,0.159-1.677-0.225-2.22C52.001,87.528,51.123,87.397,50.98,87.379z"/>
		</g>
		<g>
			<g>
				<path fill="#FFFFFF" d="M63.385,67.955c0.209-0.261,0.445-0.482,0.691-0.691v-0.001c0.025-0.063-1.2-0.59-1.258-0.615
					c-0.214-0.094-0.431-0.185-0.646-0.278c-0.32-0.14-0.146-0.058-0.191,0.264c-0.064,0.444-0.147,0.9-0.157,1.351
					c0,0.264,0.014,0.52,0.09,0.769c0.007,0.028,0.113,0.46,0.11,0.46c0.18,0.061,0.362,0.123,0.545,0.183
					C62.742,68.876,63.029,68.399,63.385,67.955z"/>
			</g>
			<g>
				<path fill="#FFFFFF" d="M68.288,67.822c-0.195-0.061-0.398-0.095-0.602-0.117c-0.518-0.059-0.958,0.137-1.241,0.573
					c0.069,0.168,0.145,0.332,0.24,0.497c0.236,0.416,0.505,0.901,0.599,1.398c0.089-0.287,0.12-0.589,0.24-0.878
					c0.152-0.346,0.319-0.664,0.554-0.962C68.122,68.282,68.577,67.911,68.288,67.822z"/>
			</g>
			<path fill="#FFFFFF" d="M66.617,71.856c0.332-0.336,0.574-0.781,0.539-1.266c-0.047-0.736-0.406-1.296-0.724-1.937
				c-0.268-0.539-0.471-1.095-0.567-1.689c-0.012-0.06-0.107-0.802-0.218-0.712c-0.175,0.139-0.352,0.278-0.534,0.41
				c-1.09,0.769-2.266,1.777-2.504,3.171c-0.097,0.603-0.069,1.387,0.412,1.835c0.533,0.495,1.383,0.613,2.022,0.264
				c0.071-0.037,0.13,0.032,0.122,0.09C65.668,72.155,66.177,72.304,66.617,71.856z"/>
			<g>
				<path fill="#FFFFFF" d="M62.578,69.368c-0.029,0-0.056,0.002-0.082,0.004c0.024,0.007,0.048,0.016,0.074,0.025
					C62.573,69.387,62.574,69.377,62.578,69.368z"/>
				<path fill="#FFFFFF" d="M62.526,69.557c-0.082-0.028-0.164-0.056-0.245-0.083c-0.074-0.025-0.131-0.049-0.181-0.071
					c-0.598,0.081-1.152,0.323-1.463,0.9c-0.221,0.422-0.355,0.886-0.545,1.325c0.259-0.056,0.52-0.247,0.766-0.327
					c0.192-0.057,0.452-0.014,0.639,0.05c0.128,0.043,1.082,0.338,1.09,0.132c0.001-0.05,0.042-0.076,0.082-0.077V71.39
					c-0.187-0.319-0.292-0.697-0.271-1.112C62.411,70.027,62.46,69.788,62.526,69.557z"/>
			</g>
		</g>
		<g>
			<g>
				<path fill="#FFFFFF" d="M69.235,79.252c-0.162-0.509-0.221-0.997-0.252-1.526c-0.029-0.48-0.27-1.021-0.649-1.354
					c0.105,0.437-0.068,0.972-0.229,1.345c-0.157,0.372-0.369,0.74-0.56,1.115c0.216,0.316,0.469,0.604,0.774,0.832
					c0.4,0.295,0.864,0.459,1.354,0.515C69.438,79.932,69.334,79.566,69.235,79.252z"/>
			</g>
			<path fill="#FFFFFF" d="M65.418,78.505c0.277,0.882,0.926,1.605,1.602,2.214c-0.086-0.511,0.025-1.016,0.228-1.495
				c0.326-0.782,0.901-1.508,0.998-2.371c0.03-0.281,0.007-0.599-0.197-0.813c-0.264-0.276-0.699-0.27-1.049-0.229
				c-0.026,0.005-0.043-0.012-0.047-0.033c-0.371,0.068-0.728,0.21-1.017,0.461C65.29,76.8,65.172,77.723,65.418,78.505z"/>
			<g>
				<path fill="#FFFFFF" d="M65.346,76.9c0.058-0.144,0.131-0.275,0.214-0.394c-0.027-0.004-0.054-0.008-0.081-0.01
					c-0.257-0.018-0.514-0.017-0.744,0.109c-0.369,0.207-0.591,0.625-0.725,1.011c-0.164,0.476-0.073,0.95-0.049,1.438
					c0.017,0.375-0.104,0.722-0.222,1.07c0.276-0.233,0.588-0.416,0.882-0.627c0.357-0.257,0.609-0.572,0.694-0.997
					C65.158,77.979,65.136,77.425,65.346,76.9z"/>
			</g>
		</g>
	</g>
	<g id="Buganbilias_x5F_Superior_4_">
		<g>
			<path fill="#FFFFFF" d="M103.91,21.723c-0.208-0.768-0.107-1.541,0.308-2.27c0.224-0.395,0.494-0.702,0.706-0.91
				c0.017-0.119,0.034-0.239,0.049-0.362c-0.373-0.003-2.252,0.093-3.458,2.213c-0.189,0.337-0.359,0.717-0.497,1.119
				c-0.003,0.02-0.47,1.801-1.148,3c-0.004,0.007-0.004,0.007-0.01,0.013c0.516-0.05,2.686-0.39,4.043-2.79
				C103.905,21.731,103.907,21.727,103.91,21.723z"/>
			<path fill="#FFFFFF" d="M104.447,18.105c-0.665-0.588-2.015-1.323-4.054-0.307c-0.075,0.046-1.718,1.104-2.736,1.166
				c0.458,0.336,1.978,1.348,3.8,1.286C102.394,18.673,103.695,18.226,104.447,18.105z"/>
			<path fill="#FFFFFF" d="M104.324,19.514c-0.532,0.935-0.536,1.902-0.016,2.873c0.027,0.051,0.692,1.23,0.619,2.446
				c0.146-0.216,0.398-0.598,0.663-1.07c0.481-0.843,0.974-1.883,1.148-2.838c-0.698-0.272-1.183-0.672-1.424-1.197
				c-0.21-0.447-0.207-0.892-0.149-1.239C104.952,18.678,104.599,19.032,104.324,19.514z"/>
			<path fill="#FFFFFF" d="M107.555,17.788c-0.567-0.343-1.28-0.293-2.115,0.148c-0.056,0.133-0.373,0.961-0.012,1.741
				c0.278,0.603,0.887,1.032,1.813,1.289c0.06,0.023,1.36,0.518,1.919,1.473C109.13,21.527,108.927,18.62,107.555,17.788z"/>
		</g>
		<path fill="#FFFFFF" d="M126.045,13.898c0,0-0.304-0.204-0.753-0.333c-1.083,0.852-1.029,2.732-1.029,2.732
			c-0.478-1.282-0.11-2.271,0.229-2.832c-0.693,0.03-1.488,0.393-2.1,1.618c0,0-1.225,2.37,2.217,5.963c0,0-0.265-1.275,1.289-2.91
			C125.897,18.137,128.094,15.534,126.045,13.898z"/>
		<path fill="#FFFFFF" d="M111.69,9.921c0.934,0.386,1.239,1.098,1.339,1.525c0.076-0.144,1.355-2.739-3.432-3.731
			c0,0,0.397,0.639,0.351,1.291c-0.041,0.623-0.34,3.265,2.643,2.561C112.566,10.684,111.69,9.921,111.69,9.921z"/>
		<g>
			<path fill="#FFFFFF" d="M199.655,38.459c-0.14,0.285-0.716,1.589-0.215,2.835c0.367,0.91,1.223,1.596,2.541,2.038
				c-0.198-0.337-0.566-1.146-0.331-2.141C201.928,40.054,200.821,38.987,199.655,38.459z"/>
			<path fill="#FFFFFF" d="M200.029,42.389c-0.32-0.307-0.563-0.655-0.72-1.043c-0.393-0.976-0.165-1.958,0.04-2.526
				c-0.082-0.051-0.135-0.078-0.135-0.078c-2.669,3.721,0.846,5.056,0.846,5.056C199.92,43.325,199.951,42.82,200.029,42.389z"/>
		</g>
		<g>
			<path fill="#FFFFFF" d="M185.734,21.915c0.58,0.89,1.765,1.44,2.803,1.498c2.001,0.11,3.498-1.449,4.176-3.194
				c0.732-1.891,0.427-3.918-0.063-5.829c-0.592,0.583-1.34,0.936-2.135,1.17c-1.564,0.465-3.271,0.588-4.436,1.865
				c-1.124,1.232-1.844,3.083-0.498,4.432c0.009,0.008,0.005,0.015,0.009,0.023C185.636,21.857,185.698,21.861,185.734,21.915z"/>
			<path fill="#FFFFFF" d="M187.803,16.076c0.673-0.238,1.397-0.383,2.105-0.563c-0.026-0.476-0.101-0.953-0.237-1.408
				c-0.284-0.96-0.935-1.816-1.612-2.569c0.124,0.463,0.069,0.947-0.149,1.411c-0.619,1.308-1.924,2.2-2.882,3.242
				c-0.415,0.448-0.892,1.002-0.946,1.635c-0.051,0.563,0.294,1.004,0.71,1.344C185.229,17.745,186.425,16.563,187.803,16.076z"/>
			<path fill="#FFFFFF" d="M184.675,19.597c0.015-0.075,0.039-0.148,0.059-0.223c-0.473-0.371-0.876-0.855-0.858-1.481
				c0.014-0.592,0.385-1.121,0.751-1.557c0.093-0.112,0.201-0.212,0.301-0.319c-0.65-0.619-1.509-1.214-2.426-1.051
				c-0.65,0.114-1.209,0.487-1.788,0.801c0.431-0.006,0.835,0.117,1.103,0.519c0.375,0.567,0.381,1.328,0.467,1.979
				c0.119,0.9,0.397,1.739,1.22,2.229c0.381,0.227,0.806,0.342,1.24,0.377C184.618,20.472,184.591,20.041,184.675,19.597z"/>
		</g>
		<g>
			<path fill="#FFFFFF" d="M215.426,34.006c0.462,0.323,1.155,0.358,1.678,0.18c1.009-0.345,1.436-1.411,1.421-2.406
				c-0.017-1.077-0.57-2.015-1.191-2.858c-0.177,0.405-0.475,0.728-0.82,1.002c-0.677,0.541-1.493,0.942-1.813,1.803
				c-0.307,0.83-0.293,1.885,0.64,2.281c0.005,0.001,0.005,0.006,0.009,0.009C215.365,33.998,215.397,33.987,215.426,34.006z"/>
			<path fill="#FFFFFF" d="M215.281,30.72c0.284-0.252,0.61-0.468,0.924-0.698c-0.106-0.228-0.239-0.448-0.397-0.646
				c-0.331-0.416-0.823-0.708-1.307-0.943c0.152,0.203,0.223,0.452,0.207,0.724c-0.041,0.767-0.507,1.466-0.771,2.171
				c-0.116,0.302-0.238,0.669-0.142,0.993c0.089,0.286,0.346,0.436,0.62,0.52C214.345,32.053,214.699,31.233,215.281,30.72z"/>
			<path fill="#FFFFFF" d="M214.442,33.077c-0.008-0.041-0.011-0.081-0.016-0.122c-0.307-0.088-0.604-0.246-0.72-0.559
				c-0.109-0.294-0.032-0.629,0.061-0.917c0.024-0.074,0.057-0.145,0.085-0.217c-0.444-0.175-0.984-0.296-1.404-0.034
				c-0.297,0.186-0.498,0.481-0.72,0.751c0.211-0.088,0.434-0.11,0.646,0.036c0.298,0.204,0.451,0.578,0.623,0.882
				c0.238,0.419,0.544,0.777,1.047,0.854c0.231,0.037,0.464,0.009,0.685-0.061C214.587,33.518,214.489,33.312,214.442,33.077z"/>
		</g>
		<g>
			<path fill="#FFFFFF" d="M125.226,8.523c0.827,0.252,1.854-0.026,2.531-0.534c1.305-0.978,1.423-2.734,0.933-4.177
				c-0.533-1.562-1.785-2.666-3.088-3.601c-0.065,0.674-0.349,1.284-0.721,1.848c-0.731,1.107-1.73,2.078-1.791,3.482
				c-0.057,1.357,0.465,2.888,2.009,3.025c0.009,0,0.013,0.006,0.019,0.009C125.133,8.539,125.174,8.508,125.226,8.523z"/>
			<path fill="#FFFFFF" d="M123.459,3.799c0.295-0.501,0.671-0.97,1.021-1.453c-0.267-0.284-0.563-0.542-0.886-0.755
				c-0.681-0.449-1.533-0.643-2.352-0.759c0.32,0.225,0.54,0.555,0.646,0.959c0.3,1.139-0.048,2.378-0.102,3.528
				c-0.024,0.496-0.031,1.091,0.267,1.516c0.263,0.376,0.708,0.47,1.147,0.465C122.727,6.188,122.856,4.825,123.459,3.799z"/>
			<path fill="#FFFFFF" d="M123.354,7.631c-0.032-0.054-0.056-0.113-0.083-0.168c-0.486,0.015-0.993-0.076-1.309-0.476
				c-0.301-0.376-0.347-0.9-0.347-1.364c0-0.119,0.015-0.237,0.021-0.356c-0.73-0.045-1.576,0.033-2.063,0.614
				c-0.345,0.412-0.497,0.938-0.696,1.436c0.266-0.228,0.584-0.364,0.959-0.252c0.532,0.157,0.935,0.627,1.327,0.989
				c0.546,0.5,1.155,0.876,1.927,0.752c0.357-0.059,0.683-0.208,0.972-0.414C123.774,8.207,123.532,7.952,123.354,7.631z"/>
		</g>
		<g>
			<path fill="#FFFFFF" d="M161.139,37.217c0.319-0.002,0.783-0.549,0.958-0.754l0.035-0.041c0.475-0.554,0.746-1.131,0.826-1.764
				c0.247-1.937-0.948-3.741-1.612-4.574c-0.124,0.889-0.516,1.691-0.892,2.468c-0.143,0.292-0.289,0.594-0.421,0.898
				c-0.201,0.466-0.423,1.086-0.347,1.733c0.076,0.655,0.443,1.271,1.154,1.941c0.016-0.012,0.036-0.02,0.056-0.02
				c0.024,0,0.048,0.009,0.066,0.032C161.012,37.192,161.067,37.217,161.139,37.217C161.139,37.217,161.139,37.217,161.139,37.217z"
				/>
			<path fill="#FFFFFF" d="M160.406,37.779c-0.42,0.241-0.875,0.455-1.363,0.601c-0.474,0.141-0.962,0.209-1.441,0.209
				c-0.274,0-0.545-0.03-0.81-0.076c-0.143,0.18-0.269,0.375-0.354,0.602c-0.376,0.993-0.104,2.104-0.007,3.123
				c0.088,0.944,0.013,1.874-0.537,2.646c0.554-0.218,1.017-0.614,1.534-0.904c0.605-0.339,1.314-0.475,1.929-0.812
				c0.563-0.308,1.063-0.739,1.507-1.198c0.116-0.121,0.235-0.25,0.356-0.384c-0.035-0.035-0.074-0.065-0.106-0.103
				C160.182,40.392,160.196,38.914,160.406,37.779z"/>
			<path fill="#FFFFFF" d="M160.714,37.275c-0.68-0.638-1.057-1.227-1.186-1.855c-0.026-0.124-0.041-0.25-0.047-0.379
				c-1.137-0.663-2.404-1.333-3.755-1.064c-0.224,0.046-0.468,0.119-0.727,0.197c-0.764,0.231-1.619,0.488-2.271,0.085
				c0.194,0.599,0.498,1.202,0.9,1.799c0.458,0.675,0.964,1.217,1.509,1.607c0.566,0.406,1.204,0.629,2.015,0.703
				c1.443,0.131,2.676-0.439,3.66-1.075C160.782,37.304,160.746,37.305,160.714,37.275z"/>
			<path fill="#FFFFFF" d="M165.544,38.83c-0.873-1.045-2.146-1.592-3.408-2.093c-0.313,0.352-0.674,0.667-0.979,0.684
				c-0.009,0-0.018,0-0.024,0c-0.042,0-0.077-0.013-0.113-0.024c-0.119,0.078-0.242,0.154-0.367,0.23
				c-0.168,0.786-0.209,1.519-0.092,2.174c0.168,0.926,0.666,1.698,1.365,2.12c0.429,0.258,0.929,0.413,1.414,0.563
				c0.14,0.045,0.283,0.089,0.422,0.135c0.065,0.021,0.133,0.043,0.204,0.066c0.78,0.255,1.867,0.612,2.373,1.32
				c-0.016-0.466,0.016-0.931,0.047-1.386c0.021-0.298,0.044-0.607,0.05-0.911C166.465,40.541,166.165,39.573,165.544,38.83z"/>
		</g>
		<g>
			<path fill="#FFFFFF" d="M151.476,8.06c-0.767-0.05-1.547-0.212-2.314-0.142c-0.768,0.07-1.453,0.487-1.88,1.128
				c-0.749,1.125-0.45,2.996,0.178,3.742c1.523,0.731,3.229,0.187,4.455-0.795c0.661-0.53,1.167-1.159,1.514-1.936
				c0.32-0.717,0.509-1.483,0.707-2.241C153.297,8.117,152.349,8.118,151.476,8.06z"/>
			<path fill="#FFFFFF" d="M150.589,6.375c-0.076-0.673-0.254-1.357-0.527-1.981c-0.276,0.577-0.729,0.994-1.266,1.349
				c-0.309,0.202-0.632,0.38-0.943,0.578c-0.232,0.146-0.466,0.309-0.604,0.55c-0.088,0.148-0.131,0.314-0.151,0.484
				c0.185,0.38,0.327,0.78,0.423,1.188c0.375-0.385,0.861-0.66,1.437-0.746c0.514-0.078,1.032-0.033,1.551,0.024
				C150.655,7.363,150.64,6.831,150.589,6.375z"/>
			<path fill="#FFFFFF" d="M146.648,10.739c-0.002-0.757,0.272-1.499,0.751-2.056c-0.371-1.746-1.635-3.343-3.312-3.968
				c0.384,0.455,0.616,1.006,0.695,1.6c0.087,0.635,0.024,1.287-0.127,1.906c-0.154,0.639-0.504,1.234-0.486,1.906
				c0.04,1.424,1.372,2.456,2.731,2.46c0.008,0,0.01,0.005,0.017,0.006l0.073-0.337C146.775,11.782,146.649,11.264,146.648,10.739z"
				/>
		</g>
		<g>
			<path fill="#FFFFFF" d="M220.91,30.797c-1.521,0.268-2.227,2.168-2.243,3.845c0.051,0.003,0.135,0.006,0.24,0.006
				c0.66,0,2.315-0.13,3.405-1.349c0.826-0.925,1.161-2.285,0.997-4.044C223.035,29.639,222.247,30.562,220.91,30.797z"/>
			<path fill="#FFFFFF" d="M224.843,31.362c-0.497,0.422-1.128,0.657-1.689,0.786c-0.175,0.474-0.421,0.891-0.735,1.245
				c-0.96,1.071-2.328,1.328-3.136,1.382c-0.023,0.142-0.027,0.229-0.027,0.229C225.082,36.25,224.843,31.362,224.843,31.362z"/>
		</g>
		<g>
			<g>
				<path fill="#FFFFFF" d="M146.787,21.601c0.079-0.674,0.267-1.273,0.508-1.906c0.218-0.571,0.223-1.328-0.041-1.914
					c-0.109,0.563-0.593,1.094-0.976,1.444c-0.378,0.349-0.818,0.666-1.233,1.003c0.083,0.478,0.225,0.945,0.463,1.372
					c0.311,0.553,0.762,0.989,1.303,1.309C146.669,22.5,146.739,22.019,146.787,21.601z"/>
			</g>
			<path fill="#FFFFFF" d="M142.741,18.732c-0.139,1.168,0.235,2.35,0.7,3.413c0.17-0.639,0.565-1.167,1.048-1.618
				c0.793-0.739,1.842-1.279,2.406-2.234c0.185-0.309,0.322-0.691,0.196-1.047c-0.161-0.46-0.671-0.68-1.099-0.816
				c-0.033-0.01-0.043-0.037-0.037-0.063c-0.468-0.117-0.957-0.138-1.423,0.002C143.488,16.681,142.866,17.691,142.741,18.732z"/>
			<g>
				<path fill="#FFFFFF" d="M143.5,16.826c0.142-0.137,0.296-0.251,0.456-0.344c-0.03-0.02-0.061-0.038-0.092-0.054
					c-0.287-0.157-0.586-0.291-0.919-0.264c-0.54,0.046-1.015,0.415-1.374,0.796c-0.44,0.467-0.584,1.066-0.812,1.645
					c-0.176,0.445-0.498,0.785-0.819,1.128c0.441-0.126,0.903-0.175,1.355-0.267c0.549-0.113,1.008-0.346,1.33-0.793
					C142.715,17.983,142.981,17.327,143.5,16.826z"/>
			</g>
		</g>
	</g>
	<g id="Ramas_x5F_inferiores_4_">
		<path fill="#589283" d="M42.479,77.742c0,0,0.134,1.632,1.149,2.26c0.373-0.153,0.614-0.357,0.614-0.357
			c1.608-1.606-0.533-3.641-0.533-3.641c-1.501-1.256-1.395-2.38-1.395-2.38c-2.619,3.425-1.337,5.349-1.337,5.349
			c0.648,0.993,1.369,1.231,1.969,1.192C42.598,79.714,42.188,78.896,42.479,77.742z"/>
		<path fill="#589283" d="M55.37,71.717c0,0,0.196,2.359,1.661,3.266c0.54-0.222,0.889-0.516,0.889-0.516
			c2.323-2.323-0.772-5.263-0.772-5.263c-2.167-1.813-2.014-3.441-2.014-3.441c-3.784,4.951-1.931,7.732-1.931,7.732
			c0.935,1.435,1.977,1.777,2.845,1.723C55.545,74.565,54.952,73.385,55.37,71.717z"/>
		<path fill="#589283" d="M20.874,80.073c0,0,0.128,0.731-0.146,1.316c-0.266,0.56-1.509,2.882,1.499,3.322
			c0.297-0.82-0.23-1.844-0.23-1.844c0.717,0.694,0.742,1.461,0.682,1.892C22.825,84.63,24.893,82.711,20.874,80.073z"/>
		<path fill="#589283" d="M62.063,80.245c0,0-0.22-2.972-2.505-2.744c0,0-0.237,0.043-0.533,0.182
			c-0.008,0.021-0.012,0.037-0.02,0.06c-0.405,1.32,1.115,2.563,1.115,2.563c-1.448-0.545-1.728-1.75-1.782-2.142
			c-0.424,0.441-0.714,1.159-0.345,2.315c0,0,0.688,2.238,5.042,2.376C63.035,82.856,62.089,82.222,62.063,80.245z"/>
		<path fill="#589283" d="M23.075,87.692c0.198,0.349,0.518,1.147,0.001,2.12c0,0,0.225-1.385-0.547-2.017
			c-2.673,1.623-0.574,3.283-0.102,3.688c0.488,0.428,0.666,1.151,0.666,1.151C25.348,89.167,23.708,87.993,23.075,87.692z"/>
		<g>
			<path fill="#589283" d="M73.952,72.49c-2.11-0.207-5.246-0.063-7.231,0.278c-7.315,1.269-18.954,6.903-21.369,7.376
				c-0.856,0.175-2.779,0.994-5.05,1.123c-0.591,0.036-1.354-0.442-2.082-1.097c-0.638-0.577-2.84-2.827-3.658-5.13
				c-0.09,0.059-0.176,0.119-0.27,0.17c-0.218,0.115-0.448,0.215-0.685,0.286c0.848,2.289,3.135,4.564,3.985,5.361
				c1.26,1.178,1.563,1.083-0.034,1.778c-10.623,4.621-21.655,2.359-23.162,2.021c-3.201-0.724-6.144-3.482-8.115-3.938
				c-0.121-0.029-0.23-0.055-0.331-0.08c-0.014,0.432-0.068,0.912-0.178,1.444c6.168,5.967,21.398,4.761,26.876,3.609
				c1.552-0.328,9.991-2.522,11.491-3.051c0.374-0.13,4.095-1.599,4.376-1.702c-0.463,3.81-0.524,3.571-0.148,5.139
				c0.116,0.484,0.451,1.539,1.087,2.138c0.09,0.081,0.215,0.173,0.351,0.267c0.149-0.373,0.431-0.717,0.851-1.03
				c-0.397-0.318-0.876-0.818-1.021-1.164c-0.714-1.722-0.255-3.892,0.509-5.424c0.42-0.844,1.151-1.262,1.97-1.624
				c1.069-0.481,10.891-4.469,15.548-4.394c3.606,0.057,4.526,0.552,6.154,0.627c0.417,0.017,1.104-0.436,1.364-1.056
				C75.735,73.08,74.475,72.545,73.952,72.49z"/>
		</g>
	</g>
	<g id="Ramas_x5F_superiores_4_">
		<path fill="#589283" d="M198.513,29.284c0,0,0.163,0.884-0.176,1.597c-0.322,0.679-1.836,3.504,1.819,4.035
			c0.365-0.998-0.28-2.242-0.28-2.242c0.874,0.841,0.904,1.771,0.829,2.294C200.873,34.821,203.405,32.491,198.513,29.284z"/>
		<path fill="#589283" d="M172.626,16.802c0,0,0.138,1.486-1.844,3.146c0,0-2.83,2.691-0.705,4.814c0,0,0.319,0.269,0.813,0.472
			c1.342-0.832,1.521-2.988,1.521-2.988c0.381,1.527-0.161,2.607-0.623,3.203c0.795,0.052,1.747-0.26,2.605-1.574
			C174.393,23.876,176.089,21.327,172.626,16.802z"/>
		<path fill="#589283" d="M159.945,5.367c0,0,0.198,2.099-2.594,4.447c0,0-4.002,3.795-1.001,6.792c0,0,0.452,0.384,1.155,0.672
			c1.895-1.174,2.141-4.217,2.141-4.217c0.539,2.155-0.225,3.68-0.872,4.521c1.119,0.075,2.466-0.368,3.673-2.222
			C162.447,15.359,164.842,11.764,159.945,5.367z"/>
		<path fill="#589283" d="M157.023,23.68c-0.053-1.708-0.764-2.54-1.534-2.94c0.092,0.815-0.014,2.128-1.232,3.334
			c0,0,1.051-2.111,0.272-3.643c-0.579-0.09-1.032-0.02-1.032-0.02c-3.181,0.778-2.063,4.89-2.063,4.89
			c0.906,2.671-0.068,3.98-0.068,3.98C157.166,27.014,157.023,23.68,157.023,23.68z"/>
		<path fill="#589283" d="M219.506,35.051c-0.796,0.361-1.694,0.76-2.077,0.915c-0.029,0.015-0.06-0.132-0.029-0.149
			c0.402-0.25,0.904-0.711,1.302-1.172c-0.01,0-0.025-0.001-0.034-0.002c0.002-0.253,0.022-0.513,0.057-0.77
			c-0.545,0.342-1.184,0.756-1.265,0.796c-14.652,7.369-36.175-4.473-38.87-5.808c-0.198-0.097-0.423-0.272-0.201-0.321
			c2.206-0.488,5.69-3.75,7.116-6.518c-0.025,0.001-0.052-0.008-0.074-0.031c-0.262-0.26-0.48-0.685-0.597-0.933
			c-0.135-0.008-0.268-0.018-0.398-0.04c-0.176,0.336-0.347,0.62-0.483,0.775c-0.777,0.896-5.315,7.679-10.66,5.417
			c-1.306-0.552-2.495-1.276-3.745-1.966c-7.303-4.427-11.753-7.488-26.808-12.858c-13.134-4.682-31.95,0.538-34.925,2.014
			c-1.107,0.552-4.169,2.391-2.89,2.876c0.609,0.231,2.257-0.813,2.257-0.813c2.076-1.029,5.044-1.785,7.262-2.287
			c18.778-4.277,31.084,1.133,40.581,5.298c4.865,2.135,7.106,3.752,8.129,4.989c1.843,4.983,1.108,7.912,0.031,9.557
			c0.032,0.703-0.097,1.443-0.555,2.09c-0.1,0.139-0.225,0.305-0.363,0.472c0.123,0.048,0.245,0.098,0.37,0.148
			c4.675-3.036,2.495-11.633,2.495-11.633c0.915,0.503,1.991,1.091,2.871,1.589c1.352,0.755,1.284,1.336,1.743,1.875
			c0.371,0.431,1.083,0.563,1.127,0.353c0.063-0.335-0.192-0.916-0.226-1.155c0-0.032,0.033-0.057,0.061-0.043
			c0.417,0.225,2.758,1.625,5.833,2.897c3.463,1.437,7.755,2.868,9.774,3.721c8.471,3.56,19.597,4.144,21.47,4.119
			c5.938-0.083,11.673-1.816,14.794-3.491C221.83,35.227,220.832,35.301,219.506,35.051z"/>
		<path fill="#589283" d="M224.754,32.293c-0.118,0.602-0.396,1.38-1.036,1.982C224.878,33.474,225.322,32.745,224.754,32.293z"/>
	</g>
</g>
</svg>
