<?xml version="1.0" encoding="utf-8"?>
<!-- Generator: Adobe Illustrator 16.0.0, SVG Export Plug-In . SVG Version: 6.00 Build 0)  -->
<!DOCTYPE svg PUBLIC "-//W3C//DTD SVG 1.1//EN" "http://www.w3.org/Graphics/SVG/1.1/DTD/svg11.dtd">
<svg version="1.1" id="Layer_1" xmlns="http://www.w3.org/2000/svg" xmlns:xlink="http://www.w3.org/1999/xlink" x="0px" y="0px"
	 width="335px" height="95px" viewBox="0 0 335 95" enable-background="new 0 0 335 95" xml:space="preserve">
<g>
	<path fill="#FFFFFF" d="M190.885,0c3.141,3.247,5.027,7.4,5.027,11.929c0,10.389-9.922,18.811-22.162,18.811h-0.038
		c-0.007,0-0.013,0-0.02,0c-0.764-0.011-1.341,0-2.036,0.167c-1.223,0.296-2.327,0.985-3.193,1.94l-1.176,1.296l-0.633-0.734
		c-1.433-1.66-3.453-2.657-5.586-2.67c-0.014,0-0.027,0-0.042,0h-0.018h-0.082c-12.239,0-22.162-8.422-22.162-18.811
		c0-4.529,1.887-8.682,5.026-11.929c-9.207,2.284-15.935,9.5-15.935,18.053c0,10.12,9.415,18.37,21.216,18.791v0.02h12.823h10.885
		h12.823v-0.02c11.801-0.42,21.217-8.67,21.217-18.791C206.82,9.5,200.093,2.284,190.885,0"/>
	<path fill="#FFFFFF" d="M124.606,18.381c0-6.894,3.358-11.521,9.222-16.066c0.197-0.152,1.104-1.176,0.873-1.095
		c-8.704,3.049-14.659,9.526-14.659,17.116c0,7.847,6.1,14.083,15.275,16.974c0.08,0.026,0.127-0.095,0.053-0.137
		C128.673,31.399,124.606,25.557,124.606,18.381"/>
	<path fill="#FFFFFF" d="M210.07,18.561c0-6.895-3.359-11.52-9.223-16.066c-0.197-0.153-1.105-1.176-0.872-1.095
		c8.704,3.048,14.659,9.526,14.659,17.115c0,7.847-6.101,14.083-15.275,16.974c-0.081,0.026-0.128-0.094-0.054-0.137
		C206.003,31.579,210.07,25.736,210.07,18.561"/>
	<path fill="#FFFFFF" d="M154.951,23.556c-1.736,0.912-4.785-0.983-6.934-4.366c-1.063-1.674-1.741-3.463-1.955-4.956
		c-0.169-1.18-0.074-2.348,0.282-3.406c0.123-0.365,0.272-0.689,0.489-0.947c0.003-0.004,0.005-0.009,0.008-0.013
		c0.001-0.002,0.003-0.002,0.005-0.001c0.081-0.093,0.168-0.18,0.263-0.257c0.181-0.159,0.371-0.287,0.537-0.371
		c0.202-0.103,0.424-0.178,0.665-0.178c0.497,0,0.932,0.276,1.176,0.69c0.002,0.003,0.005,0.008,0.007,0.013
		c0.021,0.038,0.043,0.075,0.061,0.115c0.004,0.009,0.009,0.018,0.013,0.027c0.016,0.036,0.029,0.071,0.042,0.108
		c0.005,0.013,0.01,0.026,0.014,0.039c0.012,0.035,0.021,0.069,0.029,0.105c0.003,0.015,0.008,0.03,0.011,0.045
		c0.008,0.037,0.013,0.073,0.019,0.111c0.002,0.014,0.005,0.028,0.006,0.043c0.006,0.052,0.009,0.104,0.009,0.159
		c0,0.065-0.015,0.2-0.015,0.204c0,0.522,0.396,0.946,0.886,0.946c0.316,0,0.776-0.453,0.795-0.475
		c0.076-0.094,0.177-0.221,0.243-0.323c0.409-0.618,0.647-1.373,0.647-2.188c0-0.669-0.161-1.296-0.445-1.842
		c-0.824-1.707-2.51-2.878-4.457-2.878c-0.731,0-1.541,0.172-2.375,0.587c-3.229,1.604-4.225,7.095-2.084,12.709h-0.001
		c0.698,2.134,2.461,4.312,3.592,5.235c2.898,2.369,6.23,3.094,8.564,1.55c0.148-0.096,0.262-0.246,0.307-0.423
		c0.021-0.079,0.024-0.153-0.011-0.198C155.303,23.368,154.951,23.556,154.951,23.556"/>
	<path fill="#FFFFFF" d="M179.718,23.556c1.736,0.912,4.785-0.983,6.934-4.366c1.063-1.674,1.741-3.463,1.955-4.956
		c0.169-1.18,0.074-2.348-0.283-3.406c-0.123-0.365-0.271-0.689-0.489-0.947c-0.002-0.004-0.005-0.009-0.007-0.013
		c-0.002-0.002-0.003-0.002-0.005-0.001c-0.08-0.093-0.167-0.18-0.263-0.257c-0.181-0.159-0.371-0.287-0.537-0.371
		c-0.203-0.103-0.424-0.178-0.664-0.178c-0.497,0-0.933,0.276-1.177,0.69c-0.003,0.003-0.006,0.008-0.008,0.013
		c-0.021,0.038-0.041,0.075-0.061,0.115c-0.004,0.009-0.008,0.018-0.012,0.027c-0.016,0.036-0.029,0.071-0.043,0.108
		c-0.004,0.013-0.008,0.026-0.013,0.039c-0.012,0.035-0.021,0.069-0.029,0.105c-0.004,0.015-0.008,0.03-0.011,0.045
		c-0.008,0.037-0.014,0.073-0.019,0.111c-0.002,0.014-0.005,0.028-0.006,0.043c-0.006,0.052-0.009,0.104-0.009,0.159
		c0,0.065,0.014,0.2,0.014,0.204c0,0.522-0.396,0.946-0.884,0.946c-0.317,0-0.777-0.453-0.796-0.475
		c-0.076-0.094-0.177-0.221-0.244-0.323c-0.407-0.618-0.646-1.373-0.646-2.188c0-0.669,0.161-1.296,0.445-1.842
		c0.824-1.707,2.51-2.878,4.457-2.878c0.732,0,1.541,0.172,2.374,0.587c3.229,1.604,4.226,7.095,2.085,12.709l0,0
		c-0.697,2.134-2.461,4.312-3.591,5.235c-2.897,2.369-6.23,3.094-8.565,1.55c-0.147-0.096-0.261-0.246-0.306-0.423
		c-0.021-0.079-0.024-0.153,0.011-0.198C179.366,23.368,179.718,23.556,179.718,23.556"/>
	<path fill="#FFFFFF" d="M19.318,69.617v3.832c0,0.04-0.031,0.071-0.07,0.071H0.25c-0.04,0-0.071-0.032-0.071-0.071V48.072
		C0.179,48.033,0.21,48,0.25,48h18.487c0.039,0,0.071,0.032,0.071,0.071v2.18c0,0.951-0.771,1.723-1.724,1.723H4.989
		c-0.039,0-0.071,0.032-0.071,0.07v6.493c0,0.04,0.032,0.072,0.071,0.072h12.18c0.04,0,0.071,0.031,0.071,0.071v3.758
		c0,0.039-0.031,0.072-0.071,0.072H4.989c-0.039,0-0.071,0.031-0.071,0.07v6.894c0,0.04,0.032,0.072,0.071,0.072h14.259
		C19.287,69.546,19.318,69.578,19.318,69.617"/>
	<polygon fill="#FFFFFF" points="25.595,48.001 29.814,48.001 29.814,69.51 41.697,69.51 41.697,73.52 25.595,73.52 	"/>
	<path fill="#FFFFFF" d="M73.929,60.469h4.484V70.64c-1.313,1.045-2.844,1.847-4.594,2.406c-1.75,0.559-3.548,0.838-5.396,0.838
		c-2.601,0-4.945-0.565-7.036-1.695c-2.09-1.13-3.731-2.691-4.921-4.685c-1.191-1.992-1.787-4.241-1.787-6.744
		c0-2.503,0.596-4.751,1.787-6.745c1.189-1.992,2.837-3.554,4.939-4.684c2.103-1.13,4.466-1.696,7.091-1.696
		c2.139,0,4.083,0.353,5.833,1.057c1.75,0.706,3.22,1.738,4.411,3.099l-1.603,1.563c-0.727,0.71-1.868,0.833-2.692,0.238
		c-1.663-1.201-3.572-1.801-5.73-1.801c-1.799,0-3.396,0.378-4.793,1.13c-1.399,0.752-2.492,1.811-3.282,3.171
		c-0.79,1.361-1.185,2.917-1.185,4.667c0,1.701,0.395,3.233,1.185,4.593c0.79,1.361,1.883,2.431,3.282,3.208
		c1.396,0.779,2.981,1.167,4.757,1.167c1.992,0,3.742-0.438,5.249-1.313V60.469z"/>
	<path fill="#FFFFFF" d="M100.733,72.646l-4.604-6.599c-0.218,0.024-0.547,0.037-0.984,0.037h-5.76v7.437h-4.74V48.001h10.5
		c2.212,0,4.138,0.364,5.778,1.094c1.642,0.729,2.898,1.774,3.773,3.136c0.875,1.36,1.313,2.977,1.313,4.847
		c0,1.921-0.468,3.573-1.403,4.958c-0.937,1.386-2.278,2.418-4.028,3.098l5.869,8.386h-4.038
		C101.742,73.52,101.115,73.193,100.733,72.646 M99.63,53.323c-1.069-0.875-2.638-1.313-4.703-1.313h-5.541v10.171h5.541
		c2.065,0,3.634-0.443,4.703-1.33s1.604-2.145,1.604-3.774C101.233,55.451,100.699,54.198,99.63,53.323"/>
	<path fill="#FFFFFF" d="M127.847,67.614h-12.76l-2.516,5.906h-4.885L119.17,48h4.667l11.52,25.519h-3.585
		c-0.833,0-1.587-0.496-1.918-1.26L127.847,67.614z M126.279,63.896l-4.813-11.156l-4.775,11.156H126.279z"/>
	<path fill="#FFFFFF" d="M161.277,50.038V73.52h-3.901L143.304,56.24V73.52h-4.703V48h3.901l14.072,17.281V48h2.665
		C160.364,48,161.277,48.913,161.277,50.038"/>
	<path fill="#FFFFFF" d="M182.301,51.916h-6.106c-1.097,0-1.984-0.888-1.984-1.984v-3.173l0.111,0.07
		c0.396,0.251,0.856,1.036,1.325,1.036h19.122c0.479,0,0.944-0.812,1.322-1.106v3.234c0,1.062-0.861,1.923-1.924,1.923H188
		l-0.455,21.735h-4.79L182.301,51.916z"/>
	<path fill="#FFFFFF" d="M204.269,72.306c-2.112-1.143-3.77-2.726-4.973-4.752c-1.203-2.025-1.806-4.292-1.806-6.796
		c0-2.506,0.603-4.77,1.806-6.796s2.86-3.61,4.973-4.752c2.112-1.142,4.481-1.713,7.11-1.713c2.627,0,4.996,0.571,7.109,1.713
		c2.111,1.142,3.77,2.72,4.973,4.734s1.806,4.286,1.806,6.815c0,2.53-0.603,4.801-1.806,6.815c-1.203,2.015-2.861,3.591-4.973,4.734
		c-2.113,1.142-4.482,1.713-7.109,1.713C208.75,74.02,206.381,73.448,204.269,72.306 M216.021,68.659
		c1.374-0.773,2.455-1.854,3.241-3.242s1.179-2.941,1.179-4.66s-0.393-3.272-1.179-4.66s-1.867-2.468-3.241-3.243
		c-1.376-0.773-2.923-1.16-4.642-1.16c-1.72,0-3.267,0.387-4.642,1.16c-1.376,0.774-2.456,1.855-3.242,3.243
		s-1.179,2.941-1.179,4.66s0.393,3.273,1.179,4.66s1.866,2.468,3.242,3.242c1.375,0.773,2.922,1.16,4.642,1.16
		C213.098,69.819,214.645,69.433,216.021,68.659"/>
	<path fill="#FFFFFF" d="M246.599,72.757l-4.645-6.658c-0.222,0.024-0.554,0.036-0.995,0.036h-5.82v7.515h-4.789V47.864h10.609
		c2.234,0,4.181,0.369,5.839,1.105c1.658,0.737,2.929,1.793,3.813,3.168c0.885,1.376,1.326,3.009,1.326,4.899
		c0,1.94-0.473,3.61-1.418,5.01c-0.946,1.399-2.303,2.444-4.071,3.131l5.932,8.472h-4.067
		C247.629,73.65,246.989,73.317,246.599,72.757 M245.49,53.242c-1.081-0.884-2.665-1.327-4.752-1.327h-5.6v10.278h5.6
		c2.087,0,3.671-0.448,4.752-1.344c1.081-0.897,1.621-2.167,1.621-3.813C247.111,55.392,246.571,54.126,245.49,53.242"/>
	<path fill="#FFFFFF" d="M276.618,69.635v4.015h-19.34V47.864h18.823v2.378c0,0.904-0.733,1.637-1.638,1.637h-12.397v6.705h12.451
		v3.941h-12.451v7.11H276.618z"/>
	<path fill="#FFFFFF" d="M298.202,72.749l-4.617-6.618c-0.014-0.021-0.034-0.031-0.059-0.028c-0.221,0.022-0.54,0.033-0.958,0.033
		h-5.753c-0.036,0-0.067,0.03-0.067,0.068v7.38c0,0.038-0.031,0.067-0.067,0.067h-4.653c-0.038,0-0.068-0.03-0.068-0.067V47.932
		c0-0.038,0.03-0.068,0.068-0.068h10.541c2.234,0,4.181,0.369,5.838,1.105c1.659,0.737,2.93,1.793,3.813,3.168
		c0.884,1.376,1.326,3.009,1.326,4.899c0,1.94-0.474,3.61-1.418,5.01c-0.933,1.378-2.263,2.413-3.991,3.099
		c-0.041,0.017-0.056,0.065-0.031,0.101l5.808,8.297c0.032,0.045-0.001,0.106-0.056,0.106h-3.927
		C299.241,73.65,298.596,73.313,298.202,72.749 M297.099,53.242c-1.08-0.884-2.664-1.327-4.752-1.327h-5.531
		c-0.036,0-0.067,0.03-0.067,0.068v10.143c0,0.038,0.031,0.067,0.067,0.067h5.531c2.088,0,3.672-0.448,4.752-1.344
		c1.082-0.897,1.621-2.167,1.621-3.813C298.72,55.392,298.181,54.126,297.099,53.242"/>
	<path fill="#FFFFFF" d="M313.823,72.306c-2.113-1.143-3.771-2.726-4.974-4.752c-1.203-2.025-1.805-4.292-1.805-6.796
		c0-2.506,0.602-4.77,1.805-6.796s2.86-3.61,4.974-4.752c2.111-1.142,4.482-1.713,7.109-1.713c2.628,0,4.998,0.571,7.11,1.713
		c2.111,1.142,3.77,2.72,4.973,4.734s1.806,4.286,1.806,6.815c0,2.53-0.603,4.801-1.806,6.815c-1.203,2.015-2.861,3.591-4.973,4.734
		c-2.112,1.142-4.482,1.713-7.11,1.713C318.306,74.02,315.935,73.448,313.823,72.306 M325.574,68.659
		c1.375-0.773,2.455-1.854,3.242-3.242s1.18-2.941,1.18-4.66s-0.393-3.272-1.18-4.66s-1.867-2.468-3.242-3.243
		c-1.375-0.773-2.923-1.16-4.642-1.16s-3.267,0.387-4.642,1.16c-1.375,0.774-2.456,1.855-3.241,3.243
		c-0.786,1.387-1.179,2.941-1.179,4.66s0.393,3.273,1.179,4.66c0.785,1.387,1.866,2.468,3.241,3.242s2.923,1.16,4.642,1.16
		S324.199,69.433,325.574,68.659"/>
	<path fill="#FFFFFF" d="M107.201,94.439c-0.678-0.373-1.209-0.888-1.593-1.544c-0.385-0.656-0.577-1.4-0.577-2.232
		c0-0.833,0.192-1.578,0.577-2.234c0.384-0.656,0.915-1.168,1.593-1.537c0.677-0.368,1.448-0.552,2.313-0.552
		c0.769,0,1.454,0.155,2.058,0.464c0.603,0.309,1.07,0.757,1.4,1.344l-1.168,0.752c-0.268-0.405-0.599-0.709-0.993-0.913
		c-0.395-0.203-0.833-0.304-1.313-0.304c-0.556,0-1.055,0.123-1.497,0.368s-0.79,0.595-1.04,1.048
		c-0.251,0.454-0.377,0.974-0.377,1.562c0,0.597,0.126,1.123,0.377,1.576c0.25,0.453,0.598,0.804,1.04,1.048
		c0.442,0.246,0.941,0.368,1.497,0.368c0.479,0,0.918-0.101,1.313-0.303c0.395-0.203,0.726-0.508,0.993-0.913l1.168,0.736
		c-0.33,0.586-0.798,1.038-1.4,1.353c-0.604,0.314-1.289,0.472-2.058,0.472C108.649,95,107.878,94.813,107.201,94.439"/>
	<path fill="#FFFFFF" d="M116.78,94.439c-0.672-0.373-1.198-0.888-1.577-1.544c-0.379-0.656-0.568-1.4-0.568-2.233
		c0-0.833,0.189-1.577,0.568-2.233c0.379-0.656,0.905-1.168,1.577-1.537c0.673-0.368,1.43-0.552,2.272-0.552
		s1.599,0.185,2.266,0.552c0.667,0.368,1.19,0.881,1.569,1.537c0.379,0.656,0.567,1.4,0.567,2.233c0,0.833-0.188,1.577-0.567,2.233
		c-0.379,0.657-0.902,1.172-1.569,1.544c-0.667,0.374-1.423,0.561-2.266,0.561S117.453,94.813,116.78,94.439 M120.518,93.279
		c0.433-0.251,0.771-0.604,1.018-1.057c0.245-0.453,0.367-0.973,0.367-1.561c0-0.586-0.122-1.107-0.367-1.561
		c-0.246-0.453-0.585-0.802-1.018-1.049c-0.432-0.245-0.92-0.368-1.465-0.368c-0.544,0-1.032,0.124-1.465,0.368
		c-0.432,0.247-0.773,0.596-1.023,1.049c-0.252,0.454-0.377,0.974-0.377,1.561c0,0.588,0.125,1.108,0.377,1.561
		c0.25,0.453,0.592,0.806,1.023,1.057c0.433,0.25,0.921,0.376,1.465,0.376C119.598,93.655,120.086,93.53,120.518,93.279"/>
	<path fill="#FFFFFF" d="M127.56,94.439c-0.678-0.373-1.209-0.888-1.593-1.544s-0.576-1.4-0.576-2.232
		c0-0.833,0.192-1.578,0.576-2.234c0.384-0.656,0.915-1.168,1.593-1.537c0.678-0.368,1.448-0.552,2.313-0.552
		c0.769,0,1.453,0.155,2.057,0.464s1.07,0.757,1.401,1.344l-1.169,0.752c-0.268-0.405-0.598-0.709-0.992-0.913
		c-0.396-0.203-0.833-0.304-1.313-0.304c-0.555,0-1.054,0.123-1.496,0.368c-0.443,0.246-0.79,0.595-1.041,1.048
		s-0.376,0.974-0.376,1.562c0,0.597,0.125,1.123,0.376,1.576s0.598,0.804,1.041,1.048c0.442,0.246,0.941,0.368,1.496,0.368
		c0.48,0,0.918-0.101,1.313-0.303c0.395-0.203,0.725-0.508,0.992-0.913l1.169,0.736c-0.331,0.586-0.798,1.038-1.401,1.353
		c-0.604,0.314-1.288,0.472-2.057,0.472C129.008,95,128.237,94.813,127.56,94.439"/>
	<path fill="#FFFFFF" d="M135.93,84.498c-0.196-0.191-0.296-0.426-0.296-0.704c0-0.278,0.1-0.516,0.296-0.712
		c0.197-0.197,0.446-0.296,0.744-0.296c0.3,0,0.547,0.093,0.745,0.28c0.197,0.187,0.296,0.419,0.296,0.697
		c0,0.288-0.099,0.53-0.296,0.728c-0.198,0.198-0.445,0.296-0.745,0.296C136.376,84.786,136.127,84.69,135.93,84.498 M135.906,86.42
		h1.537v8.484h-1.537V86.42z"/>
	<path fill="#FFFFFF" d="M148.063,87.276c0.635,0.625,0.952,1.54,0.952,2.745v4.882h-1.536v-4.706c0-0.822-0.198-1.44-0.593-1.856
		c-0.395-0.417-0.96-0.625-1.697-0.625c-0.831,0-1.488,0.242-1.968,0.728c-0.48,0.485-0.722,1.182-0.722,2.089v4.37h-1.536V86.42
		h1.473v1.28c0.31-0.438,0.729-0.773,1.257-1.009c0.527-0.234,1.129-0.352,1.801-0.352
		C146.571,86.339,147.427,86.651,148.063,87.276"/>
	<path fill="#FFFFFF" d="M158.241,87.204c0.625,0.576,0.937,1.436,0.937,2.576v5.124h-1.456v-1.121
		c-0.256,0.395-0.622,0.696-1.097,0.904C156.15,94.896,155.587,95,154.937,95c-0.949,0-1.711-0.229-2.281-0.688
		c-0.571-0.459-0.856-1.062-0.856-1.809s0.271-1.347,0.816-1.801c0.544-0.454,1.409-0.68,2.593-0.68h2.434v-0.304
		c0-0.661-0.192-1.169-0.577-1.521c-0.383-0.353-0.949-0.529-1.696-0.529c-0.502,0-0.992,0.083-1.473,0.248
		c-0.479,0.166-0.886,0.387-1.217,0.664l-0.64-1.152c0.438-0.352,0.96-0.622,1.568-0.808s1.254-0.281,1.938-0.281
		C156.719,86.339,157.618,86.627,158.241,87.204 M156.713,93.423c0.428-0.261,0.736-0.632,0.929-1.113v-1.184h-2.369
		c-1.302,0-1.953,0.438-1.953,1.313c0,0.427,0.166,0.763,0.496,1.008c0.331,0.247,0.79,0.37,1.377,0.37
		S156.286,93.685,156.713,93.423"/>
	<path fill="#FFFFFF" d="M174.929,83.025v11.878h-1.473v-1.345c-0.342,0.47-0.773,0.827-1.297,1.073
		c-0.522,0.246-1.099,0.369-1.729,0.369c-0.822,0-1.559-0.182-2.21-0.544c-0.651-0.362-1.16-0.873-1.528-1.528
		c-0.368-0.657-0.553-1.412-0.553-2.266c0-0.853,0.185-1.605,0.553-2.257c0.368-0.65,0.877-1.158,1.528-1.521
		c0.651-0.362,1.388-0.544,2.21-0.544c0.607,0,1.168,0.115,1.681,0.344c0.513,0.229,0.938,0.568,1.28,1.017v-4.675H174.929z
		 M172.015,93.279c0.438-0.251,0.779-0.604,1.025-1.057c0.245-0.453,0.368-0.973,0.368-1.561c0-0.586-0.123-1.107-0.368-1.561
		c-0.246-0.453-0.588-0.802-1.025-1.049c-0.438-0.245-0.923-0.368-1.456-0.368c-0.544,0-1.032,0.124-1.466,0.368
		c-0.432,0.247-0.772,0.596-1.023,1.049c-0.251,0.454-0.376,0.974-0.376,1.561c0,0.588,0.125,1.108,0.376,1.561
		s0.592,0.806,1.023,1.057c0.434,0.25,0.922,0.376,1.466,0.376C171.092,93.655,171.577,93.53,172.015,93.279"/>
	<path fill="#FFFFFF" d="M186.068,91.173h-6.884c0.096,0.748,0.424,1.348,0.985,1.801c0.56,0.454,1.257,0.68,2.089,0.68
		c1.013,0,1.83-0.341,2.448-1.024l0.849,0.993c-0.385,0.448-0.861,0.79-1.433,1.024c-0.57,0.234-1.208,0.353-1.913,0.353
		c-0.896,0-1.69-0.184-2.386-0.552c-0.692-0.368-1.229-0.883-1.607-1.544c-0.38-0.663-0.568-1.409-0.568-2.241
		c0-0.822,0.184-1.564,0.553-2.227c0.367-0.661,0.875-1.176,1.52-1.544c0.646-0.368,1.374-0.552,2.186-0.552
		s1.534,0.185,2.169,0.552c0.635,0.368,1.132,0.883,1.488,1.544c0.358,0.663,0.536,1.42,0.536,2.273
		C186.1,90.827,186.089,90.982,186.068,91.173 M180.058,88.308c-0.496,0.449-0.788,1.035-0.873,1.761h5.442
		c-0.085-0.715-0.376-1.299-0.872-1.752c-0.495-0.455-1.112-0.681-1.849-0.681S180.553,87.86,180.058,88.308"/>
	<rect x="188.82" y="83.025" fill="#FFFFFF" width="1.537" height="11.878"/>
	<path fill="#FFFFFF" d="M211.334,87.268c0.624,0.619,0.937,1.537,0.937,2.753v4.882h-1.537v-4.707c0-0.822-0.19-1.441-0.568-1.856
		c-0.38-0.417-0.92-0.625-1.625-0.625c-0.778,0-1.398,0.243-1.857,0.728c-0.459,0.486-0.688,1.182-0.688,2.089v4.37h-1.537v-4.707
		c0-0.822-0.189-1.441-0.568-1.856c-0.379-0.417-0.921-0.625-1.625-0.625c-0.779,0-1.397,0.243-1.856,0.728
		c-0.46,0.486-0.688,1.182-0.688,2.089v4.37h-1.537V86.42h1.473v1.264c0.31-0.438,0.716-0.771,1.217-1
		c0.502-0.229,1.073-0.345,1.713-0.345c0.661,0,1.248,0.134,1.761,0.4c0.513,0.268,0.907,0.657,1.185,1.169
		c0.32-0.49,0.767-0.875,1.338-1.153c0.569-0.277,1.213-0.417,1.929-0.417C209.863,86.339,210.709,86.649,211.334,87.268"/>
	<path fill="#FFFFFF" d="M221.48,87.204c0.624,0.576,0.937,1.436,0.937,2.576v5.124h-1.456v-1.121
		c-0.256,0.395-0.622,0.696-1.098,0.904c-0.475,0.208-1.037,0.312-1.688,0.312c-0.95,0-1.711-0.229-2.282-0.688
		s-0.856-1.062-0.856-1.809s0.272-1.347,0.817-1.801c0.544-0.454,1.408-0.68,2.593-0.68h2.433v-0.304
		c0-0.661-0.191-1.169-0.576-1.521c-0.384-0.353-0.95-0.529-1.696-0.529c-0.502,0-0.993,0.083-1.473,0.248
		c-0.48,0.166-0.886,0.387-1.217,0.664l-0.64-1.152c0.437-0.352,0.959-0.622,1.568-0.808c0.608-0.187,1.254-0.281,1.937-0.281
		C219.958,86.339,220.855,86.627,221.48,87.204 M219.952,93.423c0.427-0.261,0.736-0.632,0.928-1.113v-1.184h-2.369
		c-1.302,0-1.952,0.438-1.952,1.313c0,0.427,0.165,0.763,0.496,1.008c0.33,0.247,0.79,0.37,1.377,0.37
		S219.524,93.685,219.952,93.423"/>
	<path fill="#FFFFFF" d="M228.515,86.724c0.522-0.256,1.158-0.385,1.905-0.385v1.489c-0.087-0.01-0.203-0.016-0.354-0.016
		c-0.832,0-1.485,0.248-1.96,0.744c-0.476,0.497-0.713,1.204-0.713,2.121v4.227h-1.536v-8.484h1.473v1.426
		C227.597,87.354,227.992,86.98,228.515,86.724"/>
</g>
</svg>
