<?xml version="1.0" encoding="utf-8"?>
<!-- Generator: Adobe Illustrator 16.0.0, SVG Export Plug-In . SVG Version: 6.00 Build 0)  -->
<!DOCTYPE svg PUBLIC "-//W3C//DTD SVG 1.1//EN" "http://www.w3.org/Graphics/SVG/1.1/DTD/svg11.dtd">
<svg version="1.1" xmlns="http://www.w3.org/2000/svg" xmlns:xlink="http://www.w3.org/1999/xlink" x="0px" y="0px"
	 width="300.722px" height="165.166px" viewBox="0 0 300.722 165.166" enable-background="new 0 0 300.722 165.166"
	 xml:space="preserve">
<g id="Fondos">
	<g id="Logotipo_x5F_SantaMonica_6_">
		<g id="SantamonicaLogo_x5F_Taglie_6_">
			<g>
				<path fill="#FFFFFF" d="M3.896,145.549c0.585,0,1.201-0.015,1.867-0.034c0.657-0.022,1.281-0.047,1.857-0.074
					c0.582-0.03,1.082-0.059,1.496-0.077c0.415-0.023,0.667-0.034,0.772-0.034c0.347,0,0.524,0.186,0.524,0.566
					c0,0.158-0.024,0.487-0.067,0.991c-0.043,0.5-0.062,1.104-0.062,1.819H9.41c0-0.305-0.023-0.595-0.057-0.866
					c-0.034-0.267-0.109-0.5-0.219-0.701c-0.11-0.204-0.262-0.37-0.472-0.49c-0.2-0.123-0.471-0.189-0.823-0.189H3.896v6.905
					c0.48,0.071,0.967,0.123,1.452,0.161c0.486,0.039,0.972,0.059,1.473,0.059c0.504,0,1.014-0.059,1.519-0.163
					c0.509-0.112,0.943-0.328,1.31-0.642c0.071,0.07,0.138,0.171,0.205,0.305c0.062,0.128,0.1,0.271,0.1,0.434
					c0,0.381-0.208,0.69-0.633,0.947c-0.419,0.252-1.081,0.381-1.98,0.381c-0.595,0-1.177-0.047-1.738-0.133
					c-0.572-0.087-1.134-0.201-1.705-0.348v6.162c0,0.58,0.133,1.07,0.385,1.472c0.252,0.4,0.563,0.724,0.924,0.976
					c0.362,0.258,0.748,0.439,1.152,0.548c0.409,0.109,0.762,0.163,1.067,0.163c0.424,0,0.767-0.054,1.038-0.163
					c0.267-0.108,0.481-0.252,0.639-0.425c0.156-0.176,0.276-0.375,0.338-0.599c0.067-0.223,0.1-0.458,0.1-0.71
					c0-0.376-0.063-0.686-0.186-0.918c-0.124-0.243-0.314-0.468-0.576-0.667v-0.092c0.262-0.043,0.491-0.062,0.695-0.062
					c0.319,0,0.581,0.053,0.776,0.161c0.195,0.111,0.343,0.247,0.453,0.426c0.109,0.177,0.186,0.369,0.219,0.59
					c0.039,0.219,0.053,0.433,0.053,0.652c0.175,0,0.314,0.081,0.414,0.247c0.104,0.168,0.157,0.4,0.157,0.687
					c0,0.262-0.057,0.514-0.176,0.757c-0.114,0.234-0.305,0.443-0.557,0.628c-0.252,0.181-0.586,0.328-1,0.436
					c-0.415,0.108-0.919,0.161-1.515,0.161c-0.872,0-1.643-0.105-2.32-0.323c-0.671-0.22-1.299-0.458-1.881-0.705
					c-0.585-0.258-1.143-0.496-1.686-0.71c-0.547-0.221-1.124-0.329-1.733-0.329H0v-0.914c0.19,0,0.4-0.012,0.633-0.034
					c0.229-0.023,0.443-0.09,0.628-0.209c0.196-0.108,0.354-0.297,0.487-0.552c0.128-0.259,0.19-0.615,0.19-1.077v-12.197
					c0-0.347-0.062-0.624-0.19-0.824c-0.133-0.205-0.291-0.353-0.487-0.447c-0.185-0.09-0.399-0.157-0.628-0.186
					C0.4,146.254,0.19,146.244,0,146.244v-0.915c0.176,0,0.442,0.011,0.81,0.034c0.357,0.019,0.743,0.047,1.139,0.077
					c0.4,0.027,0.781,0.052,1.147,0.074C3.458,145.534,3.729,145.549,3.896,145.549z"/>
				<path fill="#FFFFFF" d="M16.141,160.79c0,0.294,0.043,0.528,0.137,0.718c0.096,0.189,0.209,0.344,0.348,0.457
					c0.138,0.115,0.296,0.2,0.48,0.254c0.182,0.052,0.357,0.07,0.529,0.07v0.652c-0.171,0-0.366-0.005-0.571-0.028
					c-0.214-0.024-0.438-0.046-0.667-0.077c-0.234-0.027-0.453-0.056-0.667-0.075c-0.205-0.019-0.4-0.033-0.577-0.033
					c-0.171,0-0.362,0.015-0.576,0.033c-0.209,0.02-0.433,0.048-0.662,0.075c-0.233,0.031-0.457,0.053-0.667,0.077
					c-0.21,0.023-0.405,0.028-0.577,0.028v-0.652c0.391,0,0.743-0.104,1.048-0.324c0.305-0.213,0.457-0.609,0.457-1.175v-11.279
					c0-0.538-0.009-0.986-0.037-1.342c-0.02-0.352-0.081-0.635-0.182-0.825c-0.105-0.2-0.247-0.332-0.433-0.413
					c-0.19-0.082-0.453-0.12-0.786-0.12v-0.548c0.362,0,0.68-0.019,0.948-0.062c0.267-0.043,0.509-0.109,0.724-0.201
					c0.219-0.085,0.418-0.185,0.605-0.304c0.181-0.109,0.371-0.233,0.575-0.367h0.549V160.79z"/>
				<path fill="#FFFFFF" d="M26.918,151.646c-0.396,0.175-0.757,0.263-1.091,0.263c-0.509,0-0.89-0.173-1.143-0.517
					c-0.252-0.343-0.381-0.728-0.381-1.161c-0.338,0-0.61-0.139-0.819-0.419c-0.209-0.276-0.314-0.651-0.314-1.13
					c0-0.652,0.2-1.204,0.595-1.651c0.405-0.452,0.919-0.824,1.538-1.115c0.624-0.29,1.32-0.501,2.082-0.633
					c0.756-0.124,1.504-0.195,2.228-0.195c0.71,0,1.329,0.052,1.853,0.157c0.524,0.101,1.006,0.214,1.448,0.333
					c0.443,0.129,0.868,0.238,1.277,0.338c0.4,0.101,0.862,0.153,1.372,0.153c0.276,0,0.562-0.019,0.866-0.068
					c0.31-0.038,0.605-0.118,0.896-0.228c0.291-0.104,0.558-0.258,0.795-0.443c0.239-0.19,0.438-0.428,0.601-0.719
					c0.2,0.147,0.386,0.324,0.552,0.533s0.252,0.462,0.252,0.752c0,0.115-0.02,0.239-0.057,0.367
					c-0.033,0.134-0.11,0.254-0.215,0.362c-0.109,0.108-0.262,0.2-0.448,0.271c-0.19,0.076-0.438,0.11-0.738,0.11
					c0,0.418-0.128,0.732-0.386,0.934c-0.253,0.209-0.595,0.304-1.034,0.304c-0.462,0-0.938-0.095-1.424-0.295
					c-0.485-0.196-1.014-0.405-1.581-0.638c-0.566-0.233-1.19-0.443-1.872-0.644c-0.686-0.195-1.448-0.294-2.286-0.294
					c-0.566,0-1.1,0.062-1.6,0.169c-0.5,0.121-0.943,0.306-1.329,0.549c-0.385,0.248-0.681,0.571-0.9,0.98
					c-0.219,0.404-0.334,0.9-0.334,1.482c0,0.709,0.152,1.214,0.458,1.514c0.31,0.295,0.686,0.449,1.138,0.449V151.646z
					 M30.033,150.774c0-2.221,1.071-3.335,3.219-3.335v0.2c-0.261,0-0.476,0.038-0.643,0.129c-0.167,0.091-0.294,0.204-0.381,0.362
					c-0.086,0.146-0.147,0.32-0.186,0.505c-0.039,0.193-0.053,0.394-0.053,0.608v11.283c0,0.348,0.067,0.629,0.21,0.828
					c0.138,0.199,0.305,0.354,0.5,0.446c0.196,0.092,0.4,0.159,0.628,0.184c0.224,0.032,0.425,0.047,0.596,0.047v0.909
					c-0.171,0-0.39-0.005-0.647-0.028c-0.267-0.024-0.534-0.046-0.81-0.077c-0.276-0.027-0.542-0.056-0.804-0.075
					c-0.258-0.019-0.477-0.033-0.653-0.033c-0.176,0-0.395,0.015-0.652,0.033c-0.262,0.02-0.529,0.048-0.805,0.075
					c-0.276,0.031-0.543,0.053-0.805,0.077c-0.262,0.023-0.481,0.028-0.657,0.028v-0.909c0.19,0,0.4-0.015,0.633-0.047
					c0.229-0.024,0.442-0.092,0.633-0.184c0.191-0.093,0.343-0.247,0.477-0.446c0.128-0.199,0.2-0.48,0.2-0.828V150.774z"/>
				<path fill="#FFFFFF" d="M40.244,160.79c0,0.294,0.047,0.528,0.137,0.718c0.1,0.189,0.21,0.344,0.353,0.457
					c0.138,0.115,0.295,0.2,0.477,0.254c0.181,0.052,0.362,0.07,0.533,0.07v0.652c-0.171,0-0.362-0.005-0.571-0.028
					c-0.214-0.024-0.433-0.046-0.667-0.077c-0.238-0.027-0.452-0.056-0.667-0.075c-0.209-0.019-0.4-0.033-0.576-0.033
					c-0.172,0-0.362,0.015-0.577,0.033c-0.21,0.02-0.434,0.048-0.667,0.075c-0.228,0.031-0.453,0.053-0.662,0.077
					c-0.209,0.023-0.405,0.028-0.576,0.028v-0.652c0.39,0,0.738-0.104,1.043-0.324c0.305-0.213,0.462-0.609,0.462-1.175v-3.635
					c0-0.538-0.014-0.986-0.038-1.343c-0.019-0.354-0.082-0.633-0.181-0.825c-0.104-0.193-0.248-0.337-0.438-0.414
					c-0.19-0.085-0.453-0.118-0.781-0.118v-0.548c0.357,0,0.676-0.019,0.948-0.066c0.267-0.044,0.509-0.104,0.724-0.195
					c0.22-0.086,0.419-0.187,0.6-0.306c0.186-0.109,0.376-0.238,0.582-0.366h0.543v2.262c0.347-0.852,0.767-1.485,1.252-1.88
					c0.485-0.4,0.981-0.602,1.49-0.602c0.32,0,0.61,0.054,0.867,0.148c0.267,0.11,0.395,0.28,0.395,0.523
					c0.291,0,0.519,0.1,0.686,0.291c0.167,0.182,0.252,0.448,0.252,0.781c0,0.377-0.128,0.704-0.396,0.991
					c-0.257,0.28-0.695,0.48-1.305,0.599c0.062-0.218,0.086-0.438,0.086-0.656c0-0.521-0.115-0.904-0.357-1.154
					c-0.244-0.247-0.505-0.37-0.795-0.37c-0.233,0-0.477,0.118-0.73,0.362c-0.252,0.237-0.485,0.566-0.709,0.99
					c-0.214,0.418-0.396,0.909-0.534,1.469c-0.138,0.56-0.204,1.165-0.204,1.817V160.79z"/>
				<path fill="#FFFFFF" d="M54.465,160.79c0,0.294,0.043,0.528,0.139,0.718c0.095,0.189,0.208,0.344,0.352,0.457
					c0.134,0.115,0.295,0.2,0.477,0.254c0.18,0.052,0.357,0.07,0.533,0.07v0.652c-0.333,0-0.619-0.023-0.862-0.081
					c-0.238-0.062-0.528-0.09-0.857-0.09c-0.339,0-0.624,0.01-0.872,0.023c-0.247,0.015-0.538,0.066-0.871,0.147v-1.152
					c-0.338,0.382-0.733,0.72-1.2,1.016c-0.463,0.298-1.029,0.44-1.701,0.44c-0.532,0-1.024-0.07-1.466-0.212
					c-0.443-0.147-0.82-0.358-1.129-0.634c-0.314-0.272-0.557-0.605-0.733-0.992c-0.172-0.38-0.258-0.813-0.258-1.295
					c0-0.461,0.086-0.881,0.272-1.247c0.181-0.377,0.438-0.687,0.771-0.938c0.334-0.257,0.725-0.452,1.172-0.591
					c0.453-0.134,0.957-0.204,1.505-0.204c0.624,0,1.157,0.062,1.6,0.186c0.447,0.123,0.829,0.263,1.167,0.425v-0.806
					c0-0.376-0.024-0.753-0.077-1.134c-0.047-0.375-0.152-0.719-0.295-1.024c-0.147-0.305-0.353-0.547-0.629-0.737
					c-0.28-0.191-0.633-0.285-1.071-0.285c-0.187,0-0.396,0.022-0.62,0.065c-0.224,0.043-0.433,0.119-0.619,0.229
					c-0.185,0.108-0.347,0.258-0.48,0.438c-0.128,0.182-0.195,0.41-0.195,0.681c0,0.147,0.024,0.315,0.067,0.501
					c-0.219,0.119-0.457,0.176-0.72,0.176c-0.404,0-0.705-0.113-0.89-0.334c-0.191-0.228-0.286-0.485-0.286-0.775
					s0.1-0.548,0.295-0.772c0.196-0.224,0.477-0.339,0.838-0.339c0-0.161,0.071-0.294,0.215-0.413
					c0.147-0.119,0.343-0.204,0.576-0.271c0.243-0.068,0.505-0.115,0.795-0.144c0.295-0.029,0.59-0.044,0.896-0.044
					c0.653,0,1.238,0.076,1.752,0.229c0.52,0.153,0.953,0.414,1.31,0.787c0.353,0.365,0.624,0.861,0.814,1.477
					c0.19,0.618,0.286,1.399,0.286,2.342V160.79z M50.216,162.251c0.505,0,0.953-0.152,1.329-0.449
					c0.376-0.298,0.696-0.655,0.958-1.079v-2.177c-0.338-0.161-0.7-0.29-1.115-0.398c-0.404-0.111-0.814-0.163-1.213-0.163
					c-0.586,0-1.077,0.171-1.491,0.519c-0.415,0.348-0.624,0.845-0.624,1.481c0,0.667,0.195,1.209,0.59,1.633
					C49.045,162.041,49.564,162.251,50.216,162.251z"/>
				<path fill="#FFFFFF" d="M66.938,160.309c0,1.338,0.128,2.353,0.395,3.038c0.258,0.69,0.796,1.032,1.605,1.032
					c0.104,0,0.224-0.004,0.362-0.018c0.143-0.015,0.248-0.039,0.319-0.067l0.063,0.11c-0.186,0.305-0.448,0.504-0.771,0.608
					c-0.329,0.104-0.638,0.153-0.93,0.153c-0.562,0-1-0.119-1.314-0.371c-0.31-0.248-0.472-0.553-0.472-0.914
					c-0.414,0-0.719-0.154-0.89-0.453c-0.171-0.309-0.276-0.767-0.305-1.377c-0.495,0.48-0.999,0.801-1.533,0.963
					c-0.529,0.157-1.043,0.231-1.539,0.231c-0.781,0-1.472-0.126-2.067-0.385c-0.595-0.261-1.095-0.628-1.5-1.104
					c-0.41-0.471-0.714-1.033-0.914-1.687c-0.205-0.652-0.31-1.371-0.31-2.156c0-0.915,0.143-1.69,0.429-2.339
					c0.28-0.648,0.652-1.176,1.109-1.605c0.457-0.413,0.981-0.723,1.567-0.919c0.586-0.2,1.186-0.296,1.801-0.296
					c0.605,0,1.143,0.096,1.61,0.281c0.461,0.195,0.905,0.524,1.329,1.006v-4.421c0-0.537-0.01-0.984-0.034-1.343
					c-0.023-0.352-0.085-0.633-0.186-0.83c-0.1-0.189-0.248-0.332-0.438-0.408c-0.186-0.081-0.453-0.119-0.781-0.119v-0.657
					c0.362,0,0.671-0.019,0.924-0.062c0.252-0.043,0.486-0.109,0.685-0.201c0.206-0.085,0.396-0.185,0.567-0.304
					c0.172-0.109,0.362-0.233,0.567-0.367h0.653V160.309z M62.042,162.251c0.49,0,0.929-0.114,1.305-0.338
					c0.375-0.229,0.685-0.538,0.923-0.929c0.244-0.391,0.419-0.842,0.544-1.358c0.123-0.518,0.185-1.069,0.185-1.666
					c0-0.565-0.062-1.101-0.171-1.601c-0.119-0.5-0.3-0.948-0.542-1.328c-0.253-0.387-0.558-0.686-0.929-0.904
					c-0.367-0.22-0.819-0.33-1.338-0.33c-0.524,0-0.967,0.105-1.329,0.314c-0.367,0.215-0.652,0.505-0.872,0.876
					c-0.214,0.367-0.376,0.806-0.467,1.306c-0.094,0.5-0.142,1.043-0.142,1.62c0,0.57,0.048,1.114,0.128,1.639
					c0.091,0.518,0.243,0.98,0.462,1.381c0.219,0.399,0.51,0.714,0.867,0.957C61.033,162.127,61.49,162.251,62.042,162.251z"/>
				<path fill="#FFFFFF" d="M72.815,160.79c0,0.294,0.048,0.528,0.143,0.718s0.214,0.344,0.353,0.457
					c0.138,0.115,0.295,0.2,0.477,0.254c0.181,0.052,0.362,0.07,0.533,0.07v0.652c-0.171,0-0.366-0.005-0.571-0.028
					c-0.219-0.024-0.433-0.046-0.667-0.077c-0.238-0.027-0.453-0.056-0.667-0.075c-0.209-0.019-0.4-0.033-0.576-0.033
					c-0.177,0-0.367,0.015-0.577,0.033c-0.209,0.02-0.433,0.048-0.667,0.075c-0.233,0.031-0.452,0.053-0.661,0.077
					c-0.214,0.023-0.406,0.028-0.576,0.028v-0.652c0.39,0,0.738-0.104,1.043-0.324c0.304-0.213,0.462-0.609,0.462-1.175v-3.745
					c0-0.538-0.019-0.985-0.034-1.337c-0.024-0.358-0.09-0.636-0.185-0.829c-0.105-0.201-0.249-0.334-0.439-0.414
					c-0.19-0.081-0.452-0.119-0.781-0.119v-0.652c0.362,0,0.667-0.025,0.919-0.068c0.257-0.041,0.486-0.107,0.69-0.199
					c0.201-0.086,0.391-0.187,0.567-0.305c0.171-0.108,0.361-0.233,0.562-0.367h0.652V160.79z M70.357,149.535
					c0-0.438,0.153-0.806,0.458-1.1c0.305-0.301,0.667-0.452,1.091-0.452c0.418,0,0.777,0.151,1.076,0.452
					c0.3,0.294,0.448,0.662,0.448,1.1c0,0.433-0.147,0.799-0.448,1.096c-0.299,0.294-0.658,0.448-1.076,0.448
					c-0.424,0-0.786-0.154-1.091-0.448C70.51,150.334,70.357,149.968,70.357,149.535z"/>
				<path fill="#FFFFFF" d="M80.793,152.754c0.143,0,0.31,0.007,0.504,0.012c0.196,0.008,0.386,0.032,0.567,0.076
					c0.186,0.046,0.338,0.113,0.472,0.208c0.133,0.09,0.191,0.229,0.191,0.401c0.514,0,0.909,0.113,1.189,0.337
					c0.281,0.224,0.429,0.596,0.429,1.1c0,0.292-0.053,0.54-0.157,0.753c-0.1,0.209-0.233,0.381-0.39,0.509
					c-0.162,0.135-0.343,0.235-0.543,0.291c-0.21,0.066-0.405,0.105-0.61,0.105c-0.086,0-0.19-0.005-0.319-0.014
					c-0.125-0.005-0.224-0.025-0.315-0.053v-0.091c0.205-0.07,0.367-0.195,0.481-0.382c0.114-0.181,0.176-0.429,0.176-0.747
					c0-0.439-0.139-0.79-0.405-1.066c-0.271-0.281-0.714-0.415-1.319-0.415c-0.986,0-1.72,0.38-2.186,1.143
					c-0.472,0.762-0.709,1.796-0.709,3.101c0,1.382,0.252,2.43,0.748,3.148c0.504,0.72,1.233,1.081,2.196,1.081
					c0.69,0,1.224-0.186,1.6-0.558c0.367-0.37,0.61-0.903,0.723-1.6h0.091c0.186,0.071,0.376,0.181,0.567,0.339
					c0.186,0.146,0.281,0.395,0.281,0.724c0,0.6-0.314,1.095-0.948,1.495c-0.629,0.401-1.462,0.594-2.496,0.594
					c-0.695,0-1.338-0.104-1.934-0.309c-0.595-0.214-1.109-0.528-1.547-0.951c-0.434-0.419-0.777-0.954-1.025-1.611
					c-0.248-0.652-0.371-1.413-0.371-2.284c0-0.883,0.133-1.663,0.395-2.33c0.257-0.668,0.614-1.229,1.062-1.676
					c0.453-0.454,0.986-0.782,1.605-1C79.417,152.865,80.079,152.754,80.793,152.754z"/>
				<path fill="#FFFFFF" d="M89.084,160.79c0,0.294,0.053,0.528,0.143,0.718c0.096,0.189,0.209,0.344,0.348,0.457
					c0.138,0.115,0.3,0.2,0.48,0.254c0.181,0.052,0.357,0.07,0.534,0.07v0.652c-0.176,0-0.372-0.005-0.577-0.028
					c-0.209-0.024-0.433-0.046-0.667-0.077c-0.228-0.027-0.451-0.056-0.662-0.075c-0.209-0.019-0.404-0.033-0.576-0.033
					c-0.18,0-0.371,0.015-0.576,0.033c-0.214,0.02-0.433,0.048-0.667,0.075c-0.232,0.031-0.452,0.053-0.667,0.077
					c-0.21,0.023-0.4,0.028-0.576,0.028v-0.652c0.396,0,0.738-0.104,1.043-0.324c0.309-0.213,0.462-0.609,0.462-1.175v-3.745
					c0-0.538-0.009-0.985-0.033-1.337c-0.023-0.358-0.086-0.636-0.186-0.829c-0.1-0.201-0.249-0.334-0.434-0.414
					c-0.186-0.081-0.453-0.119-0.786-0.119v-0.652c0.366,0,0.671-0.025,0.924-0.068c0.252-0.041,0.486-0.107,0.685-0.199
					c0.206-0.086,0.396-0.187,0.567-0.305c0.171-0.108,0.362-0.233,0.567-0.367h0.652V160.79z M86.627,149.535
					c0-0.438,0.147-0.806,0.457-1.1c0.305-0.301,0.667-0.452,1.086-0.452c0.424,0,0.781,0.151,1.076,0.452
					c0.3,0.294,0.448,0.662,0.448,1.1c0,0.433-0.147,0.799-0.448,1.096c-0.295,0.294-0.652,0.448-1.076,0.448
					c-0.419,0-0.781-0.154-1.086-0.448C86.774,150.334,86.627,149.968,86.627,149.535z"/>
				<path fill="#FFFFFF" d="M97.1,163.245c-0.725,0-1.401-0.122-2.015-0.375c-0.619-0.254-1.157-0.613-1.624-1.081
					c-0.462-0.462-0.829-1.018-1.086-1.677c-0.268-0.652-0.395-1.386-0.395-2.199c0-0.824,0.127-1.56,0.395-2.196
					c0.257-0.638,0.624-1.181,1.086-1.624c0.467-0.443,1.005-0.776,1.624-1c0.614-0.224,1.29-0.339,2.015-0.339
					c0.709,0,1.376,0.115,2,0.339c0.628,0.224,1.171,0.557,1.639,1c0.461,0.443,0.824,0.986,1.081,1.624
					c0.268,0.637,0.4,1.372,0.4,2.196c0,0.828-0.133,1.566-0.4,2.224c-0.256,0.653-0.619,1.214-1.081,1.677
					c-0.467,0.466-1.01,0.818-1.639,1.066C98.477,163.128,97.809,163.245,97.1,163.245z M97.119,162.251
					c0.538,0,0.995-0.118,1.371-0.353c0.376-0.231,0.691-0.543,0.938-0.941c0.248-0.401,0.429-0.863,0.543-1.387
					c0.118-0.519,0.171-1.076,0.171-1.657c0-0.563-0.053-1.102-0.171-1.606c-0.115-0.514-0.296-0.952-0.543-1.319
					c-0.248-0.371-0.562-0.667-0.947-0.884c-0.381-0.215-0.843-0.325-1.381-0.325s-1.001,0.1-1.386,0.314
					c-0.381,0.215-0.7,0.505-0.943,0.872c-0.248,0.371-0.429,0.809-0.547,1.319c-0.115,0.509-0.172,1.052-0.172,1.629
					c0,0.581,0.058,1.139,0.172,1.657c0.118,0.523,0.299,0.985,0.558,1.387c0.252,0.398,0.571,0.71,0.956,0.941
					C96.124,162.133,96.585,162.251,97.119,162.251z"/>
				<path fill="#FFFFFF" d="M112.383,158.874c0-0.976-0.043-1.785-0.138-2.438c-0.1-0.656-0.238-1.176-0.424-1.567
					c-0.19-0.395-0.433-0.672-0.724-0.843c-0.286-0.166-0.618-0.247-0.995-0.247c-0.38,0-0.738,0.071-1.081,0.215
					c-0.343,0.148-0.643,0.376-0.905,0.685c-0.257,0.314-0.466,0.72-0.619,1.22c-0.152,0.501-0.228,1.101-0.228,1.802v3.091
					c0,0.294,0.046,0.528,0.137,0.718c0.095,0.189,0.214,0.344,0.353,0.457c0.138,0.115,0.296,0.2,0.477,0.254
					c0.186,0.052,0.362,0.07,0.538,0.07v0.652c-0.176,0-0.372-0.005-0.576-0.028c-0.214-0.024-0.434-0.046-0.667-0.077
					c-0.233-0.027-0.452-0.056-0.662-0.075c-0.214-0.019-0.405-0.033-0.582-0.033c-0.176,0-0.366,0.015-0.571,0.033
					c-0.214,0.02-0.438,0.048-0.667,0.075c-0.238,0.031-0.452,0.053-0.667,0.077c-0.21,0.023-0.4,0.028-0.576,0.028v-0.652
					c0.396,0,0.743-0.104,1.043-0.324c0.305-0.213,0.462-0.609,0.462-1.175v-3.635c0-0.538-0.015-0.986-0.033-1.343
					c-0.023-0.354-0.086-0.633-0.186-0.825c-0.104-0.193-0.249-0.337-0.438-0.414c-0.186-0.085-0.453-0.118-0.781-0.118v-0.548
					c0.362,0,0.676-0.019,0.947-0.066c0.267-0.044,0.51-0.104,0.729-0.195c0.22-0.086,0.414-0.187,0.595-0.306
					c0.186-0.109,0.376-0.238,0.582-0.366h0.543v1.524c0.276-0.514,0.657-0.93,1.147-1.252c0.481-0.331,1.063-0.492,1.729-0.492
					c1.433,0,2.496,0.438,3.177,1.307c0.681,0.876,1.023,2.319,1.023,4.334v2.285c0,0.29,0.048,0.532,0.143,0.721
					c0.095,0.189,0.21,0.336,0.348,0.46c0.138,0.115,0.3,0.195,0.481,0.247c0.181,0.054,0.362,0.077,0.533,0.077v0.757
					c-0.189,0-0.356-0.005-0.499-0.028c-0.148-0.024-0.296-0.043-0.448-0.065c-0.152-0.021-0.324-0.043-0.524-0.067
					c-0.196-0.02-0.433-0.033-0.705-0.033c-0.19,0-0.41,0.014-0.643,0.033c-0.243,0.024-0.524,0.08-0.862,0.161l-0.195-0.365
					c0.1-0.102,0.181-0.287,0.238-0.554c0.058-0.271,0.095-0.576,0.12-0.928c0.024-0.349,0.033-0.721,0.047-1.11
					C112.383,159.588,112.383,159.221,112.383,158.874z"/>
				<path fill="#FFFFFF" d="M125.404,160.79c0,0.294,0.047,0.528,0.147,0.718c0.09,0.189,0.204,0.344,0.348,0.457
					c0.138,0.115,0.295,0.2,0.481,0.254c0.176,0.052,0.357,0.07,0.528,0.07v0.652c-0.333,0-0.619-0.023-0.857-0.081
					c-0.243-0.062-0.528-0.09-0.862-0.09c-0.333,0-0.623,0.01-0.871,0.023c-0.248,0.015-0.534,0.066-0.876,0.147v-1.152
					c-0.329,0.382-0.728,0.72-1.191,1.016c-0.466,0.298-1.028,0.44-1.7,0.44c-0.538,0-1.028-0.07-1.472-0.212
					c-0.442-0.147-0.819-0.358-1.134-0.634c-0.309-0.272-0.551-0.605-0.724-0.992c-0.176-0.38-0.267-0.813-0.267-1.295
					c0-0.461,0.091-0.881,0.271-1.247c0.187-0.377,0.443-0.687,0.776-0.938c0.333-0.257,0.724-0.452,1.177-0.591
					c0.452-0.134,0.948-0.204,1.505-0.204c0.624,0,1.157,0.062,1.6,0.186c0.438,0.123,0.829,0.263,1.158,0.425v-0.806
					c0-0.376-0.019-0.753-0.071-1.134c-0.048-0.375-0.147-0.719-0.292-1.024c-0.147-0.305-0.356-0.547-0.633-0.737
					c-0.275-0.191-0.634-0.285-1.067-0.285c-0.19,0-0.4,0.022-0.624,0.065c-0.224,0.043-0.429,0.119-0.619,0.229
					c-0.19,0.108-0.348,0.258-0.476,0.438c-0.129,0.182-0.201,0.41-0.201,0.681c0,0.147,0.025,0.315,0.071,0.501
					c-0.219,0.119-0.461,0.176-0.719,0.176c-0.41,0-0.705-0.113-0.895-0.334c-0.19-0.228-0.286-0.485-0.286-0.775
					s0.1-0.548,0.295-0.772c0.195-0.224,0.476-0.339,0.838-0.339c0-0.161,0.077-0.294,0.219-0.413
					c0.144-0.119,0.339-0.204,0.577-0.271c0.238-0.068,0.505-0.115,0.795-0.144c0.292-0.029,0.586-0.044,0.891-0.044
					c0.652,0,1.243,0.076,1.752,0.229c0.515,0.153,0.948,0.414,1.31,0.787c0.357,0.365,0.629,0.861,0.814,1.477
					c0.191,0.618,0.282,1.399,0.282,2.342V160.79z M121.161,162.251c0.509,0,0.948-0.152,1.329-0.449
					c0.376-0.298,0.7-0.655,0.953-1.079v-2.177c-0.329-0.161-0.7-0.29-1.105-0.398c-0.409-0.111-0.814-0.163-1.219-0.163
					c-0.581,0-1.081,0.171-1.491,0.519c-0.414,0.348-0.619,0.845-0.619,1.481c0,0.667,0.195,1.209,0.586,1.633
					C119.984,162.041,120.508,162.251,121.161,162.251z"/>
				<path fill="#FFFFFF" d="M131.2,160.79c0,0.294,0.042,0.528,0.138,0.718c0.096,0.189,0.215,0.344,0.353,0.457
					c0.133,0.115,0.295,0.2,0.476,0.254c0.186,0.052,0.357,0.07,0.534,0.07v0.652c-0.177,0-0.367-0.005-0.577-0.028
					c-0.214-0.024-0.429-0.046-0.662-0.077c-0.238-0.027-0.453-0.056-0.667-0.075c-0.209-0.019-0.404-0.033-0.576-0.033
					c-0.176,0-0.361,0.015-0.576,0.033c-0.214,0.02-0.434,0.048-0.667,0.075c-0.233,0.031-0.452,0.053-0.667,0.077
					c-0.204,0.023-0.399,0.028-0.575,0.028v-0.652c0.395,0,0.743-0.104,1.048-0.324c0.305-0.213,0.457-0.609,0.457-1.175v-11.279
					c0-0.538-0.01-0.986-0.029-1.342c-0.023-0.352-0.085-0.635-0.185-0.825c-0.105-0.2-0.248-0.332-0.439-0.413
					c-0.19-0.082-0.448-0.12-0.78-0.12v-0.548c0.362,0,0.676-0.019,0.943-0.062c0.271-0.043,0.514-0.109,0.733-0.201
					c0.214-0.085,0.409-0.185,0.595-0.304c0.181-0.109,0.376-0.233,0.576-0.367h0.548V160.79z"/>
				<path fill="#FFFFFF" d="M151.189,148.401c0,0.428-0.071,0.814-0.215,1.144c-0.146,0.322-0.342,0.596-0.581,0.814
					c-0.238,0.218-0.519,0.38-0.824,0.491c-0.314,0.108-0.638,0.161-0.971,0.161l-0.091-0.195c0.109-0.071,0.234-0.248,0.381-0.523
					c0.157-0.272,0.234-0.705,0.234-1.281c0-0.935-0.257-1.63-0.762-2.092c-0.51-0.466-1.311-0.699-2.397-0.699
					c-0.232,0-0.557,0.023-0.971,0.066c-0.415,0.042-0.829,0.161-1.243,0.347c-0.414,0.191-0.771,0.468-1.071,0.84
					c-0.311,0.366-0.463,0.89-0.463,1.556c0,0.61,0.133,1.125,0.404,1.548c0.268,0.421,0.62,0.79,1.058,1.11
					c0.434,0.32,0.928,0.605,1.49,0.85c0.557,0.246,1.129,0.494,1.72,0.741c0.591,0.247,1.162,0.51,1.719,0.795
					c0.563,0.282,1.053,0.614,1.492,1.011c0.438,0.394,0.791,0.861,1.057,1.404c0.272,0.544,0.405,1.196,0.405,1.948
					c0,0.814-0.152,1.523-0.456,2.124c-0.311,0.604-0.73,1.1-1.276,1.505c-0.543,0.401-1.196,0.695-1.958,0.891
					c-0.767,0.196-1.601,0.289-2.515,0.289c-0.162,0-0.396-0.003-0.7-0.019c-0.305-0.013-0.609-0.047-0.909-0.099
					c-0.311-0.049-0.572-0.125-0.8-0.223c-0.225-0.106-0.333-0.249-0.333-0.438c-0.424,0-0.8-0.078-1.134-0.229
					c-0.339-0.153-0.628-0.358-0.872-0.621c-0.249-0.262-0.438-0.567-0.566-0.928c-0.129-0.354-0.196-0.738-0.196-1.163
					c0-0.475,0.081-0.88,0.238-1.208c0.157-0.329,0.367-0.596,0.61-0.807c0.247-0.214,0.519-0.366,0.824-0.467
					c0.309-0.104,0.604-0.171,0.9-0.193l0.084,0.107c-0.084,0.116-0.156,0.254-0.209,0.416c-0.047,0.156-0.09,0.317-0.119,0.476
					c-0.028,0.157-0.047,0.313-0.052,0.468c-0.01,0.15-0.01,0.28-0.01,0.38c0,0.686,0.105,1.248,0.315,1.688
					c0.21,0.447,0.477,0.795,0.795,1.061c0.319,0.256,0.672,0.443,1.053,0.553c0.384,0.108,0.752,0.162,1.1,0.162
					c0.233,0,0.571-0.034,1.014-0.096c0.443-0.066,0.881-0.205,1.315-0.424c0.438-0.218,0.818-0.538,1.147-0.952
					c0.324-0.415,0.486-0.968,0.486-1.662c0-0.814-0.214-1.473-0.663-1.972c-0.442-0.501-0.995-0.93-1.667-1.286
					c-0.667-0.358-1.391-0.681-2.177-0.976c-0.785-0.306-1.51-0.663-2.177-1.077c-0.67-0.424-1.223-0.948-1.667-1.573
					c-0.447-0.622-0.662-1.437-0.662-2.437c0-0.972,0.205-1.767,0.614-2.372c0.418-0.609,0.929-1.081,1.539-1.404
					c0.609-0.329,1.258-0.553,1.948-0.667c0.695-0.115,1.319-0.177,1.886-0.177c1.439,0,2.153,0.291,2.153,0.875
					c0.31,0,0.624,0.034,0.948,0.106c0.329,0.076,0.624,0.199,0.886,0.386c0.262,0.18,0.472,0.428,0.643,0.737
					C151.108,147.502,151.189,147.906,151.189,148.401z"/>
				<path fill="#FFFFFF" d="M161.991,160.79c0,0.294,0.047,0.528,0.139,0.718c0.094,0.189,0.213,0.344,0.352,0.457
					c0.132,0.115,0.295,0.2,0.476,0.254c0.18,0.052,0.362,0.07,0.539,0.07v0.652c-0.339,0-0.625-0.023-0.862-0.081
					c-0.239-0.062-0.524-0.09-0.863-0.09c-0.333,0-0.624,0.01-0.867,0.023c-0.252,0.015-0.542,0.066-0.875,0.147v-1.152
					c-0.334,0.382-0.729,0.72-1.195,1.016c-0.466,0.298-1.029,0.44-1.696,0.44c-0.539,0-1.028-0.07-1.477-0.212
					c-0.438-0.147-0.82-0.358-1.129-0.634c-0.313-0.272-0.557-0.605-0.729-0.992c-0.18-0.38-0.261-0.813-0.261-1.295
					c0-0.461,0.091-0.881,0.272-1.247c0.18-0.377,0.437-0.687,0.771-0.938c0.336-0.257,0.723-0.452,1.175-0.591
					c0.448-0.134,0.953-0.204,1.505-0.204c0.62,0,1.157,0.062,1.6,0.186c0.439,0.123,0.829,0.263,1.163,0.425v-0.806
					c0-0.376-0.029-0.753-0.076-1.134c-0.054-0.375-0.148-0.719-0.292-1.024c-0.146-0.305-0.361-0.547-0.633-0.737
					c-0.275-0.191-0.629-0.285-1.066-0.285c-0.19,0-0.396,0.022-0.624,0.065c-0.224,0.043-0.428,0.119-0.614,0.229
					c-0.196,0.108-0.354,0.258-0.486,0.438c-0.124,0.182-0.196,0.41-0.196,0.681c0,0.147,0.024,0.315,0.072,0.501
					c-0.22,0.119-0.462,0.176-0.725,0.176c-0.406,0-0.705-0.113-0.89-0.334c-0.191-0.228-0.28-0.485-0.28-0.775
					s0.094-0.548,0.291-0.772c0.195-0.224,0.474-0.339,0.837-0.339c0-0.161,0.077-0.294,0.22-0.413
					c0.147-0.119,0.333-0.204,0.575-0.271c0.239-0.068,0.506-0.115,0.797-0.144c0.291-0.029,0.584-0.044,0.889-0.044
					c0.658,0,1.239,0.076,1.759,0.229c0.51,0.153,0.947,0.414,1.305,0.787c0.356,0.365,0.624,0.861,0.814,1.477
					c0.19,0.618,0.286,1.399,0.286,2.342V160.79z M157.743,162.251c0.51,0,0.947-0.152,1.329-0.449
					c0.376-0.298,0.7-0.655,0.958-1.079v-2.177c-0.334-0.161-0.701-0.29-1.11-0.398c-0.405-0.111-0.814-0.163-1.224-0.163
					c-0.578,0-1.076,0.171-1.486,0.519c-0.415,0.348-0.619,0.845-0.619,1.481c0,0.667,0.195,1.209,0.586,1.633
					C156.565,162.041,157.09,162.251,157.743,162.251z"/>
				<path fill="#FFFFFF" d="M173.05,153.717c-0.234,0-0.514,0.295-0.849,0.899c-0.333,0.6-0.818,1.448-1.456,2.539l-2.707,4.705
					h2.707c0.752,0,1.261-0.171,1.522-0.505c0.258-0.332,0.392-0.843,0.392-1.524c0.333,0.044,0.609,0.148,0.828,0.315
					c0.215,0.165,0.33,0.4,0.33,0.687c0,0.205-0.039,0.385-0.1,0.557c-0.068,0.165-0.158,0.252-0.272,0.252
					c0,0.291-0.057,0.52-0.177,0.69c-0.114,0.177-0.276,0.311-0.48,0.396c-0.201,0.086-0.444,0.143-0.729,0.178
					c-0.282,0.022-0.581,0.036-0.905,0.036h-3.763c-0.163,0-0.319-0.014-0.468-0.053c-0.156-0.037-0.271-0.161-0.341-0.38
					c-0.101,0.219-0.278,0.396-0.529,0.538c-0.253,0.133-0.515,0.198-0.776,0.198c-0.305,0-0.585-0.089-0.839-0.278
					c-0.256-0.187-0.381-0.425-0.381-0.716c0.214,0,0.429-0.019,0.643-0.057c0.21-0.033,0.439-0.153,0.671-0.354
					c0.243-0.194,0.525-0.505,0.844-0.919c0.318-0.424,0.694-1.01,1.127-1.766l2.963-5.096h-3.158c-0.357,0-0.68-0.006-0.957-0.02
					c-0.276-0.02-0.509-0.062-0.696-0.143c-0.19-0.077-0.337-0.215-0.438-0.396c-0.1-0.181-0.153-0.433-0.153-0.771
					c0.134,0.104,0.343,0.166,0.644,0.195c0.295,0.032,0.742,0.048,1.338,0.048h6.163V153.717z"/>
				<path fill="#FFFFFF" d="M180.436,163.245c-0.729,0-1.4-0.122-2.019-0.375c-0.615-0.254-1.153-0.613-1.625-1.081
					c-0.463-0.462-0.825-1.018-1.081-1.677c-0.267-0.652-0.396-1.386-0.396-2.199c0-0.824,0.129-1.56,0.396-2.196
					c0.256-0.638,0.618-1.181,1.081-1.624c0.471-0.443,1.009-0.776,1.625-1c0.618-0.224,1.29-0.339,2.019-0.339
					c0.706,0,1.377,0.115,2.001,0.339c0.624,0.224,1.171,0.557,1.633,1c0.463,0.443,0.829,0.986,1.086,1.624
					c0.267,0.637,0.395,1.372,0.395,2.196c0,0.828-0.128,1.566-0.395,2.224c-0.257,0.653-0.623,1.214-1.086,1.677
					c-0.461,0.466-1.009,0.818-1.633,1.066C181.813,163.128,181.142,163.245,180.436,163.245z M180.455,162.251
					c0.539,0,0.996-0.118,1.367-0.353c0.381-0.231,0.696-0.543,0.943-0.941c0.244-0.401,0.43-0.863,0.543-1.387
					c0.119-0.519,0.172-1.076,0.172-1.657c0-0.563-0.054-1.102-0.172-1.606c-0.113-0.514-0.299-0.952-0.543-1.319
					c-0.247-0.371-0.562-0.667-0.947-0.884c-0.391-0.215-0.848-0.325-1.381-0.325c-0.538,0-1,0.1-1.386,0.314
					c-0.385,0.215-0.705,0.505-0.949,0.872c-0.242,0.371-0.428,0.809-0.547,1.319c-0.108,0.509-0.17,1.052-0.17,1.629
					c0,0.581,0.062,1.139,0.17,1.657c0.12,0.523,0.305,0.985,0.558,1.387c0.252,0.398,0.575,0.71,0.962,0.941
					C179.456,162.133,179.917,162.251,180.455,162.251z M181.173,147.421c0.072-0.086,0.162-0.158,0.273-0.196
					c0.108-0.042,0.218-0.071,0.336-0.071c0.144,0,0.277,0.054,0.401,0.147c0.123,0.092,0.185,0.229,0.185,0.4
					c0,0.232-0.071,0.424-0.219,0.567c0.076,0.091,0.11,0.195,0.11,0.329c0,0.157-0.048,0.309-0.153,0.456
					c-0.066,0.101-0.176,0.19-0.305,0.28c-0.127,0.092-0.294,0.201-0.499,0.325c-0.2,0.133-0.448,0.295-0.729,0.481
					c-0.286,0.19-0.609,0.443-0.967,0.767c-0.119,0.099-0.256,0.147-0.414,0.147c-0.116,0-0.234-0.043-0.348-0.13
					c-0.134-0.099-0.195-0.247-0.195-0.438c0-0.114,0.037-0.229,0.129-0.347c0.333-0.391,0.595-0.753,0.78-1.087
					c0.19-0.333,0.353-0.629,0.49-0.885c0.139-0.253,0.277-0.448,0.405-0.587c0.129-0.139,0.305-0.208,0.519-0.208
					C181.065,147.374,181.131,147.393,181.173,147.421z"/>
				<path fill="#FFFFFF" d="M195.72,158.874c0-0.976-0.049-1.785-0.139-2.438c-0.1-0.656-0.244-1.176-0.424-1.567
					c-0.195-0.395-0.433-0.672-0.724-0.843c-0.291-0.166-0.623-0.247-1-0.247c-0.375,0-0.738,0.071-1.077,0.215
					c-0.342,0.148-0.643,0.376-0.904,0.685c-0.258,0.314-0.472,0.72-0.624,1.22c-0.147,0.501-0.229,1.101-0.229,1.802v3.091
					c0,0.294,0.048,0.528,0.143,0.718c0.089,0.189,0.209,0.344,0.347,0.457c0.139,0.115,0.301,0.2,0.482,0.254
					c0.181,0.052,0.355,0.07,0.533,0.07v0.652c-0.177,0-0.367-0.005-0.577-0.028c-0.209-0.024-0.434-0.046-0.667-0.077
					c-0.229-0.027-0.453-0.056-0.658-0.075c-0.219-0.019-0.405-0.033-0.581-0.033c-0.177,0-0.372,0.015-0.577,0.033
					c-0.214,0.02-0.434,0.048-0.667,0.075c-0.234,0.031-0.453,0.053-0.667,0.077c-0.205,0.023-0.401,0.028-0.577,0.028v-0.652
					c0.4,0,0.743-0.104,1.047-0.324c0.305-0.213,0.457-0.609,0.457-1.175v-3.635c0-0.538-0.01-0.986-0.033-1.343
					c-0.018-0.354-0.081-0.633-0.18-0.825c-0.11-0.193-0.252-0.337-0.438-0.414c-0.186-0.085-0.453-0.118-0.785-0.118v-0.548
					c0.366,0,0.676-0.019,0.947-0.066c0.267-0.044,0.51-0.104,0.734-0.195c0.214-0.086,0.414-0.187,0.595-0.306
					c0.181-0.109,0.376-0.238,0.576-0.366h0.543v1.524c0.281-0.514,0.657-0.93,1.147-1.252c0.486-0.331,1.063-0.492,1.729-0.492
					c1.438,0,2.497,0.438,3.183,1.307c0.68,0.876,1.023,2.319,1.023,4.334v2.285c0,0.29,0.048,0.532,0.144,0.721
					c0.09,0.189,0.205,0.336,0.342,0.46c0.143,0.115,0.301,0.195,0.481,0.247c0.181,0.054,0.361,0.077,0.534,0.077v0.757
					c-0.19,0-0.358-0.005-0.5-0.028c-0.147-0.024-0.295-0.043-0.442-0.065c-0.157-0.021-0.33-0.043-0.524-0.067
					c-0.195-0.02-0.433-0.033-0.709-0.033c-0.191,0-0.405,0.014-0.644,0.033c-0.238,0.024-0.524,0.08-0.862,0.161l-0.195-0.365
					c0.104-0.102,0.18-0.287,0.243-0.554c0.057-0.271,0.095-0.576,0.119-0.928c0.019-0.349,0.034-0.721,0.043-1.11
					C195.714,159.588,195.72,159.221,195.72,158.874z"/>
				<path fill="#FFFFFF" d="M215.665,160.309c0,1.338,0.134,2.353,0.391,3.038c0.261,0.69,0.8,1.032,1.615,1.032
					c0.1,0,0.219-0.004,0.357-0.018c0.137-0.015,0.243-0.039,0.319-0.067l0.062,0.11c-0.19,0.305-0.443,0.504-0.776,0.608
					c-0.324,0.104-0.634,0.153-0.923,0.153c-0.563,0-1.005-0.119-1.32-0.371c-0.31-0.248-0.467-0.553-0.467-0.914
					c-0.415,0-0.719-0.154-0.891-0.453c-0.17-0.309-0.275-0.767-0.304-1.377c-0.495,0.48-1.004,0.801-1.534,0.963
					c-0.528,0.157-1.038,0.231-1.538,0.231c-0.781,0-1.471-0.126-2.066-0.385c-0.596-0.261-1.096-0.628-1.505-1.104
					c-0.405-0.471-0.705-1.033-0.91-1.687c-0.204-0.652-0.309-1.371-0.309-2.156c0-0.915,0.144-1.69,0.429-2.339
					c0.281-0.648,0.654-1.176,1.109-1.605c0.458-0.413,0.981-0.723,1.567-0.919c0.586-0.2,1.186-0.296,1.795-0.296
					c0.611,0,1.149,0.096,1.615,0.281c0.463,0.195,0.904,0.524,1.328,1.006v-4.421c0-0.537-0.014-0.984-0.033-1.343
					c-0.023-0.352-0.085-0.633-0.185-0.83c-0.1-0.189-0.249-0.332-0.438-0.408c-0.185-0.081-0.452-0.119-0.781-0.119v-0.657
					c0.361,0,0.671-0.019,0.925-0.062c0.25-0.043,0.485-0.109,0.686-0.201c0.205-0.085,0.394-0.185,0.566-0.304
					c0.171-0.109,0.362-0.233,0.567-0.367h0.652V160.309z M210.764,162.251c0.497,0,0.934-0.114,1.311-0.338
					c0.375-0.229,0.685-0.538,0.922-0.929c0.243-0.391,0.425-0.842,0.544-1.358c0.124-0.518,0.186-1.069,0.186-1.666
					c0-0.565-0.062-1.101-0.176-1.601c-0.114-0.5-0.296-0.948-0.543-1.328c-0.248-0.387-0.552-0.686-0.924-0.904
					c-0.368-0.22-0.82-0.33-1.344-0.33c-0.518,0-0.962,0.105-1.328,0.314c-0.363,0.215-0.652,0.505-0.868,0.876
					c-0.214,0.367-0.375,0.806-0.472,1.306c-0.089,0.5-0.138,1.043-0.138,1.62c0,0.57,0.043,1.114,0.13,1.639
					c0.089,0.518,0.243,0.98,0.46,1.381c0.214,0.399,0.505,0.714,0.867,0.957C209.755,162.127,210.212,162.251,210.764,162.251z"/>
				<path fill="#FFFFFF" d="M223.309,162.276c0.214,0,0.435-0.031,0.653-0.082c0.218-0.048,0.422-0.144,0.619-0.281
					c0.2-0.142,0.381-0.339,0.543-0.59c0.17-0.259,0.317-0.591,0.448-1.015c0.337,0,0.613,0.081,0.828,0.238
					c0.219,0.162,0.324,0.41,0.324,0.743c0,0.304-0.095,0.581-0.286,0.828c-0.199,0.247-0.461,0.458-0.785,0.624
					c-0.328,0.163-0.706,0.291-1.138,0.377c-0.423,0.084-0.871,0.126-1.334,0.126c-0.799,0-1.505-0.122-2.114-0.375
					c-0.61-0.254-1.119-0.613-1.524-1.068s-0.719-1.012-0.923-1.665c-0.215-0.657-0.32-1.375-0.32-2.152
					c0-1.631,0.424-2.905,1.286-3.839c0.853-0.929,2.077-1.392,3.658-1.392c0.19,0,0.381,0.007,0.567,0.025
					c0.19,0.013,0.363,0.043,0.524,0.094c0.157,0.049,0.286,0.123,0.391,0.22c0.1,0.096,0.152,0.216,0.152,0.358
					c0.219,0,0.442,0.047,0.667,0.133c0.224,0.084,0.434,0.213,0.628,0.385c0.196,0.177,0.353,0.4,0.481,0.672
					c0.119,0.262,0.182,0.59,0.182,0.967c0,0.538-0.129,0.977-0.391,1.329c-0.258,0.348-0.591,0.628-0.99,0.839
					c-0.401,0.209-0.834,0.355-1.305,0.434c-0.472,0.086-0.919,0.117-1.339,0.117c-0.48,0-0.929-0.031-1.342-0.104
					c-0.41-0.074-0.763-0.161-1.054-0.262v0.087c0,0.609,0.048,1.174,0.153,1.699c0.1,0.52,0.266,0.967,0.491,1.338
					s0.518,0.663,0.89,0.867C222.32,162.165,222.771,162.276,223.309,162.276z M223.066,153.778c-0.781,0-1.387,0.282-1.805,0.848
					c-0.42,0.567-0.69,1.354-0.806,2.354c0.248,0.156,0.586,0.266,1.011,0.318c0.428,0.048,0.842,0.077,1.232,0.077
					c0.782,0,1.33-0.13,1.643-0.377c0.31-0.243,0.472-0.671,0.472-1.281c0-0.725-0.171-1.229-0.504-1.514
					C223.976,153.917,223.562,153.778,223.066,153.778z"/>
				<path fill="#FFFFFF" d="M240.055,154.412c0.17,0.115,0.428,0.252,0.762,0.408c0.333,0.164,0.776,0.244,1.329,0.244
					c0.681,0,1.214-0.144,1.61-0.424c0.394-0.285,0.686-0.634,0.879-1.038c0.197-0.405,0.32-0.834,0.373-1.28
					c0.048-0.453,0.076-0.839,0.076-1.158c0-0.519-0.052-1.082-0.152-1.676c-0.1-0.598-0.334-1.14-0.696-1.629
					c-0.362-0.502-0.9-0.911-1.6-1.234c-0.705-0.329-1.657-0.49-2.843-0.49c-1.015,0-1.876,0.128-2.583,0.391
					c-0.705,0.262-1.276,0.638-1.709,1.134c-0.432,0.495-0.748,1.104-0.947,1.837c-0.196,0.734-0.296,1.566-0.296,2.496
					c-0.186,0-0.391-0.039-0.614-0.108c-0.229-0.071-0.434-0.187-0.625-0.331c-0.19-0.146-0.347-0.323-0.475-0.541
					c-0.133-0.215-0.195-0.472-0.195-0.763c0-0.333,0.09-0.647,0.281-0.946c0.186-0.296,0.461-0.448,0.823-0.448
					c-0.114-0.087-0.19-0.229-0.224-0.435c-0.038-0.199-0.057-0.375-0.057-0.524c0-0.489,0.195-0.918,0.59-1.271
					c0.385-0.357,0.89-0.648,1.51-0.872c0.618-0.223,1.309-0.39,2.067-0.489c0.766-0.102,1.523-0.153,2.276-0.153
					c1.438,0,2.643,0.168,3.615,0.5c0.971,0.339,1.757,0.772,2.353,1.32c0.595,0.543,1.023,1.165,1.286,1.871
					c0.258,0.705,0.391,1.429,0.391,2.167c0,0.61-0.086,1.224-0.248,1.842c-0.171,0.615-0.433,1.169-0.795,1.654
					c-0.367,0.485-0.834,0.881-1.405,1.186c-0.577,0.304-1.262,0.456-2.058,0.456c-0.509,0-0.929-0.057-1.272-0.175
					c-0.343-0.114-0.613-0.262-0.818-0.434c-0.205-0.176-0.353-0.353-0.448-0.533c-0.095-0.182-0.146-0.339-0.161-0.467V154.412z
					 M239.665,160.527c0,0.348,0.066,0.629,0.205,0.828s0.305,0.354,0.5,0.446c0.195,0.092,0.41,0.159,0.633,0.184
					c0.224,0.032,0.424,0.047,0.601,0.047v0.909c-0.176,0-0.395-0.005-0.657-0.028c-0.262-0.024-0.529-0.046-0.801-0.077
					c-0.28-0.027-0.552-0.056-0.809-0.075c-0.261-0.019-0.481-0.033-0.658-0.033c-0.171,0-0.386,0.015-0.653,0.033
					c-0.256,0.02-0.523,0.048-0.798,0.075c-0.277,0.031-0.548,0.053-0.81,0.077c-0.263,0.023-0.482,0.028-0.653,0.028v-0.909
					c0.187,0,0.4-0.015,0.633-0.047c0.229-0.024,0.438-0.092,0.634-0.184c0.185-0.093,0.342-0.247,0.477-0.446
					c0.128-0.199,0.194-0.48,0.194-0.828v-8.619c0-0.541-0.009-0.986-0.033-1.344c-0.023-0.354-0.082-0.633-0.186-0.825
					c-0.1-0.194-0.247-0.332-0.433-0.418c-0.189-0.077-0.448-0.115-0.78-0.115v-0.762c0.356,0,0.676-0.024,0.941-0.063
					c0.272-0.047,0.51-0.113,0.733-0.199c0.215-0.091,0.415-0.191,0.596-0.305c0.181-0.115,0.377-0.238,0.581-0.372h0.543V160.527z"
					/>
				<path fill="#FFFFFF" d="M256.71,157.265c0-0.536-0.01-0.985-0.034-1.343c-0.023-0.352-0.081-0.634-0.186-0.83
					c-0.1-0.193-0.243-0.333-0.429-0.414c-0.194-0.075-0.452-0.113-0.785-0.113v-0.657c0.362,0,0.672-0.019,0.924-0.066
					c0.257-0.044,0.48-0.104,0.687-0.195c0.199-0.086,0.39-0.187,0.561-0.306c0.182-0.109,0.367-0.238,0.571-0.366h0.653v7.729
					c0,0.291,0.048,0.529,0.143,0.721c0.091,0.184,0.205,0.343,0.348,0.456c0.137,0.119,0.3,0.195,0.48,0.247
					c0.181,0.053,0.358,0.076,0.534,0.076v0.764c-0.333-0.045-0.619-0.081-0.862-0.119c-0.243-0.034-0.543-0.054-0.906-0.054
					c-0.495,0-0.986,0.047-1.48,0.147l-0.219-0.214v-1.22c-0.158,0.248-0.324,0.478-0.487,0.687c-0.166,0.21-0.366,0.391-0.6,0.548
					c-0.229,0.146-0.499,0.271-0.809,0.368c-0.305,0.093-0.667,0.135-1.086,0.135c-1.453,0-2.491-0.44-3.11-1.332
					c-0.629-0.895-0.958-2.191-0.981-3.892c-0.014-0.781-0.033-1.404-0.057-1.857c-0.024-0.456-0.075-0.81-0.162-1.047
					c-0.09-0.238-0.224-0.392-0.415-0.458c-0.19-0.062-0.457-0.095-0.805-0.095v-0.657c0.361,0,0.671-0.019,0.923-0.066
					c0.252-0.044,0.487-0.104,0.687-0.195c0.205-0.086,0.395-0.187,0.567-0.306c0.171-0.109,0.361-0.238,0.567-0.366h0.652v4.596
					c0,0.887,0.062,1.625,0.176,2.22c0.114,0.597,0.277,1.076,0.486,1.438c0.214,0.362,0.462,0.613,0.752,0.771
					c0.29,0.153,0.609,0.229,0.962,0.229c0.404,0,0.776-0.104,1.115-0.314c0.343-0.216,0.632-0.506,0.875-0.882
					c0.239-0.38,0.425-0.827,0.553-1.343c0.133-0.514,0.196-1.071,0.196-1.667V157.265z"/>
				<path fill="#FFFFFF" d="M266.616,162.276c0.22,0,0.438-0.031,0.657-0.082c0.219-0.048,0.423-0.144,0.619-0.281
					c0.201-0.142,0.381-0.339,0.548-0.59c0.167-0.259,0.314-0.591,0.443-1.015c0.334,0,0.61,0.081,0.829,0.238
					c0.218,0.162,0.328,0.41,0.328,0.743c0,0.304-0.099,0.581-0.296,0.828c-0.194,0.247-0.462,0.458-0.785,0.624
					c-0.324,0.163-0.7,0.291-1.133,0.377c-0.429,0.084-0.873,0.126-1.334,0.126c-0.805,0-1.509-0.122-2.115-0.375
					c-0.609-0.254-1.119-0.613-1.524-1.068c-0.409-0.455-0.718-1.012-0.922-1.665c-0.215-0.657-0.319-1.375-0.319-2.152
					c0-1.631,0.428-2.905,1.285-3.839c0.858-0.929,2.077-1.392,3.658-1.392c0.191,0,0.377,0.007,0.567,0.025
					c0.187,0.013,0.362,0.043,0.524,0.094c0.157,0.049,0.29,0.123,0.39,0.22c0.1,0.096,0.153,0.216,0.153,0.358
					c0.214,0,0.437,0.047,0.666,0.133c0.219,0.084,0.428,0.213,0.629,0.385c0.195,0.177,0.357,0.4,0.481,0.672
					c0.119,0.262,0.186,0.59,0.186,0.967c0,0.538-0.134,0.977-0.396,1.329c-0.261,0.348-0.59,0.628-0.99,0.839
					c-0.396,0.209-0.834,0.355-1.305,0.434c-0.477,0.086-0.919,0.117-1.338,0.117c-0.482,0-0.925-0.031-1.339-0.104
					c-0.415-0.074-0.771-0.161-1.058-0.262v0.087c0,0.609,0.047,1.174,0.152,1.699c0.1,0.52,0.267,0.967,0.491,1.338
					c0.224,0.371,0.524,0.663,0.891,0.867C265.626,162.165,266.082,162.276,266.616,162.276z M266.383,153.778
					c-0.787,0-1.392,0.282-1.81,0.848c-0.425,0.567-0.691,1.354-0.806,2.354c0.244,0.156,0.582,0.266,1.015,0.318
					c0.429,0.048,0.833,0.077,1.229,0.077c0.785,0,1.329-0.13,1.642-0.377c0.31-0.243,0.468-0.671,0.468-1.281
					c0-0.725-0.167-1.229-0.501-1.514C267.287,153.917,266.873,153.778,266.383,153.778z"/>
				<path fill="#FFFFFF" d="M275.004,162.941c-0.32-0.071-0.554-0.114-0.701-0.137c-0.144-0.024-0.314-0.034-0.518-0.034
					c-0.292,0-0.54,0.01-0.74,0.034c-0.205,0.022-0.391,0.043-0.557,0.065c-0.167,0.019-0.32,0.038-0.458,0.052
					c-0.133,0.015-0.295,0.02-0.472,0.02v-0.652c0.177,0,0.357-0.019,0.539-0.07c0.176-0.054,0.338-0.139,0.475-0.254
					c0.139-0.113,0.253-0.268,0.348-0.457s0.143-0.424,0.143-0.718v-8.602c0-1.19-0.009-2.134-0.028-2.835
					c-0.023-0.695-0.09-1.223-0.186-1.585c-0.105-0.362-0.254-0.596-0.438-0.7c-0.191-0.096-0.448-0.148-0.786-0.148v-0.657
					c0.361,0,0.671-0.019,0.928-0.062c0.254-0.043,0.482-0.109,0.687-0.201c0.204-0.085,0.39-0.185,0.567-0.304
					c0.17-0.109,0.362-0.233,0.562-0.367h0.657v9.169c0.375-0.553,0.819-0.98,1.338-1.286c0.514-0.31,1.162-0.458,1.948-0.458
					c0.667,0,1.281,0.115,1.853,0.339c0.563,0.224,1.053,0.549,1.467,0.98c0.415,0.429,0.734,0.958,0.972,1.587
					c0.233,0.633,0.348,1.353,0.348,2.167c0,0.813-0.12,1.557-0.362,2.224c-0.239,0.667-0.576,1.234-1.01,1.705
					c-0.438,0.477-0.952,0.844-1.544,1.104c-0.599,0.259-1.252,0.385-1.961,0.385c-1.367,0-2.392-0.509-3.071-1.543V162.941z
					 M275.004,158.004c0,0.566,0.061,1.1,0.186,1.609c0.123,0.51,0.309,0.957,0.556,1.348c0.243,0.395,0.563,0.699,0.948,0.929
					c0.38,0.224,0.833,0.338,1.357,0.338c0.567,0,1.029-0.134,1.381-0.391c0.357-0.267,0.643-0.591,0.848-0.991
					c0.215-0.399,0.358-0.847,0.438-1.342c0.081-0.492,0.119-0.978,0.119-1.457c0-1.378-0.253-2.439-0.758-3.168
					c-0.509-0.733-1.176-1.101-2.004-1.101c-0.377,0-0.753,0.081-1.115,0.247c-0.362,0.171-0.686,0.43-0.976,0.773
					c-0.291,0.352-0.529,0.791-0.71,1.318C275.093,156.65,275.004,157.279,275.004,158.004z"/>
				<path fill="#FFFFFF" d="M287.871,160.79c0,0.294,0.043,0.528,0.138,0.718c0.1,0.189,0.215,0.344,0.353,0.457
					c0.138,0.115,0.295,0.2,0.481,0.254c0.181,0.052,0.357,0.07,0.534,0.07v0.652c-0.176,0-0.366-0.005-0.576-0.028
					c-0.214-0.024-0.434-0.046-0.668-0.077c-0.232-0.027-0.452-0.056-0.666-0.075c-0.21-0.019-0.399-0.033-0.576-0.033
					c-0.171,0-0.362,0.015-0.576,0.033c-0.209,0.02-0.434,0.048-0.663,0.075c-0.232,0.031-0.456,0.053-0.666,0.077
					c-0.21,0.023-0.404,0.028-0.576,0.028v-0.652c0.39,0,0.743-0.104,1.048-0.324c0.299-0.213,0.457-0.609,0.457-1.175v-11.279
					c0-0.538-0.013-0.986-0.033-1.342c-0.018-0.352-0.086-0.635-0.186-0.825c-0.105-0.2-0.248-0.332-0.433-0.413
					c-0.19-0.082-0.452-0.12-0.786-0.12v-0.548c0.361,0,0.681-0.019,0.947-0.062c0.267-0.043,0.51-0.109,0.729-0.201
					c0.214-0.085,0.414-0.185,0.595-0.304c0.181-0.109,0.377-0.233,0.581-0.367h0.542V160.79z"/>
				<path fill="#FFFFFF" d="M299.178,160.79c0,0.294,0.042,0.528,0.137,0.718c0.096,0.189,0.21,0.344,0.349,0.457
					c0.137,0.115,0.295,0.2,0.48,0.254c0.177,0.052,0.357,0.07,0.533,0.07v0.652c-0.333,0-0.619-0.023-0.862-0.081
					c-0.238-0.062-0.524-0.09-0.856-0.09c-0.339,0-0.629,0.01-0.872,0.023c-0.248,0.015-0.54,0.066-0.872,0.147v-1.152
					c-0.334,0.382-0.734,0.72-1.201,1.016c-0.462,0.298-1.028,0.44-1.696,0.44c-0.538,0-1.029-0.07-1.472-0.212
					c-0.442-0.147-0.823-0.358-1.132-0.634c-0.311-0.272-0.554-0.605-0.729-0.992c-0.177-0.38-0.257-0.813-0.257-1.295
					c0-0.461,0.085-0.881,0.27-1.247c0.182-0.377,0.435-0.687,0.772-0.938c0.334-0.257,0.725-0.452,1.172-0.591
					c0.452-0.134,0.953-0.204,1.505-0.204c0.623,0,1.158,0.062,1.601,0.186c0.443,0.123,0.833,0.263,1.167,0.425v-0.806
					c0-0.376-0.024-0.753-0.077-1.134c-0.051-0.375-0.152-0.719-0.295-1.024c-0.143-0.305-0.357-0.547-0.633-0.737
					c-0.276-0.191-0.629-0.285-1.067-0.285c-0.185,0-0.395,0.022-0.619,0.065c-0.229,0.043-0.429,0.119-0.624,0.229
					c-0.185,0.108-0.348,0.258-0.476,0.438c-0.129,0.182-0.195,0.41-0.195,0.681c0,0.147,0.019,0.315,0.066,0.501
					c-0.218,0.119-0.461,0.176-0.718,0.176c-0.41,0-0.706-0.113-0.895-0.334c-0.187-0.228-0.282-0.485-0.282-0.775
					s0.101-0.548,0.295-0.772c0.195-0.224,0.472-0.339,0.839-0.339c0-0.161,0.071-0.294,0.213-0.413
					c0.148-0.119,0.339-0.204,0.578-0.271c0.242-0.068,0.505-0.115,0.795-0.144c0.29-0.029,0.591-0.044,0.896-0.044
					c0.652,0,1.238,0.076,1.752,0.229c0.52,0.153,0.953,0.414,1.31,0.787c0.352,0.365,0.624,0.861,0.808,1.477
					c0.197,0.618,0.292,1.399,0.292,2.342V160.79z M294.924,162.251c0.511,0,0.958-0.152,1.33-0.449
					c0.386-0.298,0.699-0.655,0.962-1.079v-2.177c-0.334-0.161-0.707-0.29-1.115-0.398c-0.406-0.111-0.81-0.163-1.215-0.163
					c-0.581,0-1.076,0.171-1.495,0.519c-0.41,0.348-0.619,0.845-0.619,1.481c0,0.667,0.195,1.209,0.585,1.633
					C293.754,162.041,294.277,162.251,294.924,162.251z"/>
			</g>
			<g>
				<path fill="#FFFFFF" d="M113.84,51.721c-0.086-0.291-0.343-0.639-1.138-0.639h-4.32c0.4-1.681,0.915-3.61,1.539-5.748
					c0.671-2.282,1.443-4.896,2.319-7.839c0.41-0.434,0.71-0.858,0.886-1.277c0.176-0.434,0.267-0.866,0.267-1.28
					c0-0.195-0.014-0.372-0.038-0.539c-0.09-0.49-0.3-0.866-0.614-1.1c-1.906-2.001-3.258-1.948-4.134-0.652
					c-0.376,0.553-0.643,1.258-0.781,2.057c-0.929,3.492-1.8,6.606-2.582,9.254c-0.461,1.543-0.881,3.02-1.281,4.43
					c-0.233,0.843-0.461,1.666-0.671,2.462c-0.547-0.047-0.976-0.114-1.291-0.214c-0.396-0.109-0.686-0.2-0.896-0.276
					c-0.195-0.058-0.353-0.124-0.476-0.182c-0.186-0.095-0.405-0.143-0.647-0.143c-0.71,0-1.2,0.376-1.381,1.062
					c-0.147,0.577-0.219,1.024-0.219,1.377c0,0.129,0.014,0.271,0.052,0.419c0.124,0.443,0.467,0.938,1.31,1.296
					c0.695,0.3,1.548,0.539,2.534,0.729c-0.882,3.191-1.567,6.154-2.039,8.815c-0.491,2.749-0.738,4.863-0.738,6.282
					c0,0.681,0.085,1.4,0.248,2.133c0.176,0.759,0.472,1.467,0.891,2.106c0.419,0.637,0.957,1.177,1.6,1.605
					c0.662,0.428,1.476,0.647,2.429,0.647c0.734,0,1.548-0.148,2.415-0.438c0.838-0.281,1.658-0.638,2.433-1.077
					c0.762-0.428,1.424-0.933,1.967-1.494c0.572-0.597,0.862-1.206,0.862-1.811c0-0.563-0.357-0.767-0.69-0.767
					c-0.405,0-0.771,0.057-1.086,0.162l-0.843,0.281c-0.276,0.09-0.571,0.181-0.896,0.274c-0.295,0.082-0.686,0.124-1.157,0.124
					c-0.863,0-1.506-0.323-1.953-0.999c-0.472-0.705-0.71-1.5-0.71-2.357c0-0.691,0.047-1.462,0.129-2.286
					c0.11-1.101,0.281-2.3,0.533-3.624c0.419-2.239,0.991-4.673,1.7-7.23c0.195-0.005,0.466-0.02,0.805-0.038
					c0.453-0.019,0.953-0.066,1.529-0.138c0.543-0.076,1.062-0.152,1.557-0.248c0.519-0.1,0.896-0.195,1.12-0.291
					c0.162-0.052,0.309-0.109,0.442-0.171c0.919-0.452,1.129-1.19,1.129-1.767l0,0l0,0C113.955,52.302,113.912,52.002,113.84,51.721
					z"/>
				<path fill="#FFFFFF" d="M34.319,48.624c-2.043-1.685-4.301-3.328-6.72-4.866c-2.381-1.52-4.62-3.162-6.649-4.892
					c-2.019-1.715-3.729-3.657-5.081-5.768c-1.348-2.091-2.03-4.587-2.03-7.425c0-2.248,0.419-4.387,1.243-6.363
					c0.824-1.977,1.957-3.724,3.358-5.205c1.395-1.471,3.053-2.629,4.924-3.458c1.867-0.818,3.9-1.233,6.043-1.233
					c2.353,0,4.51,0.367,6.415,1.091c1.901,0.724,3.534,1.767,4.877,3.11c1.339,1.343,2.4,2.994,3.153,4.92
					c0.749,1.918,1.128,4.114,1.128,6.524c0,1.324-0.299,2.634-0.896,3.887c-0.591,1.262-1.39,2.419-2.391,3.442
					c-0.991,1.015-2.134,1.828-3.396,2.43c-1.257,0.585-2.539,0.89-3.815,0.89c-0.095,0-0.323-0.014-0.847-0.08
					c-0.414-0.044-0.866-0.134-1.333-0.258c-0.467-0.119-0.967-0.271-1.472-0.452c-0.491-0.172-0.9-0.377-1.22-0.609l-0.09-0.063
					h-0.115c-1.362,0-1.647,0.567-1.647,1.034c0,0.776,0.276,1.386,0.824,1.814c0.495,0.381,1.096,0.676,1.772,0.866
					c0.657,0.181,1.338,0.305,2.024,0.358c0.676,0.052,1.228,0.075,1.643,0.075c2.248,0,4.368-0.447,6.297-1.338
					c1.929-0.882,3.625-2.087,5.048-3.572c1.424-1.49,2.558-3.258,3.372-5.264c0.819-1.999,1.238-4.129,1.238-6.314
					c0-2.957-0.52-5.491-1.533-7.535c-1.015-2.028-2.377-3.729-4.049-5.038c-1.671-1.305-3.6-2.257-5.729-2.829
					c-2.114-0.571-4.314-0.857-6.529-0.857c-3.053,0-6.078,0.591-8.997,1.758c-2.91,1.157-5.538,2.767-7.81,4.786
					c-2.268,2.015-4.129,4.43-5.53,7.178c-1.4,2.747-2.11,5.729-2.11,8.845c0,3.176,0.706,6,2.086,8.396
					c1.372,2.381,3.11,4.566,5.177,6.5c2.072,1.938,4.333,3.749,6.729,5.372c2.405,1.644,4.648,3.291,6.667,4.906
					c2.01,1.609,3.71,3.324,5.053,5.091c1.301,1.724,1.962,3.725,1.962,5.943c0,2.501-0.466,4.82-1.385,6.892
					c-0.929,2.077-2.21,3.892-3.806,5.391c-1.6,1.497-3.481,2.678-5.576,3.502c-2.11,0.823-4.368,1.248-6.72,1.248
					c-2.238,0-4.334-0.467-6.225-1.391c-1.886-0.92-3.416-2.357-4.559-4.301c-0.047-0.071-0.162-0.286-0.381-0.958
					c-0.176-0.533-0.39-1.08-0.628-1.644c-0.252-0.585-0.48-1.071-0.7-1.485c-0.219-0.414-0.5-0.834-0.886-0.834
					c-0.953,0-1.914,0.401-2.867,1.196c-0.981,0.804-1.477,1.709-1.477,2.686c0,1.819,0.562,3.392,1.662,4.682
					c1.067,1.253,2.411,2.306,3.982,3.12c1.562,0.804,3.243,1.409,5.01,1.8c1.771,0.386,3.348,0.585,4.681,0.585
					c3.049,0,6.163-0.536,9.264-1.594c3.095-1.058,5.92-2.592,8.411-4.56c2.482-1.961,4.539-4.403,6.115-7.247
					c1.59-2.862,2.396-6.121,2.396-9.702c0-2.824-0.724-5.334-2.138-7.458C38.143,52.259,36.391,50.334,34.319,48.624z"/>
				<path fill="#FFFFFF" d="M69.658,71.209c-0.338,0-0.624,0.053-0.847,0.173c-0.205,0.098-0.396,0.213-0.572,0.337
					c-0.147,0.104-0.319,0.195-0.524,0.28c-0.185,0.072-0.448,0.11-0.776,0.11c-0.424,0-0.757-0.11-0.991-0.324
					c-0.257-0.242-0.452-0.542-0.571-0.905c-0.133-0.395-0.224-0.823-0.262-1.289c-0.048-0.454-0.072-0.878-0.072-1.259
					c0-0.761,0.162-1.809,0.481-3.096c0.314-1.275,0.69-2.676,1.147-4.281c0.443-1.528,0.934-3.1,1.463-4.668
					c0.534-1.585,1.014-3.01,1.438-4.285c0.052-0.196,0.085-0.354,0.114-0.481c0.024-0.133,0.043-0.285,0.043-0.443v-0.004l0,0
					c0-0.425-0.205-0.639-0.447-0.719c-0.082-0.03-0.167-0.044-0.252-0.044c-1.344,0-2.32,0.086-2.986,0.257
					c-0.691,0.182-1.172,0.4-1.468,0.672c-0.314,0.281-0.504,0.581-0.562,0.887c-0.019,0.081-0.043,0.152-0.071,0.219
					c-0.034,0.062-0.072,0.124-0.119,0.167l-0.057,0.076l0,0v0.005c-0.015,0.022-0.019,0.057-0.038,0.089
					c-0.009,0.034-0.028,0.067-0.039,0.1c-0.014,0.072-0.028,0.149-0.033,0.229c-1.349,2.596-2.663,5.039-3.911,7.259
					c-0.91,1.633-1.8,3.12-2.652,4.453c-0.033,0.053-0.062,0.104-0.095,0.152c-0.296,0.457-0.582,0.89-0.867,1.31
					c-1.119,1.647-2.147,2.972-3.039,3.943c-1.043,1.119-1.671,1.352-2.019,1.352c-0.281,0-0.486-0.065-0.629-0.213
					c-0.176-0.167-0.314-0.387-0.409-0.648c-0.11-0.267-0.182-0.557-0.229-0.856c-0.043-0.301-0.062-0.567-0.062-0.787
					c0-1.723,0.328-3.471,0.986-5.21c0.667-1.757,1.51-3.424,2.519-4.948c0.734-1.124,1.534-2.167,2.381-3.125
					c0.014-0.018,0.028-0.042,0.047-0.056c0.286-0.329,0.581-0.643,0.881-0.948c0.266-0.266,0.528-0.524,0.791-0.771
					c0.776-0.733,1.509-1.357,2.2-1.857c0.21,0.257,0.563,0.472,1.167,0.472c0.4,0,0.839-0.076,1.296-0.224
					c0.442-0.147,0.866-0.353,1.262-0.596c0.396-0.248,0.725-0.515,0.977-0.791c0.295-0.324,0.442-0.671,0.442-1.038
					c0-0.485-0.152-0.78-0.447-0.882c-0.176-0.056-0.415-0.084-0.733-0.084c-0.496,0-0.982,0.023-1.462,0.062
					c-2.295,0.186-4.472,0.79-6.487,1.824c-2.429,1.252-4.553,2.909-6.325,4.934c-0.61,0.7-1.162,1.453-1.681,2.22
					c-0.991,1.452-1.839,3.02-2.496,4.695c-1.015,2.558-1.529,5.201-1.529,7.849c0,0.687,0.086,1.382,0.252,2.072
					c0.167,0.7,0.429,1.343,0.771,1.914c0.358,0.577,0.81,1.058,1.362,1.435c0.568,0.386,1.244,0.586,2.01,0.586
					c1.419,0,2.762-0.434,4.001-1.281c1.218-0.839,2.41-1.991,3.533-3.43c0.477-0.604,0.958-1.271,1.439-1.992
					c0.085-0.122,0.167-0.237,0.247-0.361c0.015-0.019,0.019-0.032,0.034-0.047c0.552-0.848,1.114-1.762,1.667-2.744
					c0.662-1.171,1.343-2.419,2.033-3.724c-0.195,0.781-0.39,1.567-0.576,2.357c-0.418,1.829-0.638,3.652-0.638,5.426
					c0,1.699,0.424,3.1,1.267,4.161c0.858,1.081,2.287,1.635,4.253,1.635c0.476,0,1.019-0.153,1.653-0.463
					c0.59-0.285,1.171-0.633,1.724-1.019c0.562-0.4,1.034-0.825,1.396-1.272c0.405-0.495,0.604-0.914,0.604-1.281
					c0-0.285-0.047-0.532-0.128-0.757C70.367,71.523,70.172,71.209,69.658,71.209z"/>
				<path fill="#FFFFFF" d="M96.585,71.785c-0.395-0.156-0.7-0.233-0.933-0.233c-0.4,0-0.762,0.12-1.077,0.348
					c-0.128,0.096-0.438,0.21-1.161,0.21c-0.548,0-0.943-0.152-1.195-0.468c-0.305-0.36-0.543-0.804-0.71-1.317
					c-0.176-0.534-0.276-1.096-0.3-1.692c-0.019-0.623-0.038-1.167-0.038-1.623c0-0.62,0.034-1.229,0.076-1.839
					c0.101-1.357,0.3-2.681,0.615-3.948c0.214-0.843,0.448-1.694,0.701-2.553c0.023-0.081,0.042-0.162,0.071-0.242
					c0.271-0.943,0.571-1.882,0.89-2.82c0.024-0.058,0.052-0.119,0.081-0.19c0.072-0.19,0.163-0.434,0.272-0.733
					c0.015-0.038,0.028-0.076,0.043-0.124l0.028-0.08c0.191-0.515,0.376-1.053,0.567-1.615c0.186-0.567,0.352-1.096,0.496-1.586
					c0.143-0.52,0.219-0.934,0.219-1.252c0-0.415-0.219-1.109-1.672-1.109c-1.429,0-2.382,0.146-2.906,0.466
					c-0.495,0.296-0.867,0.596-1.114,0.891c-0.128,0.129-0.205,0.281-0.228,0.452c-0.229,0.276-0.482,0.587-0.749,0.915
					c-0.342,0.419-0.709,0.881-1.109,1.386c-0.772,0.981-1.553,1.981-2.344,3.01c-0.771,0.996-1.524,2.001-2.243,2.977
					c-0.686,0.938-1.209,1.687-1.543,2.215c-0.372,0.558-0.843,1.272-1.4,2.129c-0.367,0.566-0.752,1.148-1.152,1.738
					c0.052-1.181,0.194-2.305,0.418-3.362c0.058-0.276,0.119-0.543,0.182-0.81c0.143-0.629,0.286-1.225,0.438-1.796
					c0.124-0.476,0.248-0.938,0.386-1.386c0.372-1.258,0.709-2.447,1.015-3.572c0.31-1.138,0.466-2.271,0.466-3.371
					c0-0.729-0.232-1.167-0.699-1.306c-0.343-0.104-0.639-0.157-0.9-0.157c-0.324,0-0.772,0.033-1.334,0.119
					c-0.19,0.023-0.396,0.063-0.614,0.096c-0.833,0.138-1.691,0.324-2.548,0.566c-0.219,0.062-0.428,0.124-0.633,0.191
					c-0.429,0.142-0.819,0.309-1.176,0.484c-0.152,0.072-0.301,0.148-0.438,0.229c-0.029,0.014-0.048,0.033-0.072,0.053
					c-0.662,0.4-1.005,0.871-1.005,1.399c0,1.334,0.867,1.534,1.391,1.534c0.381,0,0.709-0.077,0.967-0.22
					c0.161-0.085,0.328-0.129,0.499-0.129c0.282,0,0.448,0.105,0.558,0.353c0.143,0.334,0.214,0.652,0.214,0.982
					c0,0.475-0.114,1.228-0.342,2.3c-0.239,1.104-0.534,2.296-0.872,3.543c-0.348,1.305-0.705,2.668-1.076,4.092
					c-0.339,1.267-0.657,2.537-0.982,3.881c-0.094,0.377-0.214,0.853-0.347,1.434l-0.063,0.238c-0.119,0.5-0.238,0.986-0.362,1.473
					c-0.143,0.57-0.257,1.085-0.348,1.552c-0.1,0.471-0.148,0.818-0.148,1.049c0,0.552,0.162,0.923,0.496,1.104
					c0.262,0.143,0.624,0.22,1.104,0.22h1.115c0.406,0,0.791-0.053,1.162-0.162c0.243-0.081,0.643-0.344,1.538-1.672
					c0.625-0.914,1.277-1.947,2.001-3.158c0.734-1.215,1.362-2.328,1.929-3.404c0.582-1.092,0.985-1.844,1.243-2.301
					c0.029-0.076,0.086-0.205,0.215-0.424c0.109-0.205,0.28-0.49,0.523-0.886c0.419-0.672,0.934-1.462,1.534-2.372
					c0.286-0.428,0.591-0.876,0.914-1.334c0.024-0.033,0.043-0.062,0.067-0.09c0.314-0.452,0.647-0.914,0.995-1.391
					c0.405-0.538,0.81-1.063,1.224-1.567c-0.156,0.624-0.313,1.263-0.471,1.909c-0.276,1.153-0.524,2.325-0.733,3.478
					c-0.219,1.163-0.395,2.263-0.528,3.268c-0.143,1.038-0.214,1.942-0.214,2.7c0,0.962,0.047,1.91,0.143,2.829
					c0.095,0.971,0.329,1.861,0.69,2.663c0.376,0.823,0.928,1.499,1.647,2.019c0.738,0.533,1.738,0.805,2.967,0.805
					c0.49,0,1.11-0.101,1.839-0.295c0.713-0.186,1.405-0.452,2.051-0.795c0.653-0.335,1.21-0.691,1.701-1.081
					c0.553-0.443,0.828-0.934,0.828-1.463C97.323,72.266,96.919,71.923,96.585,71.785z"/>
				<path fill="#FFFFFF" d="M141.358,71.719c-0.113-0.328-0.399-0.51-0.78-0.51c-0.333,0-0.619,0.053-0.853,0.173
					c-0.201,0.094-0.385,0.208-0.571,0.341c-0.138,0.096-0.31,0.188-0.524,0.276c-0.186,0.072-0.448,0.11-0.771,0.11
					c-0.434,0-0.757-0.11-0.995-0.324c-0.257-0.237-0.448-0.542-0.571-0.905c-0.129-0.395-0.219-0.809-0.262-1.289
					c-0.043-0.449-0.067-0.868-0.067-1.259c0-0.758,0.162-1.795,0.476-3.096c0.333-1.333,0.719-2.771,1.153-4.281
					c0.447-1.567,0.942-3.134,1.461-4.668l1.439-4.291c0.047-0.19,0.085-0.343,0.114-0.476c0.023-0.133,0.038-0.285,0.038-0.443
					v-0.004l0,0c0-0.425-0.2-0.639-0.443-0.719c-0.085-0.03-0.167-0.044-0.252-0.044c-1.347,0-2.324,0.086-2.986,0.257
					c-0.69,0.182-1.177,0.4-1.466,0.672c-0.315,0.276-0.505,0.576-0.566,0.887c-0.02,0.085-0.044,0.156-0.073,0.219
					c-0.023,0.047-0.057,0.086-0.086,0.124c-0.009,0.014-0.014,0.027-0.027,0.038l-0.009,0.014l-0.058,0.076v0.005l0,0
					c-0.058,0.119-0.091,0.257-0.101,0.409c-1.343,2.591-2.657,5.03-3.904,7.259c-1.282,2.271-2.497,4.263-3.625,5.915
					c-1.124,1.652-2.148,2.981-3.039,3.943c-1.034,1.119-1.672,1.352-2.02,1.352c-0.276,0-0.486-0.065-0.629-0.213
					c-0.171-0.167-0.305-0.382-0.409-0.644c-0.101-0.267-0.177-0.557-0.224-0.861c-0.043-0.311-0.067-0.572-0.067-0.787
					c0-1.719,0.333-3.471,0.99-5.21c0.167-0.438,0.344-0.871,0.534-1.295c0.052-0.129,0.114-0.248,0.177-0.372
					c0.133-0.3,0.271-0.6,0.418-0.891c0.085-0.161,0.177-0.318,0.262-0.476c0.348-0.657,0.724-1.301,1.124-1.915
					c0.748-1.128,1.548-2.186,2.395-3.143c0.015-0.015,0.028-0.033,0.039-0.044c0.286-0.323,0.582-0.637,0.881-0.942
					c1.063-1.076,2.067-1.962,2.99-2.629c0.21,0.257,0.563,0.472,1.168,0.472c0.4,0,0.833-0.076,1.295-0.224
					c0.443-0.147,0.867-0.353,1.261-0.596c0.396-0.248,0.726-0.515,0.977-0.791c0.291-0.324,0.438-0.666,0.438-1.038
					c0-0.485-0.147-0.78-0.442-0.882c-0.177-0.056-0.419-0.084-0.739-0.084c-0.485,0-0.972,0.023-1.448,0.062
					c-2.3,0.181-4.481,0.79-6.5,1.824c-2.433,1.252-4.558,2.914-6.32,4.938c-1.095,1.252-2.034,2.639-2.844,4.101
					c-0.5,0.905-0.956,1.833-1.338,2.81c-1.015,2.572-1.528,5.216-1.528,7.849c0,0.681,0.085,1.377,0.252,2.072
					c0.171,0.7,0.434,1.343,0.777,1.914c0.353,0.577,0.81,1.063,1.357,1.435c0.567,0.386,1.244,0.586,2.015,0.586
					c1.409,0,2.757-0.434,4-1.281c1.214-0.839,2.401-1.991,3.534-3.43c1.119-1.419,2.258-3.147,3.381-5.145
					c0.662-1.166,1.343-2.414,2.039-3.728c-0.2,0.79-0.391,1.581-0.577,2.361c-0.423,1.814-0.638,3.634-0.638,5.426
					c0,1.699,0.423,3.1,1.262,4.161c0.857,1.081,2.291,1.635,4.253,1.635c0.472,0,1.033-0.158,1.653-0.463
					c0.585-0.285,1.171-0.628,1.724-1.019c0.571-0.405,1.039-0.829,1.396-1.269c0.405-0.494,0.605-0.908,0.605-1.285
					C141.483,72.181,141.439,71.934,141.358,71.719z"/>
			</g>
			<g>
				<path fill="#FFFFFF" d="M272.168,89.246c-0.695-0.32-1.328-0.481-1.886-0.481c-1.381,0-2.876,0.338-4.439,1
					c-0.423,0.176-0.842,0.367-1.252,0.576c-0.91,0.461-1.791,1.015-2.63,1.629c-0.289,0.214-0.584,0.428-0.861,0.656
					c-0.266,0.22-0.519,0.448-0.771,0.678c-1.129,1.034-2.144,2.177-3.011,3.428c-1.053,1.516-1.9,3.183-2.515,4.943
					c-0.61,1.767-0.919,3.592-0.919,5.425c-0.047,2.577,0.61,4.658,1.963,6.183c1.357,1.528,3.363,2.306,5.958,2.306
					c1.101,0,2.239-0.22,3.391-0.648c1.129-0.429,2.214-0.99,3.229-1.672c1.023-0.69,1.944-1.468,2.733-2.311
					c0.805-0.853,1.458-1.742,1.929-2.642l0.049-0.092l-0.005-0.095c-0.081-1.13-0.643-1.296-0.972-1.296
					c-0.477,0-0.953,0.263-1.466,0.806c-0.434,0.451-0.963,0.958-1.582,1.505c-0.604,0.542-1.305,1.038-2.063,1.491
					c-0.361,0.215-0.757,0.375-1.171,0.481c-0.428,0.108-0.882,0.166-1.362,0.166c-0.958,0-1.733-0.153-2.311-0.452
					c-0.143-0.072-0.271-0.152-0.399-0.238c-0.377-0.267-0.686-0.592-0.919-0.986c-0.024-0.037-0.044-0.082-0.071-0.124
					c-0.285-0.515-0.485-1.097-0.582-1.733c-0.114-0.719-0.171-1.502-0.171-2.305c0-1.262,0.187-2.673,0.548-4.197
					c0.367-1.518,0.872-2.957,1.505-4.271c0.629-1.31,1.405-2.421,2.296-3.315c0.423-0.425,0.876-0.743,1.356-0.957l0.006-0.005
					c0.07-0.034,0.147-0.058,0.219-0.085c0.052-0.015,0.1-0.039,0.153-0.057c0.037-0.017,0.076-0.021,0.113-0.03
					c0.086-0.029,0.171-0.052,0.257-0.075c0.029,0,0.058-0.005,0.085-0.012c0.101-0.018,0.2-0.037,0.3-0.047
					c0.134-0.014,0.262-0.019,0.396-0.019c0.242,0,0.304,0.096,0.341,0.177c0.11,0.236,0.191,0.494,0.258,0.766
					c0.053,0.253,0.153,0.486,0.271,0.721c0.039,0.07,0.071,0.151,0.124,0.228c0.153,0.243,0.473,0.538,1.087,0.538
					c0.285,0,0.637-0.1,1.085-0.31c0.419-0.194,0.828-0.456,1.253-0.811c0.414-0.336,0.776-0.704,1.091-1.089
					c0.352-0.436,0.534-0.899,0.534-1.4l0,0l0,0C273.341,90.278,272.936,89.607,272.168,89.246z"/>
				<path fill="#FFFFFF" d="M300.721,111.568c0-0.286-0.043-0.533-0.124-0.754c-0.033-0.085-0.082-0.162-0.138-0.228
					c-0.148-0.181-0.367-0.281-0.639-0.281c-0.324,0-0.609,0.058-0.847,0.175c-0.195,0.097-0.381,0.206-0.572,0.344
					c-0.143,0.101-0.313,0.191-0.519,0.272c-0.191,0.075-0.453,0.112-0.777,0.112c-0.286,0-0.519-0.05-0.714-0.146
					c-0.095-0.053-0.186-0.105-0.267-0.177c-0.127-0.117-0.242-0.251-0.333-0.405c-0.091-0.147-0.172-0.313-0.233-0.494
					c-0.02-0.066-0.038-0.147-0.057-0.221c-0.096-0.337-0.167-0.683-0.206-1.056c-0.042-0.468-0.067-0.886-0.067-1.257
					c0-0.763,0.163-1.797,0.478-3.078c0.047-0.175,0.09-0.361,0.137-0.541c0.091-0.373,0.187-0.739,0.287-1.115
					c0.076-0.272,0.148-0.552,0.224-0.834c0.156-0.586,0.318-1.167,0.496-1.771c0.443-1.535,0.934-3.102,1.458-4.641
					c0.529-1.575,1.005-2.991,1.429-4.266c0.019-0.087,0.039-0.162,0.058-0.229c0.019-0.091,0.032-0.171,0.052-0.237
					c0.014-0.063,0.014-0.134,0.019-0.2c0.005-0.081,0.019-0.162,0.019-0.253c0-0.558-0.352-0.762-0.686-0.762
					c-1.32,0-2.325,0.085-2.978,0.258c-0.17,0.043-0.328,0.09-0.476,0.144c-0.438,0.146-0.762,0.317-0.986,0.521
					c-0.233,0.216-0.395,0.435-0.491,0.658c-0.027,0.076-0.052,0.152-0.066,0.229c-0.032,0.162-0.095,0.286-0.187,0.376
					l-0.066,0.091c-0.056,0.124-0.089,0.258-0.104,0.415c-1.324,2.557-2.629,4.987-3.882,7.214
					c-1.257,2.239-2.463,4.222-3.596,5.889c-0.504,0.727-0.977,1.385-1.429,1.984c-0.063,0.076-0.119,0.163-0.176,0.234
					c-0.181,0.229-0.343,0.428-0.506,0.628c-0.075,0.09-0.161,0.2-0.233,0.286c-0.233,0.285-0.467,0.542-0.681,0.781
					c-1.038,1.114-1.663,1.353-2.01,1.353c-0.1,0-0.171-0.02-0.252-0.038c-0.033-0.005-0.081-0.005-0.11-0.015
					c-0.038-0.015-0.062-0.043-0.095-0.058c-0.057-0.032-0.125-0.058-0.167-0.104c-0.081-0.077-0.143-0.163-0.209-0.259
					c-0.01-0.014-0.024-0.033-0.034-0.048c-0.062-0.104-0.119-0.214-0.167-0.338c-0.052-0.128-0.095-0.261-0.129-0.399
					c0,0-0.005-0.01-0.005-0.015c-0.036-0.143-0.071-0.29-0.086-0.443c-0.051-0.309-0.07-0.571-0.07-0.781
					c0-1.704,0.328-3.441,0.984-5.182c0.664-1.742,1.501-3.395,2.507-4.919c0.252-0.382,0.509-0.753,0.771-1.114
					c0.791-1.09,1.633-2.09,2.519-2.987c0.534-0.541,1.053-1.038,1.549-1.471c0.499-0.433,0.971-0.819,1.429-1.146
					c0.071,0.093,0.17,0.17,0.291,0.247c0.204,0.127,0.48,0.223,0.866,0.223c0.405,0,0.843-0.081,1.291-0.228
					c0.438-0.149,0.863-0.342,1.252-0.59c0.391-0.234,0.719-0.501,0.981-0.787c0.286-0.323,0.433-0.667,0.433-1.033
					c0-0.482-0.147-0.776-0.448-0.882c-0.181-0.057-0.413-0.08-0.728-0.08l0,0H293.7c-2.819,0-5.476,0.633-7.901,1.881
					c-2.41,1.233-4.529,2.887-6.291,4.906c-1.32,1.505-2.435,3.186-3.334,5.009c-0.3,0.606-0.576,1.229-0.829,1.867
					c-1.004,2.554-1.519,5.183-1.519,7.807c0,0.681,0.085,1.371,0.252,2.062c0.143,0.576,0.358,1.096,0.615,1.582
					c0.052,0.104,0.099,0.224,0.161,0.324c0.072,0.124,0.162,0.242,0.248,0.361c0.01,0.014,0.019,0.033,0.033,0.048
					c0.057,0.076,0.119,0.143,0.182,0.214c0.042,0.053,0.084,0.114,0.137,0.161c0.229,0.239,0.476,0.453,0.748,0.64
					c0.557,0.386,1.232,0.586,2,0.586c1.405,0,2.748-0.435,3.986-1.276c1.204-0.83,2.386-1.977,3.515-3.411
					c1.115-1.412,2.249-3.133,3.368-5.114c0.647-1.148,1.319-2.382,2.015-3.695c-0.195,0.779-0.386,1.563-0.566,2.333
					c-0.425,1.796-0.64,3.614-0.64,5.396c0,1.694,0.43,3.086,1.258,4.138c0.491,0.619,1.167,1.053,2.025,1.319
					c0.633,0.2,1.366,0.311,2.208,0.311l0,0l0,0c0.472,0,1.011-0.153,1.644-0.462c0.586-0.281,1.162-0.626,1.72-1.016
					c0.557-0.394,1.024-0.818,1.385-1.262c0.134-0.161,0.239-0.319,0.325-0.466C300.626,112.086,300.721,111.815,300.721,111.568z"
					/>
				<path fill="#FFFFFF" d="M217.189,99.317c0.519,0,0.962-0.091,1.306-0.28c0.417-0.224,0.638-0.581,0.638-1.032
					c0-0.259-0.077-0.648-0.444-0.93c-0.152-0.12-0.352-0.214-0.634-0.282c-0.413-0.085-0.875-0.193-1.366-0.313
					c-0.129-0.034-0.252-0.062-0.396-0.096c-0.039-0.009-0.076-0.023-0.11-0.038c-0.438-0.123-0.849-0.305-1.219-0.548
					c-0.104-0.071-0.209-0.138-0.309-0.224c-0.448-0.348-0.667-1-0.667-1.953c0-1.242,0.177-2.338,0.533-3.242
					c0.367-0.938,0.701-1.995,0.981-3.134l0.015-0.085c0-0.605-0.071-0.977-0.238-1.206c-0.186-0.256-0.519-0.386-1.009-0.386
					c-1.262,0-2.534,0.343-3.796,1.024c-0.43,0.267-0.762,0.652-1.001,1.151c-0.188,0.415-0.342,0.906-0.442,1.473
					c-2.334,0.294-4.486,0.976-6.396,2.023c-0.706,0.386-1.373,0.825-2.015,1.292c-1.138,0.827-2.187,1.756-3.087,2.813
					c-1.41,1.647-2.52,3.53-3.295,5.592c-0.771,2.072-1.162,4.233-1.162,6.448v0.005l0,0c0,2.729,0.775,4.806,2.3,6.164
					c1.519,1.347,3.714,2.033,6.52,2.033c1.643,0,3.114-0.447,4.367-1.316c0.301-0.208,0.601-0.422,0.896-0.647
					c0.887-0.666,1.744-1.389,2.558-2.171c0.706-0.71,1.401-1.566,2.058-2.552c0.657-0.991,1.252-2.068,1.767-3.215
					c0.513-1.145,0.943-2.335,1.271-3.525c0.167-0.629,0.3-1.247,0.41-1.853c0.07-0.395,0.138-0.795,0.186-1.182
					C215.994,99.256,216.589,99.317,217.189,99.317z M209.902,107.419c-0.729,1.248-1.633,2.263-2.682,3.025
					c-1.019,0.738-2.276,1.108-3.724,1.108c-0.899,0-1.614-0.219-2.176-0.686c-0.591-0.472-1.077-1.082-1.443-1.8
					c-0.376-0.734-0.647-1.544-0.8-2.403c-0.162-0.878-0.242-1.712-0.242-2.474c0-1.486,0.265-2.963,0.78-4.406
					c0.521-1.438,1.254-2.775,2.172-3.968c0.458-0.59,0.967-1.132,1.519-1.628c0.272-0.237,0.553-0.467,0.848-0.681
					c0.006-0.004,0.015-0.01,0.015-0.01c0.299-0.218,0.609-0.429,0.929-0.619c1.161-0.695,2.424-1.13,3.752-1.3
					c0.005,0.714,0.063,1.434,0.176,2.138c0.077,0.468,0.182,0.881,0.3,1.258c0.076,0.232,0.157,0.463,0.248,0.667
					c0.257,0.571,0.757,1.101,1.481,1.571c0.609,0.4,1.275,0.776,1.981,1.124c-0.353,1.609-0.776,3.21-1.252,4.744
					C211.283,104.685,210.655,106.146,209.902,107.419z"/>
				<path fill="#FFFFFF" d="M208.779,84.726c0.262,0,0.595-0.047,0.976-0.147c0.619-0.138,1.434-0.4,2.41-0.777
					c0.995-0.376,1.981-0.842,2.934-1.375c0.977-0.548,1.828-1.188,2.543-1.901c0.757-0.757,1.143-1.609,1.143-2.532
					c0-0.439-0.163-0.901-0.477-1.377c-0.343-0.521-0.909-0.776-1.672-0.776c-0.962,0-1.61,0.263-1.934,0.791
					c-0.271,0.447-0.529,0.98-0.757,1.59c-0.224,0.618-0.528,1.254-0.915,1.887c-0.352,0.58-1.081,1.118-2.162,1.595l-1.677,0.695
					c-0.457,0.204-0.777,0.366-1.009,0.509c-0.339,0.205-0.515,0.52-0.515,0.92C207.669,84.097,207.774,84.726,208.779,84.726z"/>
				<path fill="#FFFFFF" d="M241.884,110.892c-0.39-0.162-0.695-0.239-0.929-0.239c-0.396,0-0.757,0.116-1.072,0.344
					c-0.11,0.082-0.399,0.213-1.152,0.213c-0.548,0-0.937-0.15-1.196-0.47c-0.294-0.353-0.528-0.796-0.7-1.311
					c-0.143-0.415-0.219-0.866-0.262-1.339c-0.01-0.113-0.029-0.218-0.033-0.338c-0.023-0.618-0.034-1.157-0.034-1.613
					c0-2,0.225-3.936,0.682-5.758c0.467-1.853,1.024-3.739,1.652-5.587c0.101-0.229,0.234-0.605,0.424-1.12
					c0.186-0.513,0.372-1.048,0.563-1.608c0.18-0.563,0.342-1.087,0.484-1.577c0.148-0.519,0.224-0.924,0.224-1.242
					c0-0.415-0.218-1.105-1.666-1.105c-1.424,0-2.368,0.147-2.886,0.467c-0.496,0.295-0.877,0.6-1.111,0.881
					c-0.123,0.123-0.2,0.281-0.232,0.457c-0.51,0.604-1.129,1.372-1.844,2.285c-0.686,0.873-1.384,1.773-2.09,2.682l-0.238,0.31
					c-0.786,1.015-1.538,2.011-2.229,2.963c-0.271,0.363-0.505,0.691-0.72,0.995c-0.342,0.481-0.624,0.89-0.824,1.201
					c-0.09,0.143-0.185,0.289-0.295,0.452c-0.309,0.471-0.676,1.028-1.095,1.676c-0.358,0.548-0.734,1.114-1.143,1.72
					c0.057-1.172,0.195-2.285,0.415-3.339c0.304-1.419,0.637-2.758,1-3.967c0.376-1.257,0.71-2.438,1.015-3.553
					c0.304-1.135,0.461-2.263,0.461-3.358c0-0.725-0.237-1.161-0.69-1.305c-0.328-0.1-0.633-0.148-0.904-0.148
					c-0.444,0-1.096,0.072-1.934,0.21c-0.829,0.134-1.681,0.33-2.539,0.562c-0.867,0.238-1.614,0.544-2.228,0.906
					c-0.715,0.409-1.082,0.896-1.082,1.442c0,1.329,0.866,1.528,1.391,1.528c0.38,0,0.705-0.071,0.962-0.215
					c0.157-0.089,0.32-0.132,0.496-0.132c0.066,0,0.129,0.005,0.186,0.019c0.171,0.043,0.285,0.147,0.367,0.328
					c0.028,0.073,0.043,0.14,0.067,0.206c0.085,0.261,0.147,0.513,0.147,0.771c0,0.47-0.114,1.243-0.338,2.285
					c-0.237,1.072-0.528,2.257-0.866,3.529c-0.348,1.3-0.71,2.652-1.077,4.066c-0.37,1.417-0.695,2.706-0.976,3.863
					c-0.091,0.366-0.209,0.849-0.348,1.429c-0.134,0.577-0.277,1.143-0.419,1.701c-0.138,0.556-0.252,1.075-0.348,1.537
					c-0.1,0.485-0.148,0.829-0.148,1.048c0,0.424,0.1,0.738,0.3,0.942c0.057,0.063,0.119,0.12,0.195,0.158
					c0.262,0.143,0.624,0.215,1.104,0.215h1.11c0.395,0,0.776-0.054,1.153-0.157c0.243-0.081,0.638-0.348,1.529-1.663
					c0.618-0.909,1.286-1.967,1.99-3.143c0.714-1.187,1.362-2.328,1.924-3.387c0.577-1.085,0.976-1.834,1.229-2.292
					c0.085-0.209,0.333-0.642,0.737-1.304c0.406-0.652,0.921-1.443,1.525-2.348c0.585-0.886,1.252-1.833,1.968-2.805
					c0.399-0.539,0.799-1.053,1.21-1.554c-0.158,0.615-0.311,1.244-0.468,1.897c-0.276,1.161-0.523,2.318-0.733,3.457
					c-0.206,1.143-0.386,2.233-0.519,3.242c-0.143,1.015-0.209,1.924-0.209,2.691c0,0.938,0.042,1.886,0.138,2.814
					c0.095,0.957,0.328,1.848,0.69,2.643c0.367,0.818,0.92,1.497,1.643,2.011c0.725,0.533,1.715,0.795,2.939,0.795
					c0.495,0,1.109-0.096,1.829-0.285c0.709-0.186,1.406-0.452,2.053-0.796c0.634-0.323,1.199-0.686,1.691-1.075
					c0.546-0.438,0.818-0.93,0.818-1.448C242.617,111.367,242.217,111.024,241.884,110.892z"/>
				<path fill="#FFFFFF" d="M251.662,83.825c1.271,0,2.214-0.453,2.791-1.338c0.543-0.843,0.814-1.79,0.814-2.829
					c0-0.553-0.105-1.125-0.333-1.753c-0.253-0.715-0.786-1.095-1.539-1.095c-1.311,0-2.31,0.403-2.977,1.194
					c-0.647,0.787-0.982,1.763-0.982,2.9c0,0.699,0.125,1.339,0.377,1.91C250.014,83.278,250.494,83.825,251.662,83.825z"/>
				<path fill="#FFFFFF" d="M252.49,89.04c-1.086,0-2.295,0.206-3.577,0.605c-1.234,0.391-2.386,0.776-3.414,1.147
					c-0.996,0.361-1.206,1.057-1.206,1.581l0,0l0,0c0,0.152,0.014,0.339,0.033,0.557c0.043,0.386,0.339,0.62,0.792,0.62
					c0.22-0.047,0.405-0.066,0.562-0.066h0.558c0.795,0,1.034,0.162,1.109,0.262c0.015,0.019,0.029,0.032,0.029,0.044
					c0.124,0.305,0.186,0.69,0.186,1.155c0,0.805-0.105,1.801-0.309,2.968c-0.201,1.152-0.472,2.405-0.795,3.725
					c-0.324,1.318-0.687,2.653-1.073,3.987c-0.391,1.343-0.756,2.581-1.077,3.719c-0.323,1.137-0.594,2.1-0.805,2.892
					c-0.291,1.089-0.324,1.443-0.324,1.614l0,0v0.003c0,0.609,0.106,1.015,0.33,1.269c0.232,0.263,0.609,0.395,1.127,0.395
					c0.373,0,0.706-0.015,1.021-0.033c0.938-0.076,1.623-0.252,2.085-0.543c0.324-0.2,0.591-0.523,0.806-0.977
					c0.19-0.408,0.333-0.934,0.433-1.566c0.009-0.053,0.024-0.105,0.033-0.167c0.319-2.286,0.806-4.586,1.449-6.835
					c0.642-2.257,1.228-4.553,1.743-6.834c0.095-0.476,0.233-1.028,0.414-1.643c0.182-0.653,0.367-1.328,0.552-2.023
					c0.097-0.353,0.187-0.706,0.267-1.059c0.081-0.357,0.152-0.7,0.225-1.049c0.142-0.703,0.218-1.336,0.218-1.871
					c0-0.566-0.071-0.984-0.209-1.294C253.557,89.359,253.248,89.04,252.49,89.04z"/>
				<path fill="#FFFFFF" d="M194.686,121.021c-0.4-0.146-0.9-0.385-1.491-0.705c-0.595-0.324-1.229-0.85-1.881-1.558
					c-0.652-0.709-1.291-1.753-1.9-3.101c-0.076-0.171-0.148-0.348-0.219-0.528c-0.515-1.271-0.948-2.856-1.281-4.696
					c-0.391-2.11-0.591-4.767-0.591-7.887c0-6.363,0.538-12.511,1.6-18.265c1.062-5.769,2.649-11.739,4.719-17.765
					c0.272-0.771,0.616-1.629,1.044-2.6c0.109-0.243,0.204-0.481,0.291-0.72c0.252-0.709,0.4-1.405,0.448-2.066
					c0-0.181-0.034-0.481-0.101-0.92c-0.019-0.143-0.043-0.3-0.076-0.471c-0.114-0.69-0.271-1.42-0.466-2.167
					c-0.195-0.768-0.443-1.458-0.724-2.068c-0.286-0.585-0.601-0.908-0.957-0.994c-0.059-0.01-0.12-0.02-0.177-0.02
					c-0.662,0-1.119,0.319-1.305,0.887l-0.22,0.452c-1.457,3.947-2.713,7.644-3.8,11.097h-0.005l-14.868,21.827
					c0.186-0.857,0.395-1.744,0.614-2.682l0.228-0.933c0.602-2.463,1.306-5.168,2.148-8.264c0.815-2.978,1.682-5.997,2.573-8.979
					c0.924-3.071,1.828-6.048,2.7-8.854c0.925-2.972,1.753-5.553,2.53-7.882l0.013-0.076c0-0.414-0.124-0.968-0.356-1.634
					c-0.219-0.643-0.491-1.29-0.81-1.924c-0.309-0.624-0.676-1.181-1.086-1.647c-0.443-0.51-0.857-0.748-1.261-0.748
					c-0.662,0-1.125,0.357-1.353,1.033l-0.462,1.386l-5.567,15.184c-0.615,1.619-1.619,3.91-2.987,6.816
					c-1.386,2.938-3.1,6.176-5.096,9.644c-2.005,3.478-4.324,7.073-6.911,10.692c-2.553,3.585-5.368,6.896-8.357,9.84
					c-2.987,2.93-6.154,5.353-9.411,7.22c-3.239,1.856-6.592,2.8-9.963,2.8c-1.539,0-3.044-0.28-4.478-0.828
					c-1.428-0.553-2.729-1.318-3.853-2.286c-0.843-0.715-1.572-1.553-2.153-2.485c-0.191-0.32-0.377-0.649-0.539-0.982
					c-0.652-1.348-0.99-2.862-0.99-4.501c0-2.138,0.543-4.072,1.614-5.739c1.072-1.682,2.453-3.118,4.11-4.28
					c1.667-1.163,3.515-2.063,5.51-2.669c1.991-0.609,3.924-0.923,5.753-0.923c2.377,0,4.529,0.301,6.387,0.877
					c1.858,0.586,3.753,1.528,5.63,2.801l0.062,0.037h0.066c0.5,0,0.958-0.156,1.357-0.47c0.424-0.325,0.639-0.726,0.639-1.184
					c0-0.932-0.59-1.728-1.762-2.352c-1.092-0.59-2.358-1.087-3.763-1.458c-1.391-0.366-2.738-0.638-3.986-0.805
					c-1.267-0.167-2.114-0.252-2.519-0.252c-2.877,0-5.807,0.481-8.721,1.442c-2.91,0.958-5.573,2.349-7.906,4.129
					c-2.348,1.772-4.282,3.982-5.758,6.56c-1.473,2.582-2.22,5.496-2.22,8.672c0,2.11,0.448,3.968,1.338,5.511
					c0.882,1.538,2.086,2.843,3.567,3.873c1.477,1.022,3.191,1.784,5.092,2.266c1.9,0.476,3.862,0.725,5.829,0.725
					c3.167,0,6.235-0.662,9.12-1.963c2.873-1.289,5.611-3.049,8.158-5.221c2.525-2.161,4.944-4.658,7.192-7.409
					c2.252-2.759,4.396-5.6,6.377-8.45c2.015-2.885,3.905-5.758,5.62-8.523c1.491-2.416,2.924-4.629,4.272-6.611
					c-0.7,3.582-1.419,7.243-2.152,10.916c-0.763,3.797-1.472,7.516-2.114,11.049c-0.52,2.896-0.991,5.668-1.396,8.24l-0.163,1.053
					c-0.424,2.757-0.634,5.01-0.634,6.69c0,0.59,0.059,1.172,0.167,1.735c0.139,0.664,0.596,1.022,1.32,1.022
					c0.476,0,0.972-0.362,1.528-1.104c0.515-0.677,1.015-1.481,1.497-2.388c0.475-0.895,0.914-1.774,1.314-2.628
					c0.414-0.88,0.652-1.451,0.767-1.781c0.224-0.581,0.457-1.167,0.681-1.742h-0.004c0,0-0.145-3.468,1.766-13.422l0.077-0.076
					L185.318,74.7c-1.853,6.835-2.958,12.526-3.597,17.154c-0.156,1.319-0.294,2.657-0.409,4.012
					c-0.17,2.022-0.257,4.186-0.257,6.429c0,1.752,0.157,3.848,0.467,6.229c0.305,2.396,0.895,4.71,1.743,6.882
					c0.848,2.186,2.029,4.071,3.51,5.604c1.491,1.555,3.447,2.346,5.806,2.346c0.523,0,1.119-0.107,1.757-0.312
					c0.709-0.224,1.086-0.719,1.086-1.433C195.424,121.327,195.067,121.16,194.686,121.021z"/>
			</g>
		</g>
		<g id="Buganbilias_x5F_infeior_6_">
			<g>
				<path fill="#FFFFFF" d="M0.481,104.357c0.579,0.459,1.558,1.449,1.838,3.033c0.336,1.897,2.692,2.789,4.809,2.836
					c0.02-0.612-0.019-2.736-1.392-4.246C4.604,104.734,2.845,104.185,0.481,104.357z"/>
				<path fill="#FFFFFF" d="M2.953,102.289c0.525,0.616,0.824,1.391,0.998,2.094c0.819,0.296,1.516,0.739,2.067,1.347
					c1.13,1.245,1.417,2.828,1.477,3.806c0.12,0.018,0.196,0.021,0.196,0.021C9.315,101.984,2.953,102.289,2.953,102.289z"/>
			</g>
			<g>
				<path fill="#FFFFFF" d="M40.858,93.027c0.067,1.339,0.132,2.684,0.387,4.004c0.211,1.089,0.54,2.372,1.421,3.123
					c1.044,0.889,2.501,0.35,3.515-0.312c0.741-0.482,1.251-1.252,1.253-2.152c0.001-0.875-0.451-1.691-1.071-2.282
					c-1.533-1.46-3.765-1.465-5.551-2.453l-0.003,0.006C40.834,92.974,40.855,92.992,40.858,93.027z"/>
				<g>
					<path fill="#FFFFFF" d="M41.047,96.864c-0.046-0.26-0.082-0.52-0.116-0.78c-0.702-0.383-1.512-0.777-2.317-0.724
						c-0.369,0.025-0.694,0.189-1.022,0.343c-0.452,0.214-0.847,0.299-1.228-0.096c-0.081-0.066-0.192,0.037-0.118,0.117
						c1.065,0.862,1.601,2.155,2.556,3.114c0.451,0.452,1,0.782,1.627,0.922c0.499,0.112,0.948,0.079,1.444,0.023
						c0.072-0.009,0.143-0.017,0.215-0.024C41.48,98.936,41.22,97.835,41.047,96.864z"/>
				</g>
				<g>
					<path fill="#FFFFFF" d="M48.462,91.266c-0.194-0.638-0.422-1.276-0.728-1.871c-0.041-0.078-0.147-0.031-0.153,0.043
						c-0.113,1.254-1.091,2.078-1.583,3.172c-0.229,0.51-0.357,1.118-0.249,1.675c0.036,0.179,0.089,0.357,0.144,0.536
						c0.455,0.304,0.862,0.688,1.19,1.199c0.434,0.68,0.638,1.518,0.437,2.31c-0.017,0.064-0.052,0.118-0.074,0.181
						c1.104-0.496,1.535-1.679,1.626-2.84C49.187,94.193,48.891,92.672,48.462,91.266z"/>
				</g>
			</g>
			<g>
				<g>
					<path fill="#FFFFFF" d="M73.457,113.398c1.282-2.084,1.109-4.524,1.011-5.283c-0.737,1.151-3.058,2.361-3.157,2.419
						c-2.529,1.704-2.566,3.761-2.322,4.924C69.627,114.665,71.007,113.441,73.457,113.398z"/>
				</g>
				<g>
					<path fill="#FFFFFF" d="M79.478,114.362c-1.848,0-4.229-0.638-4.252-0.646c-0.563-0.106-1.115-0.158-1.634-0.158
						c-3.268,0-4.62,2.128-4.858,2.563c0.157,0.066,0.309,0.114,0.465,0.175c0.381-0.107,0.911-0.213,1.507-0.213
						c1.125,0,2.093,0.391,2.846,1.14c0.008,0,0.018,0.004,0.026,0.004c3.691,0,5.524-2.297,5.916-2.864
						C79.488,114.362,79.482,114.362,79.478,114.362z"/>
				</g>
				<g>
					<path fill="#FFFFFF" d="M74.063,118.125c-0.785-1.247-1.914-1.877-3.357-1.877c-0.732,0-1.372,0.173-1.736,0.296
						c0.437,0.167,0.954,0.465,1.336,0.996c0.447,0.626,0.586,1.454,0.444,2.444c1.23,0.429,2.77,0.548,4.066,0.548
						c0.729,0,1.338-0.04,1.686-0.063C75.039,119.745,74.106,118.197,74.063,118.125z"/>
				</g>
				<path fill="#FFFFFF" d="M68.138,116.502c-1.072,0.68-1.6,1.476-1.572,2.366c0.063,2.149,3.31,4.306,4.354,4.939
					c-0.743-1.277-0.462-3.121-0.447-3.206c0.318-1.247,0.213-2.242-0.301-2.968C69.501,116.701,68.329,116.526,68.138,116.502z"/>
			</g>
			<g>
				<g>
					<path fill="#FFFFFF" d="M84.717,90.541c0.279-0.35,0.595-0.645,0.924-0.924v-0.002c0.033-0.084-1.605-0.788-1.681-0.822
						c-0.286-0.124-0.576-0.247-0.863-0.371c-0.428-0.188-0.195-0.076-0.256,0.352c-0.086,0.596-0.196,1.205-0.21,1.806
						c0,0.353,0.02,0.695,0.119,1.027c0.01,0.038,0.152,0.616,0.147,0.616c0.241,0.081,0.485,0.164,0.729,0.244
						C83.857,91.771,84.243,91.135,84.717,90.541z"/>
				</g>
				<g>
					<path fill="#FFFFFF" d="M91.27,90.363c-0.261-0.08-0.533-0.127-0.804-0.156c-0.693-0.079-1.281,0.184-1.659,0.765
						c0.092,0.226,0.194,0.445,0.321,0.665c0.315,0.556,0.674,1.204,0.802,1.868c0.118-0.383,0.159-0.787,0.322-1.174
						c0.2-0.462,0.424-0.887,0.738-1.285C91.047,90.979,91.656,90.482,91.27,90.363z"/>
				</g>
				<path fill="#FFFFFF" d="M89.037,95.755c0.442-0.448,0.767-1.043,0.719-1.69c-0.062-0.984-0.543-1.733-0.967-2.59
					c-0.357-0.721-0.629-1.463-0.757-2.258c-0.015-0.08-0.143-1.072-0.291-0.953c-0.233,0.186-0.472,0.372-0.714,0.548
					c-1.457,1.028-3.029,2.377-3.348,4.238c-0.129,0.807-0.091,1.854,0.552,2.453c0.714,0.661,1.848,0.819,2.706,0.353
					c0.093-0.049,0.172,0.042,0.161,0.121C87.768,96.155,88.448,96.354,89.037,95.755z"/>
				<g>
					<path fill="#FFFFFF" d="M83.638,92.43c-0.037,0-0.074,0.004-0.11,0.005c0.033,0.01,0.066,0.021,0.1,0.034
						C83.631,92.455,83.634,92.441,83.638,92.43z"/>
					<path fill="#FFFFFF" d="M83.569,92.683c-0.109-0.039-0.219-0.076-0.328-0.112c-0.099-0.034-0.174-0.065-0.241-0.094
						c-0.799,0.106-1.541,0.432-1.956,1.202c-0.295,0.563-0.475,1.185-0.728,1.771c0.347-0.074,0.693-0.33,1.023-0.437
						c0.257-0.076,0.605-0.019,0.852,0.066c0.172,0.058,1.448,0.452,1.458,0.177c0.001-0.067,0.056-0.102,0.109-0.103v-0.021
						c-0.25-0.426-0.39-0.933-0.362-1.486C83.415,93.311,83.481,92.991,83.569,92.683z"/>
				</g>
			</g>
			<g>
				<g>
					<path fill="#FFFFFF" d="M92.535,105.641c-0.215-0.679-0.295-1.332-0.337-2.039c-0.038-0.642-0.359-1.364-0.866-1.811
						c0.14,0.584-0.092,1.299-0.306,1.798c-0.212,0.497-0.495,0.989-0.75,1.49c0.288,0.422,0.626,0.807,1.036,1.111
						c0.534,0.395,1.154,0.615,1.808,0.688C92.809,106.549,92.668,106.06,92.535,105.641z"/>
				</g>
				<path fill="#FFFFFF" d="M87.435,104.644c0.37,1.178,1.236,2.144,2.14,2.959c-0.115-0.684,0.035-1.358,0.302-1.997
					c0.438-1.047,1.208-2.017,1.335-3.171c0.042-0.376,0.01-0.8-0.264-1.085c-0.352-0.369-0.934-0.361-1.401-0.307
					c-0.036,0.006-0.057-0.017-0.063-0.044c-0.497,0.09-0.974,0.281-1.359,0.615C87.262,102.364,87.104,103.597,87.435,104.644z"/>
				<g>
					<path fill="#FFFFFF" d="M87.337,102.497c0.077-0.193,0.173-0.368,0.287-0.526c-0.037-0.005-0.074-0.01-0.111-0.013
						c-0.342-0.025-0.686-0.024-0.993,0.146c-0.494,0.276-0.79,0.835-0.968,1.352c-0.219,0.637-0.098,1.27-0.066,1.922
						c0.023,0.501-0.138,0.965-0.297,1.431c0.369-0.313,0.788-0.557,1.179-0.839c0.477-0.344,0.815-0.766,0.929-1.333
						C87.086,103.939,87.057,103.199,87.337,102.497z"/>
				</g>
			</g>
		</g>
		<g id="Buganbilias_x5F_Superior_6_">
			<g>
				<path fill="#FFFFFF" d="M138.881,28.749c-0.279-1.025-0.144-2.058,0.41-3.032c0.301-0.528,0.66-0.938,0.943-1.217
					c0.023-0.159,0.047-0.319,0.065-0.483c-0.498-0.005-3.008,0.123-4.621,2.957c-0.253,0.451-0.481,0.959-0.665,1.496
					c-0.005,0.026-0.628,2.406-1.533,4.009c-0.005,0.011-0.005,0.011-0.013,0.02c0.689-0.067,3.587-0.523,5.404-3.73
					C138.874,28.762,138.877,28.756,138.881,28.749z"/>
				<path fill="#FFFFFF" d="M139.598,23.914c-0.889-0.786-2.691-1.769-5.418-0.41c-0.099,0.061-2.295,1.477-3.656,1.558
					c0.612,0.45,2.642,1.802,5.079,1.72C136.853,24.674,138.594,24.076,139.598,23.914z"/>
				<path fill="#FFFFFF" d="M139.434,25.797c-0.711,1.25-0.717,2.543-0.021,3.841c0.038,0.068,0.926,1.645,0.827,3.27
					c0.197-0.29,0.533-0.798,0.89-1.431c0.641-1.126,1.298-2.517,1.532-3.792c-0.934-0.364-1.579-0.899-1.903-1.601
					c-0.28-0.598-0.274-1.192-0.201-1.655C140.273,24.681,139.8,25.152,139.434,25.797z"/>
				<path fill="#FFFFFF" d="M143.75,23.491c-0.758-0.459-1.71-0.392-2.826,0.197c-0.073,0.179-0.5,1.284-0.016,2.327
					c0.372,0.805,1.185,1.38,2.424,1.723c0.08,0.03,1.818,0.691,2.564,1.969C145.856,28.488,145.585,24.604,143.75,23.491z"/>
			</g>
			<path fill="#FFFFFF" d="M168.464,18.292c0,0-0.406-0.271-1.008-0.445c-1.446,1.14-1.375,3.652-1.375,3.652
				c-0.638-1.715-0.148-3.035,0.307-3.785c-0.926,0.041-1.989,0.525-2.808,2.162c0,0-1.636,3.169,2.963,7.972
				c0,0-0.354-1.705,1.725-3.891C168.269,23.957,171.202,20.479,168.464,18.292z"/>
			<path fill="#FFFFFF" d="M149.279,12.977c1.248,0.516,1.656,1.467,1.79,2.038c0.101-0.192,1.813-3.662-4.587-4.986
				c0,0,0.529,0.853,0.467,1.725c-0.054,0.832-0.454,4.363,3.535,3.423C150.45,13.997,149.279,12.977,149.279,12.977z"/>
			<g>
				<path fill="#FFFFFF" d="M266.849,51.119c-0.188,0.382-0.958,2.123-0.287,3.789c0.49,1.217,1.632,2.133,3.395,2.724
					c-0.265-0.452-0.758-1.53-0.443-2.861C269.886,53.25,268.408,51.824,266.849,51.119z"/>
				<path fill="#FFFFFF" d="M267.348,56.371c-0.429-0.411-0.753-0.875-0.961-1.395c-0.525-1.304-0.222-2.616,0.054-3.374
					c-0.111-0.069-0.182-0.106-0.182-0.106c-3.567,4.973,1.133,6.758,1.133,6.758C267.203,57.623,267.243,56.947,267.348,56.371z"/>
			</g>
			<g>
				<path fill="#FFFFFF" d="M248.241,29.008c0.775,1.188,2.358,1.924,3.747,2c2.674,0.148,4.676-1.936,5.582-4.269
					c0.979-2.527,0.571-5.236-0.083-7.79c-0.792,0.78-1.792,1.25-2.855,1.564c-2.09,0.621-4.372,0.786-5.929,2.492
					c-1.5,1.646-2.462,4.121-0.665,5.924c0.01,0.01,0.006,0.021,0.012,0.03C248.109,28.93,248.193,28.935,248.241,29.008z"/>
				<path fill="#FFFFFF" d="M251.006,21.203c0.9-0.319,1.87-0.513,2.815-0.753c-0.035-0.637-0.137-1.275-0.317-1.884
					c-0.38-1.282-1.249-2.427-2.155-3.434c0.165,0.619,0.092,1.266-0.2,1.885c-0.827,1.75-2.571,2.941-3.852,4.333
					c-0.554,0.599-1.19,1.34-1.266,2.187c-0.065,0.751,0.396,1.341,0.951,1.795C247.566,23.434,249.166,21.855,251.006,21.203z"/>
				<path fill="#FFFFFF" d="M246.826,25.909c0.02-0.102,0.053-0.198,0.077-0.298c-0.631-0.495-1.169-1.144-1.147-1.98
					c0.021-0.791,0.516-1.498,1.005-2.08c0.125-0.15,0.269-0.285,0.401-0.428c-0.869-0.828-2.015-1.622-3.241-1.404
					c-0.87,0.152-1.617,0.651-2.39,1.071c0.573-0.009,1.116,0.156,1.473,0.692c0.501,0.759,0.51,1.775,0.625,2.646
					c0.159,1.203,0.53,2.324,1.63,2.979c0.51,0.303,1.076,0.457,1.658,0.505C246.75,27.077,246.713,26.502,246.826,25.909z"/>
			</g>
			<g>
				<path fill="#FFFFFF" d="M287.925,45.168c0.619,0.432,1.545,0.479,2.244,0.239c1.347-0.461,1.918-1.886,1.899-3.214
					c-0.022-1.44-0.763-2.693-1.594-3.82c-0.235,0.542-0.633,0.973-1.094,1.34c-0.905,0.721-1.997,1.258-2.424,2.408
					c-0.411,1.109-0.391,2.52,0.854,3.05c0.007,0.003,0.007,0.009,0.011,0.013C287.845,45.155,287.888,45.143,287.925,45.168z"/>
				<path fill="#FFFFFF" d="M287.733,40.774c0.379-0.337,0.816-0.625,1.235-0.932c-0.143-0.307-0.321-0.601-0.531-0.864
					c-0.442-0.556-1.099-0.946-1.746-1.262c0.205,0.271,0.298,0.604,0.277,0.969c-0.058,1.025-0.679,1.96-1.033,2.901
					c-0.154,0.403-0.319,0.896-0.188,1.328c0.119,0.383,0.461,0.581,0.826,0.694C286.482,42.558,286.956,41.462,287.733,40.774z"/>
				<path fill="#FFFFFF" d="M286.611,43.925c-0.011-0.054-0.015-0.108-0.021-0.163c-0.409-0.118-0.804-0.33-0.96-0.746
					c-0.146-0.394-0.044-0.841,0.081-1.225c0.033-0.099,0.076-0.194,0.114-0.29c-0.594-0.235-1.317-0.396-1.877-0.047
					c-0.397,0.249-0.666,0.645-0.963,1.005c0.281-0.119,0.582-0.146,0.864,0.048c0.398,0.272,0.604,0.772,0.834,1.178
					c0.318,0.561,0.726,1.04,1.398,1.143c0.31,0.048,0.621,0.011,0.916-0.082C286.806,44.515,286.675,44.238,286.611,43.925z"/>
			</g>
			<g>
				<path fill="#FFFFFF" d="M167.37,11.108c1.105,0.336,2.477-0.035,3.383-0.714c1.744-1.307,1.903-3.654,1.246-5.582
					c-0.712-2.088-2.385-3.563-4.127-4.813c-0.087,0.899-0.465,1.716-0.962,2.469c-0.979,1.48-2.314,2.778-2.393,4.655
					c-0.075,1.813,0.622,3.859,2.684,4.042c0.012,0,0.015,0.01,0.023,0.014C167.246,11.129,167.301,11.088,167.37,11.108z"/>
				<path fill="#FFFFFF" d="M165.009,4.795c0.394-0.671,0.897-1.297,1.363-1.942c-0.355-0.379-0.753-0.724-1.185-1.009
					c-0.91-0.601-2.048-0.858-3.14-1.014c0.426,0.3,0.72,0.741,0.862,1.281c0.398,1.523-0.064,3.179-0.136,4.717
					c-0.032,0.662-0.042,1.457,0.354,2.025c0.353,0.503,0.948,0.629,1.533,0.621C164.031,7.986,164.204,6.165,165.009,4.795z"/>
				<path fill="#FFFFFF" d="M164.867,9.917c-0.042-0.073-0.073-0.151-0.109-0.226c-0.652,0.021-1.327-0.102-1.751-0.636
					c-0.402-0.503-0.464-1.204-0.464-1.823c0-0.158,0.02-0.316,0.027-0.477c-0.975-0.061-2.104,0.045-2.756,0.82
					c-0.461,0.551-0.666,1.254-0.93,1.919c0.355-0.305,0.778-0.487,1.28-0.337c0.71,0.209,1.249,0.838,1.776,1.322
					c0.728,0.667,1.545,1.171,2.575,1.005c0.477-0.078,0.911-0.279,1.297-0.554C165.43,10.686,165.106,10.345,164.867,9.917z"/>
			</g>
			<g>
				<path fill="#FFFFFF" d="M215.37,49.459c0.424-0.004,1.045-0.734,1.279-1.01l0.047-0.054c0.634-0.739,0.997-1.512,1.105-2.358
					c0.33-2.59-1.267-4.999-2.156-6.113c-0.167,1.188-0.688,2.26-1.192,3.3c-0.19,0.391-0.386,0.794-0.561,1.199
					c-0.27,0.624-0.567,1.452-0.465,2.317c0.103,0.875,0.593,1.699,1.542,2.595c0.022-0.016,0.048-0.026,0.076-0.026
					c0.031,0,0.062,0.013,0.087,0.043c0.064,0.073,0.141,0.107,0.235,0.107H215.37z"/>
				<path fill="#FFFFFF" d="M214.391,50.209c-0.563,0.323-1.17,0.61-1.822,0.804c-0.634,0.188-1.287,0.28-1.927,0.28
					c-0.367,0-0.728-0.039-1.081-0.103c-0.19,0.242-0.361,0.502-0.475,0.804c-0.501,1.328-0.136,2.813-0.009,4.175
					c0.118,1.263,0.018,2.504-0.716,3.536c0.739-0.291,1.357-0.82,2.05-1.209c0.812-0.454,1.756-0.635,2.578-1.084
					c0.752-0.412,1.421-0.987,2.014-1.602c0.155-0.162,0.317-0.335,0.476-0.514c-0.045-0.048-0.097-0.087-0.142-0.139
					C214.089,53.701,214.108,51.727,214.391,50.209z"/>
				<path fill="#FFFFFF" d="M214.802,49.536c-0.907-0.853-1.412-1.641-1.586-2.479c-0.033-0.166-0.055-0.335-0.063-0.508
					c-1.518-0.886-3.211-1.782-5.018-1.422c-0.298,0.061-0.625,0.158-0.97,0.263c-1.022,0.309-2.165,0.652-3.036,0.113
					c0.26,0.801,0.664,1.607,1.204,2.405c0.611,0.902,1.29,1.625,2.016,2.147c0.755,0.542,1.61,0.841,2.692,0.94
					c1.929,0.175,3.577-0.589,4.893-1.438C214.893,49.575,214.845,49.576,214.802,49.536z"/>
				<path fill="#FFFFFF" d="M221.258,51.615c-1.168-1.397-2.871-2.129-4.557-2.798c-0.418,0.47-0.901,0.892-1.309,0.913
					c-0.011,0.001-0.021,0.001-0.031,0.001c-0.055,0-0.104-0.017-0.152-0.031c-0.158,0.104-0.323,0.205-0.49,0.308
					c-0.226,1.05-0.281,2.029-0.123,2.905c0.223,1.237,0.889,2.27,1.823,2.833c0.574,0.346,1.243,0.553,1.891,0.753
					c0.187,0.06,0.379,0.12,0.564,0.181c0.088,0.028,0.177,0.058,0.272,0.088c1.042,0.342,2.498,0.817,3.173,1.765
					c-0.023-0.624,0.021-1.244,0.062-1.853c0.029-0.399,0.058-0.812,0.067-1.217C222.487,53.901,222.087,52.607,221.258,51.615z"/>
			</g>
			<g>
				<path fill="#FFFFFF" d="M202.453,10.489c-1.024-0.067-2.066-0.284-3.093-0.19s-1.943,0.651-2.514,1.509
					c-1.001,1.504-0.601,4.004,0.238,5.001c2.037,0.978,4.315,0.249,5.956-1.063c0.885-0.708,1.559-1.549,2.022-2.588
					c0.428-0.958,0.68-1.982,0.945-2.995C204.89,10.565,203.62,10.566,202.453,10.489z"/>
				<path fill="#FFFFFF" d="M201.269,8.236c-0.101-0.9-0.338-1.813-0.704-2.647c-0.371,0.771-0.975,1.328-1.692,1.802
					c-0.413,0.271-0.845,0.509-1.26,0.773c-0.311,0.194-0.622,0.412-0.81,0.734c-0.115,0.199-0.173,0.421-0.201,0.647
					c0.246,0.509,0.438,1.042,0.566,1.588c0.502-0.515,1.152-0.881,1.92-0.996c0.686-0.104,1.38-0.044,2.071,0.032
					C201.357,9.558,201.336,8.846,201.269,8.236z"/>
				<path fill="#FFFFFF" d="M196.003,14.07c-0.003-1.013,0.364-2.003,1.002-2.748c-0.496-2.333-2.185-4.468-4.426-5.303
					c0.512,0.607,0.822,1.344,0.929,2.138c0.116,0.849,0.031,1.72-0.169,2.548c-0.207,0.854-0.674,1.649-0.649,2.547
					c0.052,1.902,1.831,3.282,3.65,3.289c0.009,0,0.012,0.006,0.021,0.008l0.099-0.45C196.171,15.464,196.005,14.771,196.003,14.07z
					"/>
			</g>
			<g>
				<path fill="#FFFFFF" d="M295.256,40.878c-2.034,0.358-2.975,2.897-2.998,5.141c0.069,0.003,0.18,0.007,0.321,0.007
					c0.884,0,3.096-0.174,4.551-1.803c1.104-1.237,1.554-3.054,1.333-5.404C298.096,39.33,297.043,40.563,295.256,40.878z"/>
				<path fill="#FFFFFF" d="M300.511,41.633c-0.663,0.565-1.506,0.878-2.256,1.052c-0.235,0.633-0.562,1.189-0.985,1.663
					c-1.28,1.433-3.109,1.775-4.189,1.848c-0.031,0.189-0.036,0.305-0.036,0.305C300.831,48.167,300.511,41.633,300.511,41.633z"/>
			</g>
			<g>
				<g>
					<path fill="#FFFFFF" d="M196.188,28.587c0.106-0.901,0.355-1.702,0.677-2.546c0.293-0.765,0.299-1.775-0.055-2.559
						c-0.145,0.752-0.79,1.461-1.3,1.93c-0.506,0.467-1.095,0.89-1.652,1.34c0.114,0.639,0.304,1.264,0.621,1.834
						c0.415,0.739,1.019,1.322,1.74,1.75C196.028,29.788,196.123,29.146,196.188,28.587z"/>
				</g>
				<path fill="#FFFFFF" d="M190.78,24.754c-0.186,1.561,0.315,3.141,0.937,4.561c0.226-0.854,0.754-1.559,1.399-2.162
					c1.059-0.987,2.462-1.709,3.217-2.985c0.245-0.413,0.43-0.925,0.263-1.399c-0.216-0.615-0.896-0.909-1.469-1.092
					c-0.045-0.013-0.059-0.049-0.05-0.084c-0.625-0.155-1.279-0.185-1.903,0.003C191.777,22.011,190.948,23.362,190.78,24.754z"/>
				<g>
					<path fill="#FFFFFF" d="M191.795,22.205c0.189-0.184,0.394-0.335,0.609-0.46c-0.041-0.026-0.081-0.05-0.123-0.073
						c-0.385-0.208-0.783-0.389-1.229-0.352c-0.719,0.063-1.355,0.555-1.836,1.064c-0.588,0.623-0.78,1.424-1.084,2.197
						c-0.235,0.596-0.666,1.051-1.096,1.509c0.592-0.169,1.208-0.233,1.812-0.356c0.734-0.15,1.348-0.463,1.778-1.062
						C190.746,23.752,191.1,22.875,191.795,22.205z"/>
				</g>
			</g>
		</g>
		<g id="Ramas_x5F_inferiores_6_">
			<path fill="#599384" d="M56.775,103.623c0,0,0.179,2.18,1.535,3.02c0.5-0.204,0.822-0.477,0.822-0.477
				c2.148-2.146-0.713-4.867-0.713-4.867c-2.005-1.678-1.863-3.182-1.863-3.182c-3.5,4.578-1.786,7.149-1.786,7.149
				c0.865,1.327,1.828,1.646,2.629,1.592C56.935,106.258,56.388,105.165,56.775,103.623z"/>
			<path fill="#599384" d="M74.006,95.569c0,0,0.26,3.153,2.219,4.364c0.723-0.295,1.188-0.688,1.188-0.688
				c3.105-3.104-1.032-7.034-1.032-7.034c-2.898-2.424-2.691-4.6-2.691-4.6c-5.059,6.617-2.581,10.334-2.581,10.334
				c1.25,1.917,2.643,2.376,3.801,2.301C74.237,99.376,73.447,97.799,74.006,95.569z"/>
			<path fill="#599384" d="M27.899,106.738c0,0,0.171,0.976-0.195,1.758c-0.354,0.749-2.015,3.852,2.003,4.441
				c0.399-1.097-0.308-2.465-0.308-2.465c0.958,0.926,0.993,1.952,0.912,2.528C30.508,112.828,33.27,110.265,27.899,106.738z"/>
			<path fill="#599384" d="M82.95,106.968c0,0-0.295-3.974-3.348-3.668c0,0-0.316,0.057-0.715,0.242
				c-0.009,0.029-0.013,0.05-0.023,0.081c-0.542,1.763,1.491,3.425,1.491,3.425c-1.937-0.728-2.311-2.338-2.383-2.861
				c-0.567,0.589-0.953,1.548-0.461,3.095c0,0,0.919,2.99,6.74,3.176C84.25,110.457,82.983,109.61,82.95,106.968z"/>
			<path fill="#599384" d="M30.841,116.921c0.266,0.466,0.691,1.533,0.001,2.834c0,0,0.3-1.852-0.729-2.696
				c-3.573,2.17-0.77,4.389-0.138,4.929c0.652,0.572,0.891,1.539,0.891,1.539C33.879,118.892,31.685,117.322,30.841,116.921z"/>
			<g>
				<path fill="#599384" d="M98.838,96.604c-2.82-0.276-7.011-0.085-9.664,0.372c-9.777,1.695-25.332,9.226-28.561,9.857
					c-1.143,0.234-3.715,1.329-6.749,1.5c-0.791,0.048-1.81-0.59-2.782-1.465c-0.854-0.771-3.796-3.779-4.89-6.856
					c-0.119,0.077-0.235,0.158-0.361,0.227c-0.291,0.154-0.6,0.286-0.916,0.383c1.134,3.059,4.19,6.101,5.329,7.166
					c1.682,1.575,2.086,1.447-0.047,2.375c-14.198,6.178-28.943,3.153-30.958,2.702c-4.277-0.968-8.21-4.653-10.844-5.263
					c-0.164-0.038-0.31-0.075-0.446-0.107c-0.015,0.576-0.089,1.219-0.235,1.932c8.243,7.974,28.599,6.362,35.919,4.823
					c2.076-0.438,13.354-3.372,15.359-4.078c0.5-0.175,5.472-2.138,5.848-2.275c-0.619,5.092-0.7,4.772-0.2,6.868
					c0.157,0.647,0.605,2.057,1.457,2.857c0.118,0.108,0.284,0.23,0.467,0.356c0.198-0.498,0.575-0.959,1.136-1.378
					c-0.532-0.425-1.171-1.094-1.364-1.555c-0.953-2.301-0.339-5.201,0.681-7.25c0.562-1.128,1.539-1.687,2.634-2.17
					c1.429-0.644,14.554-5.974,20.779-5.873c4.82,0.076,6.049,0.738,8.225,0.838c0.557,0.023,1.476-0.582,1.824-1.41
					C101.224,97.391,99.539,96.676,98.838,96.604z"/>
			</g>
		</g>
		<g id="Ramas_x5F_superiores_6_">
			<path fill="#599384" d="M265.321,38.856c0,0,0.218,1.182-0.233,2.134c-0.433,0.906-2.456,4.684,2.43,5.392
				c0.487-1.333-0.373-2.996-0.373-2.996c1.166,1.125,1.206,2.368,1.106,3.067C268.476,46.257,271.861,43.143,265.321,38.856z"/>
			<path fill="#599384" d="M230.72,22.174c0,0,0.186,1.985-2.462,4.204c0,0-3.782,3.597-0.943,6.435c0,0,0.426,0.359,1.086,0.632
				c1.795-1.111,2.033-3.993,2.033-3.993c0.509,2.041-0.216,3.484-0.833,4.28c1.062,0.07,2.335-0.347,3.481-2.104
				C233.083,31.627,235.35,28.221,230.72,22.174z"/>
			<path fill="#599384" d="M213.774,6.891c0,0,0.267,2.804-3.467,5.943c0,0-5.348,5.072-1.338,9.077c0,0,0.604,0.513,1.544,0.897
				c2.532-1.568,2.862-5.637,2.862-5.637c0.72,2.881-0.301,4.919-1.167,6.043c1.498,0.1,3.297-0.492,4.91-2.971
				C217.118,20.244,220.318,15.438,213.774,6.891z"/>
			<path fill="#599384" d="M209.87,31.366c-0.072-2.284-1.022-3.396-2.052-3.93c0.123,1.089-0.019,2.844-1.648,4.455
				c0,0,1.406-2.821,0.366-4.868c-0.775-0.121-1.38-0.027-1.38-0.027c-4.254,1.041-2.756,6.537-2.756,6.537
				c1.212,3.569-0.092,5.319-0.092,5.319C210.059,35.821,209.87,31.366,209.87,31.366z"/>
			<path fill="#599384" d="M293.38,46.563c-1.063,0.483-2.267,1.016-2.779,1.224c-0.038,0.019-0.077-0.177-0.038-0.2
				c0.538-0.335,1.209-0.95,1.742-1.566c-0.014-0.001-0.035-0.001-0.047-0.002c0.003-0.339,0.031-0.686,0.077-1.029
				c-0.729,0.456-1.583,1.011-1.691,1.063c-19.584,9.849-48.351-5.978-51.952-7.763c-0.267-0.129-0.566-0.362-0.271-0.429
				c2.949-0.652,7.606-5.012,9.512-8.711c-0.032,0.001-0.068-0.01-0.098-0.041c-0.349-0.349-0.643-0.915-0.8-1.245
				c-0.178-0.013-0.357-0.025-0.531-0.056c-0.236,0.45-0.463,0.829-0.645,1.037c-1.039,1.195-7.106,10.264-14.249,7.238
				c-1.744-0.736-3.334-1.704-5.006-2.627c-9.759-5.916-15.707-10.008-35.829-17.185c-17.556-6.258-42.703,0.719-46.679,2.69
				c-1.481,0.738-5.572,3.195-3.862,3.844c0.814,0.31,3.015-1.086,3.015-1.086c2.776-1.376,6.743-2.387,9.706-3.058
				c25.099-5.716,41.545,1.515,54.241,7.082c6.501,2.853,9.496,5.015,10.863,6.667c2.462,6.661,1.481,10.575,0.041,12.773
				c0.043,0.94-0.128,1.93-0.741,2.795c-0.132,0.186-0.301,0.407-0.485,0.629c0.164,0.065,0.328,0.131,0.493,0.199
				c6.25-4.058,3.335-15.548,3.335-15.548c1.224,0.671,2.662,1.458,3.838,2.124c1.805,1.01,1.715,1.786,2.33,2.506
				c0.495,0.575,1.447,0.752,1.504,0.471c0.085-0.447-0.258-1.224-0.301-1.543c0-0.043,0.043-0.076,0.081-0.058
				c0.557,0.301,3.687,2.172,7.796,3.872c4.629,1.919,10.364,3.834,13.064,4.973c11.32,4.757,26.19,5.539,28.695,5.506
				c7.938-0.111,15.602-2.428,19.773-4.666C296.486,46.799,295.15,46.898,293.38,46.563z"/>
			<path fill="#599384" d="M300.394,42.879c-0.159,0.804-0.53,1.844-1.384,2.648C300.559,44.457,301.152,43.482,300.394,42.879z"/>
		</g>
	</g>
</g>
<g id="B_x2F_N">
</g>
<g id="Logo_x5F_Rosa">
</g>
<g id="Logo_x5F_Morado">
</g>
<g id="Paleta_x5F_Cromatica">
</g>
</svg>
