<?xml version="1.0" encoding="utf-8"?>
<!-- Generator: Adobe Illustrator 16.0.0, SVG Export Plug-In . SVG Version: 6.00 Build 0)  -->
<!DOCTYPE svg PUBLIC "-//W3C//DTD SVG 1.1//EN" "http://www.w3.org/Graphics/SVG/1.1/DTD/svg11.dtd">
<svg version="1.1" id="Layer_1" xmlns="http://www.w3.org/2000/svg" xmlns:xlink="http://www.w3.org/1999/xlink" x="0px" y="0px"
	 width="68px" height="68px" viewBox="0 0 68 68" enable-background="new 0 0 68 68" xml:space="preserve">
<g>
	<defs>
		<rect id="SVGID_1_" x="0.001" y="-0.003" width="68" height="68"/>
	</defs>
	<use xlink:href="#SVGID_1_"  overflow="visible" fill="#FFFFFF"/>
	<clipPath id="SVGID_2_">
		<use xlink:href="#SVGID_1_"  overflow="visible"/>
	</clipPath>
	<g clip-path="url(#SVGID_2_)">
		<g>
			<g>
				<path fill="#DF2085" d="M68.001,73.823c-3.21,0-5.823-2.61-5.823-5.826c0-3.206,2.613-5.824,5.823-5.824
					c3.213,0.004,5.826,2.614,5.826,5.824C73.827,71.209,71.214,73.823,68.001,73.823z M68.001,63.865
					c-2.28,0-4.135,1.854-4.135,4.132c0,2.282,1.854,4.137,4.135,4.137c2.281,0,4.138-1.854,4.138-4.133
					C72.139,65.72,70.282,63.865,68.001,63.865z"/>
			</g>
			<g>
				<path fill="#DF2085" d="M73.072,46.638c-1.914-0.227-2.865,0.754-2.865,0.754s2.192-4.807-2.082-7.971
					c-0.066-0.051-0.177-0.051-0.246,0c-4.276,3.164-2.082,7.971-2.082,7.971s-0.95-0.98-2.867-0.754
					c-1.878,0.23-2.583,1.93-2.347,2.07c0.151,0.093,0.601,0.055,1.857,0.945c0.599,0.423,1.34,1.056,2.232,2.012
					c2.533,2.723,2.77,6.626,2.906,7.797c0.146,1.174,0.238,1.427,0.422,1.427c0.202,0,0.279-0.253,0.42-1.427
					c0.139-1.171,0.374-5.074,2.913-7.797c0.889-0.956,1.633-1.589,2.226-2.012c1.26-0.893,1.707-0.855,1.859-0.945
					C75.652,48.567,74.946,46.868,73.072,46.638z"/>
			</g>
			<g>
				<path fill="#DF2085" d="M56.48,49.312c-1.516,1.189-1.494,2.56-1.494,2.56s-1.848-4.952-7.11-4.168
					c-0.082,0.014-0.158,0.091-0.168,0.172c-0.79,5.266,4.163,7.11,4.163,7.11s-1.368-0.021-2.557,1.493
					c-1.168,1.49-0.469,3.19-0.2,3.124c0.174-0.045,0.466-0.389,1.98-0.646c0.72-0.122,1.693-0.199,3.002-0.148
					c3.717,0.128,6.642,2.722,7.571,3.452c0.932,0.729,1.179,0.84,1.307,0.713c0.145-0.144,0.018-0.376-0.715-1.306
					c-0.729-0.933-3.322-3.855-3.45-7.571c-0.049-1.31,0.026-2.282,0.149-2.999c0.261-1.518,0.6-1.812,0.646-1.985
					C59.67,48.845,57.97,48.146,56.48,49.312z"/>
			</g>
			<g>
				<path fill="#DF2085" d="M46.643,62.929c-0.233,1.915,0.751,2.868,0.751,2.868s-4.81-2.2-7.97,2.08
					c-0.053,0.067-0.053,0.174,0,0.244c3.16,4.276,7.97,2.081,7.97,2.081s-0.981,0.952-0.751,2.865
					c0.227,1.878,1.928,2.584,2.068,2.349c0.088-0.152,0.054-0.603,0.942-1.858c0.422-0.597,1.057-1.337,2.013-2.227
					c2.727-2.54,6.626-2.773,7.8-2.914c1.169-0.142,1.429-0.235,1.425-0.42c0.004-0.199-0.252-0.277-1.425-0.417
					c-1.174-0.14-5.073-0.376-7.8-2.912c-0.956-0.894-1.591-1.63-2.013-2.23c-0.889-1.254-0.854-1.705-0.942-1.856
					C48.57,60.345,46.869,61.053,46.643,62.929z"/>
			</g>
			<g>
				<path fill="#DF2085" d="M61.981,53.626c-1.335,5.099,2.679,7.487,3.247,7.799c0.043,0.021,0.072,0.007,0.084-0.035
					c0.185-0.623,1.335-5.148-3.221-7.811C62.047,53.555,61.994,53.572,61.981,53.626z"/>
			</g>
			<g>
				<path fill="#DF2085" d="M53.579,62.092c2.661,4.55,7.191,3.404,7.812,3.219c0.043-0.009,0.057-0.041,0.036-0.086
					c-0.312-0.565-2.698-4.581-7.8-3.245C53.577,61.991,53.555,62.045,53.579,62.092z"/>
			</g>
		</g>
		<g>
			<g>
				<path fill="#DF2085" d="M73.825-0.003c0,3.211-2.611,5.824-5.822,5.824c-3.212,0-5.825-2.613-5.825-5.824s2.614-5.82,5.825-5.82
					S73.825-3.21,73.825-0.003z M63.866-0.003c0,2.284,1.854,4.136,4.137,4.136c2.279,0,4.132-1.852,4.136-4.136
					c-0.004-2.279-1.856-4.135-4.136-4.135C65.721-4.138,63.866-2.282,63.866-0.003z"/>
			</g>
			<g>
				<path fill="#DF2085" d="M46.643-5.073c-0.23,1.917,0.751,2.865,0.751,2.865s-4.81-2.191-7.97,2.084
					c-0.053,0.068-0.053,0.178,0,0.247c3.16,4.274,7.97,2.079,7.97,2.079s-0.981,0.952-0.751,2.865
					c0.227,1.877,1.928,2.582,2.068,2.349c0.088-0.151,0.054-0.603,0.942-1.859c0.422-0.597,1.057-1.337,2.013-2.226
					c2.727-2.535,6.626-2.771,7.8-2.911c1.173-0.145,1.425-0.238,1.429-0.423c-0.004-0.199-0.26-0.277-1.429-0.418
					c-1.174-0.141-5.073-0.378-7.8-2.911c-0.956-0.894-1.591-1.63-2.013-2.227c-0.889-1.258-0.856-1.709-0.942-1.859
					C48.57-7.65,46.869-6.947,46.643-5.073z"/>
			</g>
			<g>
				<path fill="#DF2085" d="M49.314,11.519c1.188,1.514,2.557,1.492,2.557,1.492s-4.953,1.851-4.163,7.109
					c0.01,0.084,0.086,0.164,0.168,0.172c5.263,0.787,7.11-4.16,7.11-4.16s-0.021,1.365,1.494,2.556
					c1.489,1.165,3.189,0.464,3.125,0.198c-0.047-0.175-0.386-0.467-0.646-1.979c-0.123-0.722-0.198-1.697-0.149-3.002
					c0.128-3.722,2.721-6.645,3.45-7.574c0.732-0.929,0.847-1.176,0.715-1.307C62.83,4.883,62.6,5.008,61.668,5.741
					c-0.928,0.727-3.854,3.317-7.571,3.449c-1.309,0.047-2.282-0.028-3.002-0.15c-1.515-0.259-1.807-0.604-1.98-0.645
					C48.846,8.329,48.146,10.027,49.314,11.519z"/>
			</g>
			<g>
				<path fill="#DF2085" d="M62.93,21.356c1.911,0.231,2.867-0.753,2.867-0.753s-2.194,4.809,2.082,7.975
					c0.069,0.051,0.176,0.051,0.246,0c4.274-3.166,2.08-7.975,2.08-7.975s0.953,0.984,2.867,0.753
					c1.874-0.227,2.58-1.927,2.347-2.066c-0.152-0.092-0.6-0.053-1.859-0.945c-0.599-0.421-1.337-1.054-2.226-2.013
					c-2.539-2.725-2.774-6.624-2.913-7.798c-0.141-1.172-0.237-1.429-0.42-1.429c-0.2,0-0.275,0.257-0.422,1.429
					c-0.137,1.174-0.373,5.073-2.906,7.798c-0.893,0.959-1.634,1.592-2.232,2.013c-1.257,0.893-1.706,0.854-1.857,0.945
					C60.347,19.43,61.057,21.13,62.93,21.356z"/>
			</g>
			<g>
				<path fill="#DF2085" d="M53.627,6.018c5.102,1.333,7.488-2.673,7.8-3.242c0.021-0.045,0.007-0.077-0.036-0.092
					c-0.62-0.18-5.15-1.327-7.812,3.225C53.557,5.952,53.577,6.005,53.627,6.018z"/>
			</g>
			<g>
				<path fill="#DF2085" d="M62.092,14.419c4.556-2.664,3.405-7.189,3.221-7.809c-0.012-0.048-0.041-0.06-0.084-0.037
					c-0.568,0.309-4.582,2.699-3.247,7.799C61.994,14.421,62.047,14.448,62.092,14.419z"/>
			</g>
		</g>
		<g>
			<g>
				<path fill="#DF2085" d="M0.001-5.823c3.21,0,5.825,2.609,5.825,5.82S3.211,5.821,0.001,5.821c-3.212,0-5.825-2.613-5.825-5.824
					S-3.211-5.823,0.001-5.823z M0.001,4.133c2.28,0,4.136-1.854,4.134-4.136c0-2.277-1.854-4.135-4.134-4.135
					C-2.283-4.136-4.138-2.28-4.138-0.003C-4.138,2.279-2.283,4.131,0.001,4.133z"/>
			</g>
			<g>
				<g>
					<path fill="#DF2085" d="M-5.071,21.356c1.916,0.231,2.865-0.753,2.865-0.753s-2.192,4.809,2.084,7.975
						c0.067,0.051,0.176,0.051,0.243,0c4.276-3.166,2.083-7.975,2.083-7.975s0.95,0.984,2.865,0.753
						c1.875-0.227,2.585-1.927,2.348-2.066c-0.15-0.092-0.6-0.053-1.855-0.945c-0.598-0.421-1.337-1.054-2.233-2.013
						c-2.534-2.725-2.767-6.624-2.912-7.798C0.278,7.362,0.184,7.105-0.001,7.105c-0.201,0-0.277,0.257-0.418,1.429
						c-0.143,1.174-0.378,5.073-2.913,7.798c-0.893,0.959-1.629,1.592-2.227,2.013c-1.26,0.893-1.706,0.854-1.86,0.945
						C-7.651,19.43-6.946,21.131-5.071,21.356z"/>
				</g>
			</g>
			<g>
				<g>
					<path fill="#DF2085" d="M11.521,18.688c1.516-1.19,1.493-2.556,1.493-2.556s1.847,4.947,7.111,4.166
						c0.082-0.014,0.158-0.094,0.171-0.178c0.788-5.259-4.163-7.109-4.163-7.109s1.365,0.021,2.555-1.492
						c1.166-1.491,0.466-3.189,0.202-3.123c-0.176,0.041-0.468,0.386-1.982,0.645c-0.721,0.122-1.694,0.197-3.003,0.154
						c-3.716-0.136-6.643-2.727-7.573-3.453C5.402,5.008,5.154,4.895,5.025,5.023C4.887,5.165,5.01,5.401,5.741,6.33
						c0.728,0.93,3.322,3.853,3.453,7.574c0.049,1.305-0.026,2.276-0.153,3.002c-0.257,1.513-0.598,1.805-0.645,1.979
						C8.33,19.151,10.03,19.853,11.521,18.688z"/>
				</g>
			</g>
			<g>
				<g>
					<path fill="#DF2085" d="M21.361,5.067c0.23-1.913-0.754-2.865-0.754-2.865s4.81,2.195,7.975-2.079
						c0.049-0.069,0.049-0.179,0-0.247c-3.165-4.275-7.975-2.084-7.975-2.084s0.984-0.948,0.754-2.865
						c-0.229-1.874-1.93-2.577-2.07-2.345c-0.092,0.15-0.054,0.602-0.942,1.859c-0.424,0.597-1.056,1.333-2.016,2.225
						c-2.725,2.537-6.621,2.772-7.796,2.913C7.363-0.28,7.11-0.184,7.11-0.003c0,0.199,0.25,0.278,1.427,0.42
						c1.175,0.143,5.071,0.379,7.796,2.914c0.958,0.889,1.592,1.629,2.016,2.226c0.889,1.257,0.851,1.708,0.942,1.859
						C19.432,7.649,21.133,6.944,21.361,5.067z"/>
				</g>
			</g>
			<g>
				<path fill="#DF2085" d="M6.02,14.372c1.335-5.1-2.679-7.49-3.244-7.799C2.729,6.551,2.7,6.563,2.687,6.61
					c-0.185,0.619-1.332,5.145,3.224,7.809C5.953,14.448,6.007,14.421,6.02,14.372z"/>
			</g>
			<g>
				<path fill="#DF2085" d="M14.421,5.908c-2.667-4.552-7.189-3.404-7.813-3.225C6.568,2.698,6.555,2.73,6.574,2.775
					c0.311,0.569,2.702,4.575,7.8,3.242C14.423,6.005,14.449,5.952,14.421,5.908z"/>
			</g>
		</g>
		<g>
			<g>
				<path fill="#DF2085" d="M-5.824,67.997c0-3.21,2.613-5.824,5.823-5.824c3.212,0,5.827,2.614,5.827,5.824
					c0,3.212-2.615,5.826-5.827,5.826C-3.211,73.823-5.824,71.209-5.824,67.997z M4.135,67.997c0-2.277-1.855-4.136-4.136-4.136
					c-2.277,0-4.137,1.858-4.137,4.136c0,2.284,1.859,4.137,4.137,4.137C2.279,72.134,4.135,70.281,4.135,67.997z"/>
			</g>
			<g>
				<path fill="#DF2085" d="M21.361,73.067c0.23-1.913-0.754-2.865-0.754-2.865s4.81,2.195,7.975-2.079
					c0.049-0.067,0.049-0.179,0-0.246c-3.165-4.28-7.975-2.08-7.975-2.08s0.984-0.953,0.754-2.868
					c-0.229-1.876-1.93-2.584-2.07-2.348c-0.092,0.151-0.054,0.603-0.942,1.856c-0.424,0.597-1.058,1.337-2.016,2.229
					c-2.725,2.538-6.621,2.774-7.796,2.914C7.36,67.72,7.11,67.817,7.11,67.997c0,0.205,0.253,0.278,1.427,0.42
					c1.175,0.141,5.071,0.374,7.796,2.914c0.96,0.89,1.592,1.63,2.016,2.227c0.889,1.256,0.851,1.706,0.942,1.858
					C19.432,75.651,21.133,74.945,21.361,73.067z"/>
			</g>
			<g>
				<path fill="#DF2085" d="M18.688,56.479c-1.189-1.515-2.554-1.493-2.554-1.493s4.95-1.845,4.164-7.11
					c-0.015-0.081-0.091-0.158-0.173-0.172c-5.265-0.784-7.111,4.168-7.111,4.168s0.022-1.37-1.493-2.56
					c-1.49-1.166-3.19-0.467-3.124-0.2c0.047,0.174,0.388,0.468,0.645,1.985c0.127,0.717,0.202,1.689,0.153,2.999
					c-0.131,3.716-2.726,6.639-3.453,7.571c-0.731,0.928-0.847,1.179-0.716,1.306c0.141,0.144,0.377,0.016,1.306-0.713
					c0.931-0.73,3.857-3.324,7.573-3.452c1.309-0.051,2.282,0.026,3.003,0.148c1.515,0.258,1.807,0.602,1.982,0.646
					C19.153,59.669,19.854,57.969,18.688,56.479z"/>
			</g>
			<g>
				<path fill="#DF2085" d="M5.069,46.638c-1.915-0.227-2.865,0.754-2.865,0.754s2.193-4.807-2.083-7.971
					c-0.066-0.051-0.176-0.051-0.243,0c-4.276,3.164-2.084,7.971-2.084,7.971s-0.949-0.98-2.865-0.754
					c-1.875,0.23-2.58,1.93-2.348,2.07c0.154,0.09,0.601,0.053,1.86,0.945c0.598,0.417,1.334,1.054,2.227,2.012
					c2.536,2.723,2.771,6.626,2.913,7.797c0.141,1.174,0.236,1.432,0.42,1.427c0.201,0,0.277-0.253,0.415-1.427
					c0.146-1.171,0.378-5.074,2.918-7.797c0.891-0.956,1.63-1.589,2.228-2.012c1.256-0.891,1.705-0.853,1.855-0.945
					C7.654,48.567,6.944,46.868,5.069,46.638z"/>
			</g>
			<g>
				<path fill="#DF2085" d="M14.374,61.979c-5.098-1.336-7.489,2.68-7.8,3.245c-0.02,0.045-0.006,0.077,0.034,0.086
					c0.623,0.186,5.148,1.331,7.813-3.219C14.449,62.045,14.423,61.991,14.374,61.979z"/>
			</g>
			<g>
				<path fill="#DF2085" d="M5.91,53.579c-4.554,2.662-3.408,7.188-3.224,7.811c0.014,0.042,0.043,0.056,0.089,0.033
					c0.565-0.31,4.579-2.698,3.244-7.797C6.007,53.572,5.953,53.555,5.91,53.579z"/>
			</g>
		</g>
		<g>
			<path fill="#DF2085" d="M34.001,35.357l-0.661-0.833c-0.411-0.516-10.02-12.73-8.73-20.646c1.015-6.225,5.695-8.435,9.392-8.435
				c1.338,0,8.083,0.403,9.392,8.435l0,0c1.289,7.915-8.32,20.13-8.731,20.646L34.001,35.357z M34.001,7.132
				c-1.1,0-6.636,0.337-7.723,7.018c-0.988,6.058,5.573,15.547,7.723,18.448c2.146-2.903,8.707-12.394,7.723-18.443
				C40.662,7.638,35.545,7.129,34.001,7.132z"/>
		</g>
		<g>
			<path fill="#DF2085" d="M15.42,43.51c-0.525,0-1.04-0.037-1.54-0.118c-6.225-1.02-8.433-5.697-8.433-9.393
				c0-1.342,0.404-8.081,8.433-9.393l0,0c7.899-1.295,20.128,8.32,20.647,8.729l0.832,0.663l-0.832,0.662
				C34.043,35.045,23.286,43.51,15.42,43.51z M14.153,26.274c-6.512,1.064-7.022,6.182-7.022,7.725c0,1.095,0.339,6.639,7.022,7.725
				c6.037,0.976,15.542-5.58,18.449-7.725C29.7,31.854,20.204,25.295,14.153,26.274L14.153,26.274z"/>
		</g>
		<g>
			<path fill="#DF2085" d="M34.001,62.554c-1.339,0-8.085-0.407-9.392-8.438l0,0c-1.289-7.911,8.322-20.128,8.729-20.645
				l0.663-0.831l0.66,0.831c0.409,0.517,10.021,12.733,8.731,20.645C42.372,60.35,37.701,62.554,34.001,62.554z M34.001,35.397
				c-2.146,2.904-8.711,12.396-7.723,18.447l0,0c1.061,6.514,6.179,7.023,7.723,7.019c1.1,0,6.636-0.339,7.723-7.019
				C42.708,47.794,36.146,38.302,34.001,35.397z"/>
		</g>
		<g>
			<path fill="#DF2085" d="M52.58,43.51c-7.864,0-18.623-8.465-19.104-8.849l-0.837-0.662l0.837-0.663
				c0.514-0.409,12.702-10.021,20.646-8.729c6.226,1.018,8.435,5.693,8.435,9.393c0,1.339-0.405,8.084-8.435,9.389l0,0
				C53.625,43.473,53.11,43.51,52.58,43.51z M35.398,33.999c2.908,2.145,12.399,8.7,18.45,7.725
				c6.511-1.063,7.021-6.181,7.021-7.725c0-1.099-0.339-6.638-7.021-7.725C47.809,25.287,38.305,31.854,35.398,33.999z"/>
		</g>
		<g>
			<g>
				<path fill="#ECB781" d="M25.742,33.589c-1.347-0.17-3.683-0.595-5.418-2.149c-0.771-0.684-1.274-1.252-1.614-1.711
					c-0.71-0.965-0.68-1.311-0.755-1.429c-0.114-0.179-1.469,0.363-1.65,1.807c-0.188,1.468,0.598,2.197,0.598,2.197
					s-3.84-1.682-6.375,1.603c-0.039,0.047-0.039,0.135,0,0.186c2.535,3.285,6.375,1.602,6.375,1.602s-0.785,0.729-0.598,2.198
					c0.176,1.441,1.536,1.985,1.65,1.803C18.03,39.58,18,39.235,18.71,38.269c0.34-0.457,0.844-1.024,1.614-1.713
					c1.735-1.551,4.071-1.98,5.418-2.147C25.733,34.134,25.73,33.86,25.742,33.589z"/>
			</g>
			<g>
				<path fill="#ECB781" d="M28.304,17.954c0.115,0.073,0.46,0.042,1.429,0.754c0.46,0.34,1.022,0.848,1.711,1.611
					c1.555,1.738,1.981,4.074,2.148,5.42c0.271-0.009,0.547-0.009,0.818,0c0.166-1.346,0.593-3.682,2.148-5.42
					c0.687-0.764,1.251-1.271,1.713-1.611c0.966-0.712,1.309-0.681,1.426-0.754c0.179-0.113-0.362-1.469-1.803-1.654
					c-1.471-0.186-2.201,0.602-2.201,0.602s1.683-3.846-1.598-6.377c-0.053-0.042-0.14-0.042-0.19,0
					c-3.28,2.531-1.599,6.377-1.599,6.377s-0.729-0.787-2.2-0.602C28.666,16.485,28.123,17.841,28.304,17.954z"/>
			</g>
			<g>
				<path fill="#ECB781" d="M39.697,50.043c-0.117-0.071-0.46-0.044-1.426-0.754c-0.462-0.339-1.027-0.845-1.713-1.613
					c-1.556-1.733-1.982-4.07-2.148-5.423c-0.271,0.016-0.547,0.016-0.818,0c-0.167,1.353-0.594,3.688-2.148,5.423
					c-0.685,0.769-1.251,1.274-1.711,1.613c-0.969,0.71-1.313,0.683-1.43,0.754c-0.18,0.114,0.363,1.472,1.804,1.656
					c1.471,0.181,2.2-0.603,2.2-0.603s-1.682,3.842,1.601,6.376c0.05,0.037,0.136,0.037,0.187,0c3.282-2.534,1.6-6.376,1.6-6.376
					s0.73,0.783,2.201,0.603C39.335,51.515,39.876,50.157,39.697,50.043z"/>
			</g>
			<g>
				<path fill="#ECB781" d="M57.471,33.906c-2.53-3.284-6.376-1.603-6.376-1.603s0.79-0.729,0.603-2.197
					c-0.179-1.443-1.539-1.983-1.651-1.807c-0.07,0.12-0.046,0.464-0.754,1.429c-0.342,0.459-0.845,1.027-1.613,1.711
					c-1.737,1.555-4.071,1.984-5.423,2.149c0.014,0.271,0.014,0.545,0,0.819c1.352,0.167,3.686,0.597,5.423,2.147
					c0.769,0.688,1.271,1.256,1.613,1.713c0.708,0.967,0.684,1.31,0.754,1.426c0.112,0.183,1.469-0.358,1.651-1.803
					c0.188-1.47-0.603-2.2-0.603-2.2s3.846,1.686,6.376-1.6C57.512,34.041,57.512,33.959,57.471,33.906z"/>
			</g>
		</g>
		<g>
			<path fill="#DF2085" d="M37.619,37.615L37.619,37.615c1.994-1.995,1.994-5.236,0-7.23v-0.004c-1.999-1.995-5.238-1.995-7.233,0
				l-0.004,0.004c-1.996,1.994-1.996,5.235,0,7.23h0.004C32.381,39.611,35.62,39.611,37.619,37.615z"/>
		</g>
	</g>
</g>
</svg>
