<?xml version="1.0" encoding="utf-8"?>
<!-- Generator: Adobe Illustrator 16.0.0, SVG Export Plug-In . SVG Version: 6.00 Build 0)  -->
<!DOCTYPE svg PUBLIC "-//W3C//DTD SVG 1.1//EN" "http://www.w3.org/Graphics/SVG/1.1/DTD/svg11.dtd">
<svg version="1.1" id="Layer_1" xmlns="http://www.w3.org/2000/svg" xmlns:xlink="http://www.w3.org/1999/xlink" x="0px" y="0px"
	 width="68px" height="68px" viewBox="0 0 68 68" enable-background="new 0 0 68 68" xml:space="preserve">
<g>
	<rect fill="#DF2085" width="68" height="68"/>
	<g>
		<defs>
			<rect id="SVGID_3_" width="68" height="68"/>
		</defs>
		<clipPath id="SVGID_2_">
			<use xlink:href="#SVGID_3_"  overflow="visible"/>
		</clipPath>
		<g clip-path="url(#SVGID_2_)">
			<path fill="#6F9DAB" d="M32.279,63.09c0-0.953,0.773-1.72,1.721-1.726c0.948,0.006,1.722,0.772,1.722,1.726
				c-0.003,0.949-0.771,1.716-1.722,1.716C33.053,64.806,32.279,64.037,32.279,63.09z"/>
			<path fill="#6F9DAB" d="M32.278,4.911c0,0.95,0.774,1.718,1.719,1.718c0.951,0,1.722-0.768,1.722-1.718
				c0.003-0.948-0.771-1.72-1.722-1.72C33.053,3.191,32.279,3.963,32.278,4.911z"/>
			<path fill="#FFFFFF" d="M43.543,61.53c-0.363-0.875,0.053-1.883,0.931-2.245c0.878-0.365,1.886,0.054,2.25,0.928
				c0.365,0.88-0.056,1.886-0.935,2.253C44.911,62.827,43.906,62.409,43.543,61.53z"/>
			<path fill="#FFFFFF" d="M21.28,7.782c0.362,0.883,1.37,1.298,2.249,0.935c0.879-0.365,1.292-1.37,0.931-2.25
				c-0.364-0.877-1.372-1.296-2.249-0.931C21.334,5.902,20.916,6.908,21.28,7.782z"/>
			<circle fill="#6F9DAB" cx="54.569" cy="54.568" r="1.72"/>
			<path fill="#6F9DAB" d="M12.217,14.648c0.671,0.67,1.762,0.67,2.432,0c0.676-0.673,0.676-1.761,0-2.435
				c-0.67-0.671-1.759-0.671-2.432,0C11.547,12.888,11.547,13.976,12.217,14.648z"/>
			<path fill="#FFFFFF" d="M60.216,46.72c-0.875-0.361-1.294-1.37-0.929-2.247c0.359-0.877,1.366-1.294,2.246-0.931
				c0.883,0.363,1.295,1.371,0.933,2.245C62.102,46.666,61.094,47.085,60.216,46.72z"/>
			<path fill="#FFFFFF" d="M6.466,24.459c0.881,0.364,1.888-0.053,2.253-0.935c0.36-0.877-0.055-1.884-0.934-2.245
				c-0.879-0.366-1.883,0.05-2.247,0.932C5.172,23.09,5.586,24.094,6.466,24.459z"/>
			<path fill="#6F9DAB" d="M63.09,35.719c-0.95,0-1.719-0.769-1.719-1.721c0-0.948,0.769-1.715,1.719-1.715s1.723,0.767,1.721,1.715
				C64.811,34.95,64.04,35.719,63.09,35.719z"/>
			<path fill="#6F9DAB" d="M4.912,35.719c0.95,0,1.724-0.769,1.724-1.721c0-0.948-0.773-1.72-1.722-1.72
				c-0.952,0.005-1.725,0.771-1.723,1.72C3.191,34.95,3.962,35.719,4.912,35.719z"/>
			<path fill="#FFFFFF" d="M61.533,24.459c-0.88,0.364-1.887-0.055-2.246-0.935c-0.365-0.877,0.054-1.88,0.929-2.245
				c0.878-0.366,1.886,0.05,2.25,0.932C62.828,23.09,62.416,24.094,61.533,24.459z"/>
			<path fill="#FFFFFF" d="M7.785,46.72c0.879-0.363,1.294-1.37,0.934-2.247c-0.365-0.877-1.372-1.296-2.253-0.931
				c-0.876,0.364-1.294,1.371-0.928,2.245C5.902,46.668,6.906,47.085,7.785,46.72z"/>
			<circle fill="#6F9DAB" cx="54.569" cy="13.431" r="1.721"/>
			<path fill="#6F9DAB" d="M14.648,55.788c0.676-0.676,0.676-1.767,0.004-2.436c-0.674-0.67-1.763-0.67-2.432,0
				c-0.674,0.671-0.674,1.76-0.004,2.436C12.89,56.458,13.979,56.458,14.648,55.788z"/>
			<path fill="#FFFFFF" d="M46.724,7.782c-0.364,0.883-1.372,1.294-2.25,0.935c-0.878-0.365-1.294-1.37-0.931-2.25
				c0.363-0.877,1.368-1.296,2.246-0.931C46.668,5.898,47.089,6.908,46.724,7.782z"/>
			<path fill="#FFFFFF" d="M24.46,61.535c0.361-0.882-0.052-1.886-0.933-2.25c-0.877-0.365-1.885,0.054-2.247,0.932
				c-0.364,0.874,0.054,1.882,0.928,2.249C23.092,62.827,24.094,62.409,24.46,61.535z"/>
			<g>
				<path fill="#FFFFFF" d="M34-20.44l54.441,54.438L33.997,88.441l-54.439-54.443L34-20.44z M82.613,33.998L33.997-14.616
					l-48.61,48.614L34,82.616L82.613,33.998z"/>
			</g>
			<path fill="#FFFFFF" d="M27.849,33.417l5.573-5.569c0.322-0.323,0.838-0.322,1.161,0l5.574,5.569
				c0.317,0.322,0.317,0.842,0,1.163l-5.574,5.571c-0.323,0.323-0.839,0.323-1.161,0l-5.573-5.571
				C27.525,34.259,27.525,33.739,27.849,33.417z"/>
			<path fill="#FFFFFF" d="M9.878,28.558c-0.248,2.051,0.808,3.078,0.808,3.078s-5.158-2.36-8.562,2.231
				c-0.052,0.071-0.052,0.191,0,0.263c3.397,4.594,8.562,2.238,8.562,2.238s-1.056,1.017-0.808,3.076
				c0.244,2.014,2.069,2.769,2.22,2.517c0.099-0.161,0.062-0.643,1.016-1.993c0.453-0.642,1.137-1.436,2.164-2.395
				c2.92-2.718,7.106-2.975,8.37-3.125c1.26-0.148,1.53-0.254,1.53-0.45c-0.002-0.213-0.271-0.297-1.53-0.449
				c-1.262-0.148-5.45-0.403-8.37-3.125c-1.027-0.96-1.711-1.748-2.164-2.391c-0.954-1.35-0.919-1.833-1.016-1.996
				C11.947,25.785,10.122,26.545,9.878,28.558z"/>
			<path fill="#FFFFFF" d="M13.094,47.212c1.276,1.626,2.746,1.602,2.746,1.602s-5.316,1.984-4.478,7.636
				c0.013,0.089,0.099,0.173,0.187,0.188c5.652,0.841,7.638-4.476,7.638-4.476s-0.026,1.47,1.605,2.745
				c1.594,1.253,3.419,0.504,3.349,0.215c-0.045-0.186-0.415-0.497-0.692-2.126c-0.133-0.772-0.214-1.814-0.163-3.223
				c0.145-3.991,2.925-7.13,3.707-8.129s0.905-1.264,0.766-1.403c-0.151-0.15-0.402-0.015-1.399,0.766
				c-0.997,0.788-4.138,3.57-8.133,3.708c-1.401,0.05-2.448-0.027-3.219-0.158c-1.631-0.284-1.942-0.649-2.129-0.695
				C12.595,43.789,11.843,45.613,13.094,47.212z"/>
			<path fill="#FFFFFF" d="M28.561,58.124c2.05,0.246,3.073-0.81,3.073-0.81s-2.354,5.162,2.236,8.557
				c0.073,0.058,0.188,0.058,0.264,0.005c4.589-3.399,2.232-8.562,2.232-8.562s1.024,1.056,3.077,0.81
				c2.017-0.244,2.774-2.069,2.521-2.222c-0.164-0.096-0.645-0.055-1.994-1.013c-0.646-0.451-1.437-1.134-2.395-2.164
				c-2.725-2.925-2.974-7.11-3.123-8.371C34.301,43.094,34.2,42.823,34,42.823c-0.213,0-0.299,0.271-0.449,1.533
				c-0.151,1.259-0.402,5.444-3.127,8.369c-0.954,1.03-1.751,1.713-2.393,2.164c-1.35,0.952-1.828,0.917-1.992,1.013
				C25.786,56.055,26.546,57.88,28.561,58.124z"/>
			<path fill="#FFFFFF" d="M13.094,20.791c1.274-1.633,2.746-1.609,2.746-1.609s-5.316-1.985-4.475-7.629
				c0.014-0.089,0.096-0.176,0.184-0.187c5.652-0.848,7.638,4.474,7.638,4.474s-0.026-1.474,1.605-2.752
				c1.594-1.247,3.419-0.496,3.349-0.213c-0.045,0.187-0.414,0.503-0.692,2.129c-0.133,0.777-0.214,1.818-0.163,3.221
				c0.145,3.996,2.925,7.133,3.707,8.13c0.786,1.002,0.905,1.267,0.766,1.403c-0.151,0.155-0.402,0.019-1.399-0.764
				c-1.001-0.786-4.138-3.569-8.133-3.709c-1.401-0.05-2.444,0.029-3.219,0.161c-1.631,0.279-1.942,0.647-2.129,0.694
				C12.595,24.209,11.843,22.386,13.094,20.791z"/>
			<path fill="#FFFFFF" d="M28.561,9.878c2.05-0.249,3.073,0.806,3.073,0.806s-2.354-5.16,2.236-8.558
				c0.073-0.053,0.188-0.053,0.262,0c4.591,3.397,2.234,8.558,2.234,8.558s1.024-1.055,3.077-0.806
				c2.017,0.244,2.774,2.068,2.521,2.218c-0.164,0.097-0.645,0.06-1.994,1.018c-0.643,0.45-1.437,1.131-2.395,2.158
				c-2.725,2.925-2.974,7.11-3.123,8.373c-0.152,1.258-0.253,1.53-0.456,1.53c-0.21,0-0.296-0.272-0.446-1.53
				c-0.151-1.263-0.402-5.448-3.127-8.373c-0.954-1.028-1.751-1.707-2.393-2.158c-1.348-0.958-1.828-0.921-1.992-1.018
				C25.785,11.946,26.542,10.122,28.561,9.878z"/>
			<path fill="#FFFFFF" d="M58.124,28.558c0.246,2.057-0.809,3.078-0.809,3.078s5.165-2.36,8.56,2.231
				c0.053,0.071,0.053,0.188,0.001,0.263c-3.396,4.594-8.561,2.232-8.561,2.232s1.055,1.026,0.809,3.082
				c-0.247,2.014-2.067,2.769-2.22,2.517c-0.099-0.159-0.062-0.643-1.014-1.993c-0.456-0.642-1.137-1.434-2.164-2.392
				c-2.922-2.725-7.108-2.978-8.37-3.128c-1.261-0.148-1.532-0.252-1.532-0.45c0-0.213,0.271-0.299,1.532-0.445
				c1.262-0.152,5.448-0.407,8.37-3.129c1.027-0.958,1.708-1.753,2.164-2.391c0.954-1.352,0.915-1.833,1.014-1.996
				C56.057,25.788,57.877,26.545,58.124,28.558z"/>
			<path fill="#FFFFFF" d="M54.908,47.212c-1.274,1.626-2.744,1.606-2.744,1.606s5.316,1.984,4.473,7.631
				c-0.016,0.089-0.097,0.173-0.187,0.184c-5.648,0.845-7.634-4.471-7.634-4.471s0.025,1.469-1.603,2.747
				c-1.598,1.252-3.422,0.496-3.354,0.212c0.047-0.186,0.415-0.497,0.693-2.126c0.134-0.774,0.213-1.814,0.166-3.223
				c-0.145-3.991-2.928-7.13-3.709-8.129c-0.784-0.999-0.905-1.264-0.768-1.403c0.151-0.15,0.404-0.015,1.406,0.768
				c0.996,0.786,4.134,3.566,8.127,3.706c1.403,0.05,2.443-0.027,3.221-0.158c1.632-0.284,1.939-0.649,2.127-0.695
				C55.405,43.789,56.163,45.613,54.908,47.212z"/>
			<path fill="#FFFFFF" d="M54.91,20.791c-1.276-1.633-2.746-1.607-2.746-1.607s5.316-1.983,4.473-7.633
				c-0.016-0.087-0.097-0.174-0.187-0.185c-5.648-0.848-7.636,4.474-7.636,4.474s0.027-1.47-1.601-2.752
				c-1.598-1.251-3.422-0.496-3.353-0.213c0.045,0.187,0.413,0.503,0.692,2.129c0.133,0.777,0.212,1.818,0.163,3.221
				c-0.143,3.996-2.926,7.135-3.707,8.13c-0.784,1.002-0.905,1.267-0.768,1.403c0.151,0.155,0.404,0.019,1.406-0.764
				c0.996-0.788,4.134-3.569,8.127-3.709c1.403-0.05,2.443,0.029,3.221,0.163c1.632,0.277,1.939,0.646,2.127,0.692
				C55.405,24.209,56.163,22.386,54.91,20.791z"/>
			<g>
				<path fill="#FFFFFF" d="M19.602,40.031c5.105,1.335,7.502-2.684,7.814-3.252c0.02-0.042,0.007-0.073-0.039-0.089
					c-0.619-0.183-5.156-1.334-7.822,3.228C19.529,39.963,19.546,40.016,19.602,40.031z"/>
				<path fill="#FFFFFF" d="M28.08,48.449c4.561-2.668,3.412-7.205,3.23-7.827c-0.016-0.044-0.047-0.058-0.088-0.036
					c-0.568,0.311-4.589,2.707-3.25,7.815C27.985,48.453,28.035,48.475,28.08,48.449z"/>
				<path fill="#FFFFFF" d="M19.602,27.972c5.109-1.341,7.502,2.678,7.814,3.248c0.02,0.044,0.007,0.076-0.039,0.091
					c-0.619,0.18-5.156,1.326-7.822-3.23C19.529,28.035,19.55,27.982,19.602,27.972z"/>
				<path fill="#FFFFFF" d="M28.08,19.553c4.561,2.668,3.412,7.202,3.23,7.824c-0.016,0.043-0.047,0.057-0.088,0.039
					c-0.568-0.313-4.589-2.707-3.25-7.819C27.985,19.546,28.035,19.525,28.08,19.553z"/>
				<path fill="#FFFFFF" d="M48.398,40.031c-5.105,1.335-7.502-2.684-7.813-3.252c-0.021-0.042-0.01-0.073,0.038-0.089
					c0.62-0.183,5.158-1.329,7.823,3.228C48.475,39.967,48.454,40.016,48.398,40.031z"/>
				<path fill="#FFFFFF" d="M39.922,48.449c-4.563-2.668-3.412-7.205-3.227-7.825c0.011-0.046,0.044-0.06,0.086-0.038
					c0.568,0.311,4.591,2.707,3.25,7.815C40.017,48.453,39.967,48.475,39.922,48.449z"/>
				<path fill="#FFFFFF" d="M48.4,27.972c-5.107-1.337-7.504,2.678-7.814,3.248c-0.021,0.044-0.007,0.078,0.038,0.087
					c0.62,0.184,5.158,1.334,7.823-3.227C48.475,28.035,48.454,27.982,48.4,27.972z"/>
				<path fill="#FFFFFF" d="M39.922,19.553c-4.563,2.664-3.412,7.202-3.227,7.824c0.011,0.043,0.044,0.057,0.086,0.039
					c0.568-0.313,4.591-2.707,3.248-7.819C40.017,19.546,39.967,19.525,39.922,19.553z"/>
			</g>
			<path fill="#FFFFFF" d="M4.233,65.96c0.875-0.366,1.294-1.372,0.933-2.247c-0.364-0.881-1.369-1.299-2.249-0.933
				c-0.882,0.364-1.299,1.367-0.933,2.25C2.349,65.908,3.354,66.321,4.233,65.96z"/>
			<path fill="#FFFFFF" d="M4.238,2.042C5.11,2.403,5.527,3.41,5.166,4.29c-0.364,0.88-1.369,1.293-2.25,0.928
				c-0.877-0.36-1.292-1.366-0.932-2.245C2.349,2.094,3.354,1.676,4.238,2.042z"/>
			<path fill="#FFFFFF" d="M63.769,65.96c-0.876-0.366-1.295-1.372-0.931-2.247c0.362-0.881,1.372-1.297,2.248-0.933
				c0.878,0.364,1.298,1.367,0.932,2.25C65.654,65.908,64.646,66.321,63.769,65.96z"/>
			<path fill="#FFFFFF" d="M63.769,2.042c-0.876,0.361-1.295,1.372-0.931,2.248c0.362,0.874,1.372,1.293,2.248,0.928
				c0.878-0.36,1.298-1.366,0.932-2.245C65.654,2.094,64.646,1.676,63.769,2.042z"/>
		</g>
	</g>
</g>
</svg>
