<?xml version="1.0" encoding="utf-8"?>
<!-- Generator: Adobe Illustrator 16.0.0, SVG Export Plug-In . SVG Version: 6.00 Build 0)  -->
<!DOCTYPE svg PUBLIC "-//W3C//DTD SVG 1.1//EN" "http://www.w3.org/Graphics/SVG/1.1/DTD/svg11.dtd">
<svg version="1.1" id="Layer_1" xmlns="http://www.w3.org/2000/svg" xmlns:xlink="http://www.w3.org/1999/xlink" x="0px" y="0px"
	 width="68px" height="68px" viewBox="0 0 68 68" enable-background="new 0 0 68 68" xml:space="preserve">
<g>
	<rect fill="#FFFFFF" width="68" height="68"/>
	<g>
		<g>
			<circle fill="#DF2085" cx="33.999" cy="34.001" r="2.083"/>
			<path fill="#DF2085" d="M47.417,54.58c-0.227,0.231,0.52,0.747,1.014,1.602c0.82,1.429,1.533,3.546-0.152,5.436
				c-2.334,2.626-8.633,0.694-9.857-3.805c0,0,3.343,2.115,5.732,0.644c2.389-1.472,0.895-4.504,0.496-4.045
				c-0.403,0.46-2.24,1.195-4.173,0.28c-1.929-0.924-2.382-3.633-2.496-5.567c-0.127-2.314,0.615-5.156-0.259-4.322
				c-0.298,0.279-1.242,1.266-1.842,4.74c-0.646,3.773-0.807,8.234,2.297,12.684c2.166,3.1,7.449,4.596,11.121,3.31
				c3.679-1.287,5.242-5.793,3.4-8.732C50.863,53.863,47.693,54.306,47.417,54.58z"/>
			<path fill="#DF2085" d="M42.051,43.775c0.002-0.037-0.024-0.069-0.059-0.071c-0.335-0.032-0.691-0.074-1.05-0.138
				c-0.037-0.01-0.07,0.017-0.077,0.053c-0.936,4.215,0.083,7.355,1.414,7.355c1.113,0,1.393-1.358,1.462-1.93
				c0.004-0.038,0.05-0.038,0.061,0c0.266,1.465,1.293,2.581,2.579,3.196c2.257,1.076,5.467,0.983,6.376,0.519
				c0.465-0.909,0.558-4.118-0.52-6.375c-0.614-1.284-1.732-2.313-3.194-2.581c-0.033-0.006-0.037-0.055,0-0.06
				c0.572-0.072,1.931-0.351,1.931-1.464c0-1.332-3.147-2.35-7.361-1.411c-0.032,0.003-0.055,0.042-0.051,0.075
				c0.064,0.357,0.107,0.714,0.141,1.046c0.002,0.039,0.035,0.064,0.069,0.06c1.464-0.12,3.182-0.111,3.604,0.515
				c0.363,0.532-0.308,1.039-1.109,1.341c-0.026,0.011-0.029,0.043-0.002,0.056c2.646,1.113,4.535,5.382,4.329,6.637
				c-1.253,0.208-5.52-1.68-6.637-4.33c-0.013-0.027-0.045-0.027-0.056,0c-0.299,0.804-0.807,1.475-1.341,1.112
				C41.937,46.959,41.931,45.238,42.051,43.775z"/>
			<path fill="#DF2085" d="M35.986,36.402c-0.161,0.596-0.487,1.923-0.487,3.06c0,1.847,1.143,2.688,1.143,2.688
				s0.458-0.316,0.797-0.948c0.35-0.655,0.279-1.144,0.279-1.144c1.257,2.033,3.982,1.646,3.982,1.646s0.39-2.726-1.645-3.984
				c0,0,0.49,0.071,1.143-0.283c0.632-0.338,0.948-0.79,0.948-0.79s-0.84-1.146-2.683-1.146c-1.142,0-2.466,0.326-3.065,0.491
				c0.772,0.71,2.457,2.357,3.614,4.03C38.347,38.859,36.702,37.172,35.986,36.402z"/>
			<path fill="#DF2085" d="M30.274,44.802c-0.874-0.834-0.134,2.008-0.262,4.322c-0.108,1.935-0.563,4.644-2.494,5.567
				c-1.926,0.914-3.768,0.182-4.168-0.28c-0.4-0.459-1.898,2.573,0.491,4.045c2.393,1.472,5.736-0.644,5.736-0.644
				c-1.229,4.499-7.526,6.431-9.858,3.805c-1.688-1.894-0.971-4.007-0.152-5.436c0.492-0.854,1.236-1.37,1.009-1.602
				c-0.271-0.274-3.44-0.717-5.282,2.224c-1.836,2.938-0.276,7.444,3.4,8.731c3.68,1.286,8.959-0.21,11.124-3.31
				c3.108-4.449,2.947-8.91,2.297-12.684C31.521,46.067,30.57,45.081,30.274,44.802z"/>
			<path fill="#DF2085" d="M27.977,40.017c1.165-1.667,2.851-3.314,3.62-4.024c-0.598-0.165-1.924-0.491-3.064-0.491
				c-1.842,0-2.681,1.145-2.681,1.145s0.317,0.453,0.943,0.791c0.653,0.352,1.149,0.283,1.149,0.283
				c-2.037,1.259-1.652,3.984-1.652,3.984s2.729,0.39,3.991-1.646c0,0-0.071,0.488,0.279,1.144c0.334,0.632,0.79,0.948,0.79,0.948
				s1.145-0.841,1.145-2.688c0-1.137-0.322-2.464-0.489-3.06C31.297,37.176,29.648,38.859,27.977,40.017z"/>
			<path fill="#DF2085" d="M49.12,30.017c-2.313,0.126-5.155-0.612-4.323,0.263c0.283,0.296,1.271,1.243,4.741,1.84
				c3.773,0.649,8.233,0.809,12.687-2.296c3.099-2.17,4.597-7.446,3.308-11.123c-1.286-3.679-5.79-5.241-8.731-3.401
				c-2.943,1.839-2.498,5.012-2.22,5.282c0.229,0.228,0.743-0.521,1.601-1.01c1.426-0.822,3.542-1.538,5.436,0.15
				c2.624,2.331,0.694,8.634-3.806,9.856c0,0,2.113-3.342,0.643-5.731c-1.472-2.39-4.505-0.895-4.044-0.497
				c0.46,0.404,1.194,2.243,0.276,4.175C53.768,29.451,51.056,29.907,49.12,30.017z"/>
			<path fill="#DF2085" d="M65.996,2.006c0,0-11.529,0.095-10.672,10.67C65.896,13.534,65.996,2.006,65.996,2.006z"/>
			<path fill="#DF2085" d="M6.382,19.722c1.894-1.688,4.006-0.973,5.438-0.15c0.854,0.488,1.371,1.237,1.6,1.01
				c0.273-0.271,0.718-3.443-2.222-5.282c-2.94-1.84-7.448-0.277-8.734,3.401c-1.286,3.677,0.209,8.957,3.312,11.119
				c4.452,3.108,8.912,2.949,12.683,2.3c3.471-0.597,4.461-1.544,4.744-1.84c0.828-0.875-2.011-0.137-4.325-0.266
				c-1.935-0.106-4.645-0.563-5.564-2.489c-0.922-1.932-0.182-3.769,0.277-4.17c0.46-0.402-2.577-1.897-4.047,0.492
				c-1.472,2.39,0.643,5.73,0.643,5.73C5.683,28.355,3.759,22.053,6.382,19.722z"/>
			<path fill="#DF2085" d="M12.677,12.676C13.53,2.101,2.002,2.003,2.002,2.003S2.102,13.532,12.677,12.676z"/>
			<path fill="#DF2085" d="M17.022,25.721c0,1.331,3.146,2.349,7.357,1.413c0.035-0.006,0.061-0.043,0.055-0.077
				c-0.061-0.358-0.109-0.714-0.135-1.048c-0.01-0.038-0.04-0.064-0.079-0.06c-1.46,0.119-3.178,0.113-3.602-0.514
				c-0.361-0.532,0.308-1.038,1.112-1.338c0.028-0.013,0.028-0.045,0.004-0.058c-2.653-1.115-4.538-5.383-4.333-6.635
				c1.254-0.208,5.521,1.679,6.635,4.33c0.01,0.026,0.048,0.026,0.059-0.002c0.298-0.805,0.804-1.477,1.342-1.11
				c0.623,0.422,0.631,2.139,0.51,3.601c-0.004,0.039,0.022,0.071,0.061,0.074c0.335,0.031,0.69,0.077,1.046,0.138
				c0.033,0.005,0.068-0.017,0.076-0.051c0.94-4.219-0.079-7.359-1.41-7.359c-1.117,0-1.398,1.358-1.462,1.929
				c-0.007,0.039-0.054,0.039-0.063,0c-0.268-1.464-1.299-2.579-2.578-3.19c-2.26-1.082-5.466-0.988-6.377-0.523
				c-0.463,0.909-0.561,4.122,0.523,6.377c0.608,1.283,1.728,2.31,3.19,2.578c0.039,0.011,0.039,0.058,0,0.061
				C18.381,24.325,17.022,24.606,17.022,25.721z"/>
			<path fill="#DF2085" d="M20.578,13.422c0.226-0.232-0.519-0.748-1.011-1.604c-0.818-1.423-1.539-3.542,0.152-5.434
				c2.332-2.627,8.63-0.695,9.858,3.804c0,0-3.344-2.115-5.736-0.646c-2.39,1.473-0.892,4.506-0.491,4.047s2.242-1.194,4.168-0.275
				c1.931,0.92,2.386,3.629,2.494,5.563c0.128,2.314-0.612,5.153,0.262,4.327c0.296-0.284,1.246-1.272,1.841-4.741
				c0.65-3.779,0.812-8.234-2.297-12.687c-2.164-3.102-7.444-4.595-11.122-3.313c-3.679,1.292-5.238,5.794-3.402,8.736
				C17.136,14.142,20.305,13.695,20.578,13.422z"/>
			<path fill="#DF2085" d="M31.353,25.857c0,0-0.456,0.312-0.79,0.942c-0.351,0.654-0.279,1.143-0.279,1.143
				c-1.263-2.032-3.991-1.646-3.991-1.646s-0.385,2.729,1.65,3.985c0,0-0.494-0.068-1.147,0.281
				c-0.626,0.339-0.943,0.795-0.943,0.795s0.839,1.146,2.681,1.141c1.141,0,2.467-0.319,3.064-0.485
				c-0.77-0.715-2.455-2.36-3.62-4.03c1.672,1.158,3.32,2.848,4.031,3.617c0.163-0.598,0.489-1.924,0.489-3.061
				C32.497,26.693,31.353,25.857,31.353,25.857z"/>
			<path fill="#DF2085" d="M37.722,23.199c0.874,0.831,0.132-2.008,0.261-4.322c0.112-1.935,0.565-4.644,2.494-5.563
				c1.933-0.919,3.77-0.184,4.173,0.275c0.398,0.459,1.893-2.574-0.496-4.047c-2.39-1.47-5.732,0.646-5.732,0.646
				c1.225-4.499,7.523-6.431,9.857-3.804c1.686,1.892,0.973,4.011,0.152,5.434c-0.494,0.856-1.24,1.372-1.014,1.604
				c0.276,0.273,3.446,0.718,5.281-2.222c1.842-2.944,0.278-7.448-3.4-8.73c-3.672-1.288-8.955,0.205-11.121,3.307
				c-3.104,4.452-2.943,8.907-2.297,12.687C36.479,21.932,37.424,22.92,37.722,23.199z"/>
			<path fill="#DF2085" d="M42.561,20.623c0.536-0.366,1.042,0.306,1.341,1.11c0.011,0.028,0.045,0.028,0.052,0.002
				c1.121-2.648,5.386-4.538,6.643-4.33c0.204,1.252-1.682,5.52-4.331,6.635c-0.027,0.013-0.024,0.047,0.002,0.058
				c0.802,0.3,1.473,0.806,1.109,1.338c-0.423,0.629-2.141,0.633-3.602,0.514c-0.037-0.005-0.07,0.021-0.072,0.06
				c-0.033,0.334-0.076,0.689-0.143,1.048c-0.002,0.034,0.021,0.071,0.053,0.077c4.214,0.936,7.361-0.082,7.361-1.413
				c0-1.114-1.358-1.392-1.931-1.465c-0.037-0.003-0.033-0.052,0-0.054c1.461-0.271,2.58-1.302,3.194-2.585
				c1.077-2.255,0.984-5.468,0.52-6.377c-0.907-0.465-4.119-0.559-6.376,0.523c-1.281,0.611-2.313,1.727-2.579,3.19
				c-0.011,0.039-0.057,0.039-0.061,0.005c-0.069-0.575-0.349-1.934-1.462-1.934c-1.331,0-2.356,3.141-1.414,7.359
				c0.007,0.034,0.04,0.056,0.077,0.051c0.358-0.061,0.715-0.106,1.05-0.138c0.034-0.003,0.061-0.035,0.059-0.074
				C41.931,22.762,41.937,21.045,42.561,20.623z"/>
			<path fill="#DF2085" d="M40.013,27.982c-1.157,1.67-2.842,3.317-3.614,4.03c0.6,0.161,1.924,0.485,3.065,0.485
				c1.843,0,2.683-1.141,2.683-1.141s-0.317-0.456-0.948-0.795c-0.652-0.35-1.145-0.281-1.145-0.281
				c2.036-1.256,1.65-3.985,1.65-3.985s-2.729-0.386-3.986,1.649c0,0,0.07-0.491-0.279-1.146c-0.339-0.631-0.797-0.947-0.797-0.947
				s-1.143,0.841-1.143,2.687c0,1.137,0.326,2.463,0.487,3.061C36.702,30.83,38.345,29.141,40.013,27.982z"/>
			<path fill="#DF2085" d="M18.876,37.986c2.314-0.13,5.153,0.609,4.325-0.261c-0.283-0.298-1.273-1.246-4.744-1.845
				c-3.771-0.645-8.23-0.809-12.687,2.302c-3.099,2.164-4.594,7.442-3.308,11.12c1.286,3.675,5.794,5.239,8.734,3.398
				c2.939-1.834,2.497-5.006,2.222-5.279c-0.229-0.229-0.746,0.519-1.6,1.008c-1.432,0.822-3.544,1.537-5.438-0.149
				c-2.623-2.334-0.695-8.634,3.803-9.856c0,0-2.114,3.34-0.641,5.729c1.468,2.39,4.505,0.896,4.045,0.498
				c-0.459-0.403-1.199-2.244-0.277-4.173C14.229,38.548,16.941,38.097,18.876,37.986z"/>
			<path fill="#DF2085" d="M2.002,65.997c0,0,11.528-0.1,10.675-10.674C2.102,54.467,2.002,65.997,2.002,65.997z"/>
			<path fill="#DF2085" d="M17.022,42.28c0,1.113,1.358,1.396,1.931,1.464c0.039,0.005,0.039,0.054,0,0.06
				c-1.463,0.268-2.582,1.297-3.19,2.581c-1.084,2.257-0.986,5.466-0.523,6.375c0.911,0.465,4.117,0.558,6.377-0.519
				c1.279-0.615,2.311-1.731,2.578-3.196c0.01-0.038,0.057-0.038,0.063,0c0.063,0.571,0.345,1.93,1.462,1.93
				c1.332,0,2.351-3.141,1.41-7.355c-0.008-0.036-0.043-0.061-0.076-0.056c-0.355,0.061-0.711,0.108-1.046,0.143
				c-0.038,0.005-0.064,0.032-0.061,0.069c0.121,1.463,0.113,3.184-0.51,3.604c-0.538,0.362-1.046-0.309-1.342-1.112
				c-0.011-0.027-0.044-0.027-0.058,0c-1.115,2.65-5.382,4.538-6.636,4.33c-0.207-1.255,1.68-5.523,4.333-6.637
				c0.024-0.013,0.024-0.045-0.004-0.058c-0.805-0.3-1.474-0.807-1.112-1.339c0.424-0.626,2.14-0.635,3.605-0.515
				c0.035,0.005,0.065-0.021,0.075-0.06c0.025-0.332,0.074-0.688,0.135-1.046c0.006-0.033-0.02-0.072-0.058-0.075
				C20.169,39.931,17.022,40.948,17.022,42.28z"/>
			<path fill="#DF2085" d="M61.617,48.28c-1.894,1.687-4.01,0.972-5.436,0.15c-0.857-0.492-1.372-1.238-1.601-1.009
				c-0.278,0.273-0.726,3.445,2.22,5.279c2.941,1.841,7.445,0.276,8.731-3.398c1.289-3.678-0.209-8.956-3.308-11.12
				c-4.453-3.11-8.913-2.946-12.687-2.302c-3.47,0.599-4.458,1.547-4.741,1.845c-0.832,0.87,2.01,0.131,4.323,0.261
				c1.936,0.11,4.647,0.562,5.566,2.49c0.918,1.934,0.184,3.771-0.276,4.175c-0.461,0.397,2.572,1.892,4.044-0.498
				c1.471-2.39-0.643-5.729-0.643-5.729C62.312,39.646,64.241,45.946,61.617,48.28z"/>
			<path fill="#DF2085" d="M55.324,55.323c-0.857,10.574,10.672,10.674,10.672,10.674S65.896,54.467,55.324,55.323z"/>
		</g>
	</g>
</g>
</svg>
